SplineFontDB: 3.0
FontName: KronaOne-Regular
FullName: Krona One
FamilyName: Krona One
Weight: Book
Copyright: Copyright (c) 2011, Sorkin Type Co (www.sorkintype.com) with Reserved Font Name "Krona".
Version: 1.002
ItalicAngle: 0
UnderlinePosition: -50
UnderlineWidth: 50
Ascent: 1638
Descent: 410
LayerCount: 2
Layer: 0 1 "Back"  1
Layer: 1 1 "Fore"  0
NeedsXUIDChange: 1
XUID: [1021 631 1661839179 7803947]
FSType: 0
OS2Version: 3
OS2_WeightWidthSlopeOnly: 0
OS2_UseTypoMetrics: 1
CreationTime: 1329511740
ModificationTime: 1329498169
PfmFamily: 17
TTFWeight: 400
TTFWidth: 5
LineGap: 0
VLineGap: 0
Panose: 2 1 6 5 3 5 0 6 0 4
OS2TypoAscent: 392
OS2TypoAOffset: 1
OS2TypoDescent: -120
OS2TypoDOffset: 1
OS2TypoLinegap: 0
OS2WinAscent: 0
OS2WinAOffset: 1
OS2WinDescent: 0
OS2WinDOffset: 1
HheadAscent: 0
HheadAOffset: 1
HheadDescent: 0
HheadDOffset: 1
OS2SubXSize: 1434
OS2SubYSize: 1331
OS2SubXOff: 0
OS2SubYOff: 287
OS2SupXSize: 1434
OS2SupYSize: 1331
OS2SupXOff: 0
OS2SupYOff: 977
OS2StrikeYSize: 102
OS2StrikeYPos: 512
OS2Vendor: 'STC '
OS2CodePages: 20000093.00000000
OS2UnicodeRanges: a00000af.5000204a.00000000.00000000
DEI: 91125
TtTable: prep
PUSHW_1
 511
SCANCTRL
PUSHB_1
 4
SCANTYPE
EndTTInstrs
ShortTable: maxp 16
  1
  0
  424
  124
  7
  101
  4
  1
  0
  0
  0
  0
  0
  0
  3
  1
EndShort
LangName: 1033 "" "" "Regular" "YvonneSchuettler: Krona: 2011" "" "Version 1.003" "" "Krona is a trademark of Sorkin Type Co." "Yvonne Schuettler" "Yvonne Schuettler" "Krona is a low contrast semi-extended style sans serif. Krona is both readable and full of personality. Krona can be used from small sizes to larger display settings. Krona was inspired by hand lettering on early 20th century Swedish posters." "www.sorkintype.com" "www.ysch.de" "This Font Software is licensed under the SIL Open Font License, Version 1.1. This license is available with a FAQ at: http://scripts.sil.org/OFL" "http://scripts.sil.org/OFL" "" "" "" "Krona One" 
GaspTable: 1 65535 15
Encoding: UnicodeBmp

StartChar: E
Encoding: 69 69 4
Width: 1704
Flags: HW
LayerCount: 2
Fore
SplineSet
222 1563 m 1,0,-1
 1553 1563 l 1,1,-1
 1553 1285 l 1,2,-1
 539 1285 l 1,3,-1
 539 973 l 1,4,-1
 1437 973 l 1,5,-1
 1437 712 l 1,6,-1
 539 712 l 1,7,-1
 539 277 l 1,8,-1
 1574 277 l 1,9,-1
 1574 0 l 1,10,-1
 222 0 l 1,11,-1
 222 1563 l 1,0,-1
EndSplineSet
EndChar

StartChar: I
Encoding: 73 73 5
Width: 683
Flags: HW
LayerCount: 2
Fore
SplineSet
182 1563 m 1,0,-1
 501 1563 l 1,1,-1
 501 0 l 1,2,-1
 182 0 l 1,3,-1
 182 1563 l 1,0,-1
EndSplineSet
EndChar

StartChar: N
Encoding: 78 78 6
Width: 2048
Flags: HW
LayerCount: 2
Fore
SplineSet
220 1563 m 1,0,-1
 537 1563 l 1,1,-1
 1511 1053 l 1,2,-1
 1511 1563 l 1,3,-1
 1828 1563 l 1,4,-1
 1828 0 l 1,5,-1
 1511 0 l 1,6,-1
 1511 717 l 1,7,-1
 537 1224 l 1,8,-1
 537 0 l 1,9,-1
 220 0 l 1,10,-1
 220 1563 l 1,0,-1
EndSplineSet
EndChar

StartChar: S
Encoding: 83 83 7
Width: 2048
Flags: HW
LayerCount: 2
Fore
SplineSet
1625 1167 m 1,0,1
 1317.76 1302 1317.76 1302 972 1302 c 0,2,3
 736.407 1302 736.407 1302 622 1234.5 c 0,4,5
 533 1181.99 533 1181.99 533 1103.99 c 128,-1,6
 533 1026 533 1026 596 981.5 c 128,-1,7
 659 937 659 937 788 937 c 0,8,9
 840 937 840 937 907.5 944.5 c 2,10,-1
 1049.5 961 l 2,11,12
 1248.17 985 1248.17 985 1369.08 985 c 128,-1,13
 1490 985 1490 985 1596.5 954 c 128,-1,14
 1703 923 1703 923 1775 865.5 c 0,15,16
 1921 748.903 1921 748.903 1921 544 c 0,17,18
 1921 276.463 1921 276.463 1680.5 125.5 c 0,19,20
 1445.52 -22 1445.52 -22 1039 -22 c 0,21,22
 527.373 -22 527.373 -22 126 208 c 1,23,-1
 295 465 l 1,24,25
 477.828 361.756 477.828 361.756 610.414 324.378 c 0,26,27
 842.321 259 842.321 259 1025.16 259 c 128,-1,28
 1208 259 1208 259 1307 277.5 c 128,-1,29
 1406 296 1406 296 1468.5 328.5 c 0,30,31
 1588 390.64 1588 390.64 1588 504 c 0,32,33
 1588 589 1588 589 1517 638.5 c 128,-1,34
 1446 688 1446 688 1298 688 c 0,35,36
 1213.95 688 1213.95 688 1077.97 669.5 c 0,37,38
 817.05 634 817.05 634 724.025 634 c 128,-1,39
 631 634 631 634 534.5 661 c 128,-1,40
 438 688 438 688 363.5 742 c 0,41,42
 201 859.785 201 859.785 201 1066 c 0,43,44
 201 1280.11 201 1280.11 374 1420.5 c 0,45,46
 574.252 1583 574.252 1583 980 1583 c 0,47,48
 1408.44 1583 1408.44 1583 1764 1423 c 1,49,-1
 1625 1167 l 1,0,1
EndSplineSet
EndChar

StartChar: O
Encoding: 79 79 8
Width: 2048
Flags: HW
LayerCount: 2
Fore
SplineSet
195 459.5 m 128,-1,1
 130 608 130 608 130 785.5 c 128,-1,2
 130 963 130 963 195 1110 c 128,-1,3
 260 1257 260 1257 377.5 1362.5 c 0,4,5
 624.194 1584 624.194 1584 1024 1584 c 128,-1,6
 1423.81 1584 1423.81 1584 1670.5 1362.5 c 0,7,8
 1788 1257 1788 1257 1853 1110 c 128,-1,9
 1918 963 1918 963 1918 785.5 c 128,-1,10
 1918 608 1918 608 1853 459.5 c 128,-1,11
 1788 311 1788 311 1670.5 204 c 0,12,13
 1422.32 -22 1422.32 -22 1024 -22 c 128,-1,14
 625.678 -22 625.678 -22 377.5 204 c 0,15,0
 260 311 260 311 195 459.5 c 128,-1,1
447 786 m 256,16,17
 447 547.897 447 547.897 611.5 402.5 c 0,18,19
 772.723 260 772.723 260 1024 260 c 256,20,21
 1275.82 260 1275.82 260 1436 402.5 c 0,22,23
 1601 549.286 1601 549.286 1601 786 c 256,24,25
 1601 1023 1601 1023 1436 1165.5 c 0,26,27
 1277.95 1302 1277.95 1302 1024 1302 c 256,28,29
 770.579 1302 770.579 1302 611.5 1165.5 c 0,30,31
 447 1024.35 447 1024.35 447 786 c 256,16,17
EndSplineSet
EndChar

StartChar: a
Encoding: 97 97 9
Width: 1701
Flags: HW
LayerCount: 2
Fore
SplineSet
1199 111 m 1,0,1
 974.111 -21 974.111 -21 687 -21 c 0,2,3
 419.245 -21 419.245 -21 270 92 c 0,4,5
 129 198.757 129 198.757 129 372 c 0,6,7
 129 546.5 129 546.5 277 647.5 c 0,8,9
 431.594 753 431.594 753 719 753 c 0,10,11
 944.879 753 944.879 753 1197 688 c 1,12,13
 1186.67 803.717 1186.67 803.717 1082.5 873.5 c 0,14,15
 974.275 946 974.275 946 794 946 c 0,16,17
 621 946 621 946 433.5 892 c 0,18,19
 371 874 371 874 317 849 c 1,20,-1
 227 1092 l 1,21,22
 531.292 1201 531.292 1201 852.146 1201 c 128,-1,23
 1173 1201 1173 1201 1334 1032 c 128,-1,24
 1495 863 1495 863 1495 514 c 2,25,-1
 1495 0 l 1,26,-1
 1199 0 l 1,27,-1
 1199 111 l 1,0,1
730 518 m 0,28,29
 441 518 441 518 441 382 c 0,30,31
 441 282.301 441 282.301 588.5 246.5 c 0,32,33
 640 234 640 234 715.5 234 c 128,-1,34
 791 234 791 234 864 248 c 128,-1,35
 937 262 937 262 1000 285 c 0,36,37
 1125.49 330.814 1125.49 330.814 1199 400 c 1,38,-1
 1199 452 l 1,39,40
 962.789 518 962.789 518 730 518 c 0,28,29
EndSplineSet
EndChar

StartChar: d
Encoding: 100 100 10
Width: 1711
Flags: HW
LayerCount: 2
Fore
SplineSet
94 588 m 0,0,1
 94 726 94 726 147 839.5 c 128,-1,2
 200 953 200 953 293.5 1033.5 c 0,3,4
 488.05 1201 488.05 1201 794 1201 c 0,5,6
 984.051 1201 984.051 1201 1148.5 1137.5 c 0,7,8
 1199 1118 1199 1118 1238 1095 c 1,9,-1
 1238 1659 l 1,10,-1
 1534 1659 l 1,11,-1
 1534 0 l 1,12,-1
 1238 0 l 1,13,-1
 1238 111 l 1,14,15
 1109.81 22.2517 1109.81 22.2517 905.5 -10.5 c 0,16,17
 840 -21 840 -21 776 -21 c 0,18,19
 474 -21 474 -21 285 147 c 0,20,21
 94 316.778 94 316.778 94 588 c 0,0,1
1238 809 m 1,22,23
 1071.75 942 1071.75 942 833 942 c 0,24,25
 634.448 942 634.448 942 517.5 839 c 0,26,27
 405 739.917 405 739.917 405 585 c 0,28,29
 405 438.607 405 438.607 515.5 340.5 c 0,30,31
 630.947 238 630.947 238 814 238 c 0,32,33
 999.917 238 999.917 238 1153.5 333 c 0,34,35
 1202 363 1202 363 1238 400 c 1,36,-1
 1238 809 l 1,22,23
EndSplineSet
EndChar

StartChar: h
Encoding: 104 104 11
Width: 1703
Flags: HW
LayerCount: 2
Fore
SplineSet
481 819 m 1,0,-1
 481 0 l 1,1,-1
 185 0 l 1,2,-1
 185 1658 l 1,3,-1
 481 1658 l 1,4,-1
 481 1090 l 1,5,6
 683.412 1201 683.412 1201 929 1201 c 0,7,8
 1221.47 1201 1221.47 1201 1389 1034.5 c 0,9,10
 1557 867.537 1557 867.537 1557 580 c 2,11,-1
 1557 0 l 1,12,-1
 1262 0 l 1,13,-1
 1262 568 l 2,14,15
 1262 739.077 1262 739.077 1156 841 c 0,16,17
 1046.8 946 1046.8 946 848.182 946 c 128,-1,18
 649.564 946 649.564 946 481 819 c 1,0,-1
EndSplineSet
EndChar

StartChar: e
Encoding: 101 101 12
Width: 1711
Flags: HW
LayerCount: 2
Fore
SplineSet
1457 88 m 1,0,1
 1222.85 -21 1222.85 -21 932 -21 c 0,2,3
 549.819 -21 549.819 -21 332 158 c 0,4,5
 129 324.822 129 324.822 129 594 c 0,6,7
 129 843.522 129 843.522 319 1017 c 0,8,9
 520.524 1201 520.524 1201 848 1201 c 0,10,11
 1179.54 1201 1179.54 1201 1382.5 1012 c 0,12,13
 1578 829.947 1578 829.947 1578 550 c 0,14,15
 1578 502 1578 502 1575 478 c 1,16,-1
 459 478 l 1,17,18
 497.874 369.563 497.874 369.563 627 305 c 0,19,20
 761 238 761 238 961 238 c 256,21,22
 1145.12 238 1145.12 238 1357 314 c 1,23,-1
 1457 88 l 1,0,1
1264 709 m 1,24,25
 1211.27 870.471 1211.27 870.471 1015 924 c 0,26,27
 949 942 949 942 867.5 942 c 128,-1,28
 786 942 786 942 717 923 c 128,-1,29
 648 904 648 904 596 872 c 0,30,31
 492.888 808.547 492.888 808.547 459 709 c 1,32,-1
 1264 709 l 1,24,25
EndSplineSet
EndChar

StartChar: s
Encoding: 115 115 13
Width: 1537
Flags: HW
LayerCount: 2
Fore
SplineSet
466 811 m 0,0,1
 466 718 466 718 631 718 c 0,2,3
 673 718 673 718 720 723 c 2,4,-1
 818 733.5 l 2,5,6
 961.727 749 961.727 749 1051.36 749 c 128,-1,7
 1141 749 1141 749 1220.5 724 c 128,-1,8
 1300 699 1300 699 1352 654 c 0,9,10
 1456 564 1456 564 1456 415 c 0,11,12
 1456 221.188 1456 221.188 1285 103.5 c 0,13,14
 1104.1 -21 1104.1 -21 781 -21 c 0,15,16
 402.727 -21 402.727 -21 104 138 c 1,17,-1
 232 362 l 1,18,19
 465.333 222 465.333 222 791 222 c 0,20,21
 976.818 222 976.818 222 1070 272 c 0,22,23
 1145 312.244 1145 312.244 1145 379 c 0,24,25
 1145 421 1145 421 1108.5 451 c 128,-1,26
 1072 481 1072 481 1010.5 481 c 128,-1,27
 949 481 949 481 904 476 c 2,28,-1
 809.5 465.5 l 2,29,30
 670 450 670 450 574 450 c 128,-1,31
 478 450 478 450 393.5 476 c 128,-1,32
 309 502 309 502 256 547 c 0,33,34
 155 632.755 155 632.755 155 786 c 0,35,36
 155 968.231 155 968.231 317 1083.5 c 0,37,38
 482.135 1201 482.135 1201 752 1201 c 0,39,40
 960.162 1201 960.162 1201 1197 1137.5 c 0,41,42
 1266 1119 1266 1119 1319 1098 c 1,43,-1
 1226 868 l 1,44,45
 981.167 959 981.167 959 769 959 c 0,46,47
 540.094 959 540.094 959 482.5 866.5 c 0,48,49
 466 840 466 840 466 811 c 0,0,1
EndSplineSet
EndChar

StartChar: i
Encoding: 105 105 14
Width: 683
Flags: HW
LayerCount: 2
Fore
SplineSet
341.5 1341 m 0,0,1
 297 1341 297 1341 261.5 1353.5 c 128,-1,2
 226 1366 226 1366 201 1387.5 c 0,3,4
 149 1432.22 149 1432.22 149 1498 c 0,5,6
 149 1602.89 149 1602.89 261.5 1642.5 c 0,7,8
 297 1655 297 1655 341.5 1655 c 128,-1,9
 386 1655 386 1655 421.5 1642.5 c 128,-1,10
 457 1630 457 1630 482 1609 c 0,11,12
 534 1565.32 534 1565.32 534 1498 c 0,13,14
 534 1432.22 534 1432.22 482 1387.5 c 0,15,16
 427.93 1341 427.93 1341 341.5 1341 c 0,0,1
193 1180 m 1,17,-1
 489 1180 l 1,18,-1
 489 0 l 1,19,-1
 193 0 l 1,20,-1
 193 1180 l 1,17,-1
EndSplineSet
EndChar

StartChar: o
Encoding: 111 111 15
Width: 1696
Flags: HW
LayerCount: 2
Fore
SplineSet
114 590 m 256,0,1
 114 849.482 114 849.482 312.5 1022 c 0,2,3
 518.458 1201 518.458 1201 848 1201 c 256,4,5
 1177.54 1201 1177.54 1201 1383.5 1022 c 0,6,7
 1582 849.482 1582 849.482 1582 590 c 256,8,9
 1582 330.518 1582 330.518 1383.5 158 c 0,10,11
 1177.54 -21 1177.54 -21 848 -21 c 256,12,13
 518.458 -21 518.458 -21 312.5 158 c 0,14,15
 114 330.518 114 330.518 114 590 c 256,0,1
425 590 m 256,16,17
 425 442.725 425 442.725 536.5 343.5 c 0,18,19
 655.052 238 655.052 238 848 238 c 256,20,21
 1040.95 238 1040.95 238 1159.5 343.5 c 0,22,23
 1271 442.725 1271 442.725 1271 590 c 256,24,25
 1271 738.275 1271 738.275 1159.5 837.5 c 0,26,27
 1040.95 943 1040.95 943 848 943 c 256,28,29
 655.052 943 655.052 943 536.5 837.5 c 0,30,31
 425 738.275 425 738.275 425 590 c 256,16,17
EndSplineSet
EndChar

StartChar: n
Encoding: 110 110 16
Width: 1723
Flags: HW
LayerCount: 2
Fore
SplineSet
481 1080 m 1,0,1
 694.104 1201 694.104 1201 917 1201 c 0,2,3
 1196.92 1201 1196.92 1201 1366 1044 c 0,4,5
 1545 877.786 1545 877.786 1545 580 c 2,6,-1
 1545 0 l 1,7,-1
 1250 0 l 1,8,-1
 1250 532 l 2,9,10
 1250 725.932 1250 725.932 1143.5 834.5 c 0,11,12
 1038.05 942 1038.05 942 854 942 c 0,13,14
 701.273 942 701.273 942 563 857.5 c 0,15,16
 518 830 518 830 481 795 c 1,17,-1
 481 0 l 1,18,-1
 185 0 l 1,19,-1
 185 1180 l 1,20,-1
 481 1180 l 1,21,-1
 481 1080 l 1,0,1
EndSplineSet
EndChar

StartChar: H
Encoding: 72 72 17
Width: 2050
Flags: HW
LayerCount: 2
Fore
SplineSet
221 1563 m 1,0,-1
 538 1563 l 1,1,-1
 538 1155 l 1,2,-1
 1510 1155 l 1,3,-1
 1510 1563 l 1,4,-1
 1828 1563 l 1,5,-1
 1828 0 l 1,6,-1
 1510 0 l 1,7,-1
 1510 884 l 1,8,-1
 538 884 l 1,9,-1
 538 0 l 1,10,-1
 221 0 l 1,11,-1
 221 1563 l 1,0,-1
EndSplineSet
EndChar

StartChar: D
Encoding: 68 68 18
Width: 1874
Flags: HW
LayerCount: 2
Fore
SplineSet
222 1563 m 1,0,-1
 795 1563 l 2,1,2
 1285.43 1563 1285.43 1563 1537.5 1354.5 c 0,3,4
 1778 1155.57 1778 1155.57 1778 788 c 0,5,6
 1778 431.884 1778 431.884 1539 223.5 c 0,7,8
 1281.52 -0.999984 1281.52 -0.999984 797 -1 c 2,9,-1
 222 0 l 1,10,-1
 222 1563 l 1,0,-1
873 274 m 2,11,12
 1151.1 274 1151.1 274 1300.5 414 c 0,13,14
 1444 548.469 1444 548.469 1444 788 c 0,15,16
 1444 1146.67 1444 1146.67 1122 1252 c 0,17,18
 1015 1287 1015 1287 873 1287 c 2,19,-1
 539 1287 l 1,20,-1
 539 274 l 1,21,-1
 873 274 l 2,11,12
EndSplineSet
EndChar

StartChar: j
Encoding: 106 106 19
Width: 683
Flags: HW
LayerCount: 2
Fore
SplineSet
341.5 1341 m 0,0,1
 297 1341 297 1341 261.5 1353.5 c 128,-1,2
 226 1366 226 1366 201 1387.5 c 0,3,4
 149 1432.22 149 1432.22 149 1498 c 0,5,6
 149 1602.89 149 1602.89 261.5 1642.5 c 0,7,8
 297 1655 297 1655 341.5 1655 c 128,-1,9
 386 1655 386 1655 421.5 1642.5 c 128,-1,10
 457 1630 457 1630 482 1609 c 0,11,12
 534 1565.32 534 1565.32 534 1498 c 0,13,14
 534 1432.22 534 1432.22 482 1387.5 c 0,15,16
 427.93 1341 427.93 1341 341.5 1341 c 0,0,1
193 1180 m 1,17,-1
 489 1180 l 1,18,-1
 489 177 l 2,19,20
 489 -1.71429 489 -1.71429 464 -88.8571 c 128,-1,21
 439 -176 439 -176 409.5 -229 c 128,-1,22
 380 -282 380 -282 336 -331 c 0,23,24
 256.146 -419.928 256.146 -419.928 90 -530 c 1,25,-1
 -19 -279 l 1,26,27
 102.564 -188.808 102.564 -188.808 149 -94 c 0,28,29
 193 -4.16667 193 -4.16667 193 134 c 2,30,-1
 193 1180 l 1,17,-1
EndSplineSet
EndChar

StartChar: b
Encoding: 98 98 20
Width: 1706
Flags: HW
LayerCount: 2
Fore
SplineSet
177 1659 m 1,0,-1
 473 1659 l 1,1,-1
 473 1069 l 1,2,3
 600.87 1157.53 600.87 1157.53 805 1190.5 c 0,4,5
 870 1201 870 1201 935 1201 c 0,6,7
 1237 1201 1237 1201 1426 1033 c 0,8,9
 1617 863.222 1617 863.222 1617 595 c 0,10,11
 1617 318.262 1617 318.262 1417.5 146.5 c 0,12,13
 1222.95 -21 1222.95 -21 917 -21 c 0,14,15
 726.949 -21 726.949 -21 562.5 42.5 c 0,16,17
 512 62 512 62 473 85 c 1,18,-1
 473 0 l 1,19,-1
 177 0 l 1,20,-1
 177 1659 l 1,0,-1
473 371 m 1,21,22
 639.25 238 639.25 238 878 238 c 0,23,24
 1076.55 238 1076.55 238 1193.5 341 c 0,25,26
 1306 440.083 1306 440.083 1306 595 c 0,27,28
 1306 741.393 1306 741.393 1195.5 839.5 c 0,29,30
 1080.05 942 1080.05 942 897 942 c 0,31,32
 711.083 942 711.083 942 557.5 847 c 0,33,34
 509 817 509 817 473 780 c 1,35,-1
 473 371 l 1,21,22
EndSplineSet
EndChar

StartChar: r
Encoding: 114 114 21
Width: 1027
Flags: HW
LayerCount: 2
Fore
SplineSet
992 946 m 1,0,1
 637.573 910.765 637.573 910.765 481 702 c 1,2,-1
 481 0 l 1,3,-1
 185 0 l 1,4,-1
 185 1180 l 1,5,-1
 481 1180 l 1,6,-1
 481 1010 l 1,7,8
 680.889 1158.9 680.889 1158.9 905 1217 c 1,9,-1
 992 946 l 1,0,1
EndSplineSet
EndChar

StartChar: t
Encoding: 116 116 22
Width: 1022
Flags: HW
LayerCount: 2
Fore
SplineSet
363 958 m 1,0,-1
 78 958 l 1,1,-1
 78 1180 l 1,2,-1
 363 1180 l 1,3,-1
 363 1547 l 1,4,-1
 659 1547 l 1,5,-1
 659 1180 l 1,6,-1
 944 1180 l 1,7,-1
 944 958 l 1,8,-1
 659 958 l 1,9,-1
 659 0 l 1,10,-1
 363 0 l 1,11,-1
 363 958 l 1,0,-1
EndSplineSet
EndChar

StartChar: l
Encoding: 108 108 23
Width: 683
Flags: HW
LayerCount: 2
Fore
SplineSet
193 1659 m 1,0,-1
 489 1659 l 1,1,-1
 489 0 l 1,2,-1
 193 0 l 1,3,-1
 193 1659 l 1,0,-1
EndSplineSet
EndChar

StartChar: g
Encoding: 103 103 24
Width: 1706
Flags: HW
LayerCount: 2
Fore
SplineSet
370 -200 m 1,0,1
 568.8 -271 568.8 -271 790 -271 c 0,2,3
 1013.53 -271 1013.53 -271 1141.5 -166 c 0,4,5
 1258 -70.4103 1258 -70.4103 1258 80 c 2,6,-1
 1258 131 l 1,7,8
 1128.28 42.2414 1128.28 42.2414 927.5 10 c 0,9,10
 859 -1 859 -1 750 -1 c 128,-1,11
 641 -1 641 -1 518 42.5 c 128,-1,12
 395 86 395 86 305 164.5 c 0,13,14
 114 331.094 114 331.094 114 597 c 0,15,16
 114 867.438 114 867.438 313.5 1036 c 0,17,18
 508.785 1201 508.785 1201 813 1201 c 0,19,20
 1004.05 1201 1004.05 1201 1168.5 1137.5 c 0,21,22
 1219 1118 1219 1118 1258 1095 c 1,23,-1
 1258 1180 l 1,24,-1
 1554 1180 l 1,25,-1
 1554 135 l 2,26,27
 1554 -186.37 1554 -186.37 1361.5 -358.5 c 0,28,29
 1169.7 -530 1169.7 -530 806 -530 c 0,30,31
 525.263 -530 525.263 -530 260 -450 c 1,32,-1
 370 -200 l 1,0,1
1258 809 m 1,33,34
 1091.75 942 1091.75 942 853 942 c 0,35,36
 655.29 942 655.29 942 537.5 841.5 c 0,37,38
 425 745.514 425 745.514 425 600 c 256,39,40
 425 454.009 425 454.009 535 357.5 c 0,41,42
 648.409 258 648.409 258 832 258 c 0,43,44
 1019.92 258 1019.92 258 1173.5 353 c 0,45,46
 1222 383 1222 383 1258 420 c 1,47,-1
 1258 809 l 1,33,34
EndSplineSet
EndChar

StartChar: k
Encoding: 107 107 25
Width: 1536
Flags: HW
LayerCount: 2
Fore
SplineSet
186 1659 m 1,0,-1
 482 1659 l 1,1,-1
 482 679 l 1,2,-1
 1034 1180 l 1,3,-1
 1487 1180 l 1,4,-1
 870 628 l 1,5,-1
 1526 0 l 1,6,-1
 1082 0 l 1,7,-1
 643 425 l 1,8,-1
 482 281 l 1,9,-1
 482 0 l 1,10,-1
 186 0 l 1,11,-1
 186 1659 l 1,0,-1
EndSplineSet
EndChar

StartChar: m
Encoding: 109 109 26
Width: 2715
Flags: HW
LayerCount: 2
Fore
SplineSet
912 1201 m 0,0,1
 1205.92 1201 1205.92 1201 1373 1020 c 1,2,3
 1608.3 1201 1608.3 1201 1889 1201 c 0,4,5
 2185.43 1201 2185.43 1201 2353.5 1044 c 0,6,7
 2528 880.994 2528 880.994 2528 580 c 2,8,-1
 2528 0 l 1,9,-1
 2233 0 l 1,10,-1
 2233 532 l 2,11,12
 2233 723.667 2233 723.667 2128.5 834.5 c 0,13,14
 2027.14 942 2027.14 942 1860 942 c 0,15,16
 1707.16 942 1707.16 942 1593 861.5 c 0,17,18
 1554 834 1554 834 1525 797 c 1,19,-1
 1525 0 l 1,20,-1
 1230 0 l 1,21,-1
 1230 532 l 2,22,23
 1230 723.667 1230 723.667 1125.5 834.5 c 0,24,25
 1024.14 942 1024.14 942 854 942 c 0,26,27
 695.685 942 695.685 942 563.5 856 c 0,28,29
 522 829 522 829 489 795 c 1,30,-1
 489 0 l 1,31,-1
 193 0 l 1,32,-1
 193 1180 l 1,33,-1
 489 1180 l 1,34,-1
 489 1080 l 1,35,36
 686.515 1201 686.515 1201 912 1201 c 0,0,1
EndSplineSet
EndChar

StartChar: f
Encoding: 102 102 27
Width: 1026
Flags: HW
LayerCount: 2
Fore
SplineSet
1004 1375 m 1,0,1
 938.857 1413 938.857 1413 838.929 1413 c 128,-1,2
 739 1413 739 1413 676.5 1355.5 c 128,-1,3
 614 1298 614 1298 610 1180 c 1,4,-1
 983 1180 l 1,5,-1
 983 958 l 1,6,-1
 610 958 l 1,7,-1
 610 0 l 1,8,-1
 314 0 l 1,9,-1
 314 958 l 1,10,-1
 112 958 l 1,11,-1
 112 1180 l 1,12,-1
 314 1180 l 1,13,14
 314 1419 314 1419 446.5 1551.5 c 128,-1,15
 579 1684 579 1684 812 1684 c 0,16,17
 984.862 1684 984.862 1684 1109 1624 c 1,18,-1
 1004 1375 l 1,0,1
EndSplineSet
EndChar

StartChar: c
Encoding: 99 99 28
Width: 1526
Flags: HW
LayerCount: 2
Fore
SplineSet
1392 129 m 1,0,1
 1143.56 -21 1143.56 -21 836 -21 c 0,2,3
 503.982 -21 503.982 -21 306 152.5 c 0,4,5
 114 320.758 114 320.758 114 587 c 0,6,7
 114 856.344 114 856.344 300.5 1024.5 c 0,8,9
 496.255 1201 496.255 1201 827 1201 c 0,10,11
 1051.73 1201 1051.73 1201 1251 1127.5 c 0,12,13
 1312 1105 1312 1105 1357 1078 c 1,14,-1
 1220 855 l 1,15,16
 1032.47 942 1032.47 942 861 942 c 0,17,18
 660.042 942 660.042 942 540.5 841.5 c 0,19,20
 425 744.398 425 744.398 425 589 c 256,21,22
 425 434.948 425 434.948 545.5 337.5 c 0,23,24
 668.538 238 668.538 238 869.692 238 c 128,-1,25
 1070.85 238 1070.85 238 1255 352 c 1,26,-1
 1392 129 l 1,0,1
EndSplineSet
EndChar

StartChar: p
Encoding: 112 112 29
Width: 1711
Flags: HW
LayerCount: 2
Fore
SplineSet
473 -482 m 1,0,-1
 177 -482 l 1,1,-1
 177 1180 l 1,2,-1
 473 1180 l 1,3,-1
 473 1069 l 1,4,5
 600.87 1157.53 600.87 1157.53 805 1190.5 c 0,6,7
 870 1201 870 1201 935 1201 c 0,8,9
 1237 1201 1237 1201 1426 1033 c 0,10,11
 1617 863.222 1617 863.222 1617 595 c 0,12,13
 1617 318.262 1617 318.262 1417.5 146.5 c 0,14,15
 1222.95 -21 1222.95 -21 917 -21 c 0,16,17
 726.949 -21 726.949 -21 562.5 42.5 c 0,18,19
 512 62 512 62 473 85 c 1,20,-1
 473 -482 l 1,0,-1
473 371 m 1,21,22
 639.25 238 639.25 238 878 238 c 0,23,24
 1076.55 238 1076.55 238 1193.5 341 c 0,25,26
 1306 440.083 1306 440.083 1306 595 c 0,27,28
 1306 741.393 1306 741.393 1195.5 839.5 c 0,29,30
 1080.05 942 1080.05 942 897 942 c 0,31,32
 711.083 942 711.083 942 557.5 847 c 0,33,34
 509 817 509 817 473 780 c 1,35,-1
 473 371 l 1,21,22
EndSplineSet
EndChar

StartChar: q
Encoding: 113 113 30
Width: 1711
Flags: HW
LayerCount: 2
Fore
SplineSet
814 1201 m 0,0,1
 1059.83 1201 1059.83 1201 1238 1095 c 1,2,-1
 1238 1180 l 1,3,-1
 1534 1180 l 1,4,-1
 1534 -482 l 1,5,-1
 1238 -482 l 1,6,-1
 1238 111 l 1,7,8
 1107.36 20.5563 1107.36 20.5563 922.5 -10.5 c 0,9,10
 860 -21 860 -21 796 -21 c 0,11,12
 494 -21 494 -21 305 147 c 0,13,14
 114 316.778 114 316.778 114 585 c 0,15,16
 114 861.738 114 861.738 313.5 1033.5 c 0,17,18
 508.05 1201 508.05 1201 814 1201 c 0,0,1
1238 809 m 1,19,20
 1069.9 942 1069.9 942 853 942 c 0,21,22
 654.448 942 654.448 942 537.5 839 c 0,23,24
 425 739.917 425 739.917 425 585 c 0,25,26
 425 438.607 425 438.607 535.5 340.5 c 0,27,28
 650.947 238 650.947 238 834 238 c 0,29,30
 1012.42 238 1012.42 238 1156.5 333 c 0,31,32
 1202 363 1202 363 1238 400 c 1,33,-1
 1238 809 l 1,19,20
EndSplineSet
EndChar

StartChar: u
Encoding: 117 117 31
Width: 1708
Flags: HW
LayerCount: 2
Fore
SplineSet
1221 101 m 1,0,1
 1018.09 -20 1018.09 -20 793 -20 c 0,2,3
 324.134 -20 324.134 -20 219 315.5 c 0,4,5
 185 424 185 424 185 563 c 2,6,-1
 185 1181 l 1,7,-1
 480 1181 l 1,8,-1
 480 605 l 2,9,10
 480 427.724 480 427.724 559.5 340 c 0,11,12
 651.031 239 651.031 239 856 239 c 0,13,14
 1014.24 239 1014.24 239 1149.5 327 c 0,15,16
 1191 354 1191 354 1221 386 c 1,17,-1
 1221 1181 l 1,18,-1
 1517 1181 l 1,19,-1
 1517 0 l 1,20,-1
 1221 0 l 1,21,-1
 1221 101 l 1,0,1
EndSplineSet
EndChar

StartChar: v
Encoding: 118 118 32
Width: 1504
Flags: HW
LayerCount: 2
Fore
SplineSet
22 1181 m 1,0,-1
 365 1181 l 1,1,-1
 672 471 l 1,2,-1
 752 272 l 1,3,-1
 832 471 l 1,4,-1
 1139 1181 l 1,5,-1
 1482 1181 l 1,6,-1
 923 0 l 1,7,-1
 581 0 l 1,8,-1
 22 1181 l 1,0,-1
EndSplineSet
EndChar

StartChar: w
Encoding: 119 119 33
Width: 2022
Flags: HW
LayerCount: 2
Fore
SplineSet
22 1181 m 1,0,-1
 365 1181 l 1,1,-1
 672 471 l 1,2,-1
 762 272 l 1,3,-1
 872 530 l 1,4,-1
 580 1181 l 1,5,-1
 868 1181 l 1,6,-1
 1011 831 l 1,7,-1
 1154 1181 l 1,8,-1
 1442 1181 l 1,9,-1
 1149 530 l 1,10,-1
 1260 272 l 1,11,-1
 1350 471 l 1,12,-1
 1657 1181 l 1,13,-1
 2000 1181 l 1,14,-1
 1441 0 l 1,15,-1
 1119 0 l 1,16,-1
 1011 228 l 1,17,-1
 903 0 l 1,18,-1
 581 0 l 1,19,-1
 22 1181 l 1,0,-1
EndSplineSet
EndChar

StartChar: x
Encoding: 120 120 34
Width: 1360
Flags: HW
LayerCount: 2
Fore
SplineSet
491 590 m 1,0,-1
 3 1181 l 1,1,-1
 381 1181 l 1,2,-1
 677 821 l 1,3,-1
 958 1181 l 1,4,-1
 1327 1181 l 1,5,-1
 868 591 l 1,6,-1
 1356 0 l 1,7,-1
 978 0 l 1,8,-1
 673 369 l 1,9,-1
 390 0 l 1,10,-1
 21 0 l 1,11,-1
 491 590 l 1,0,-1
EndSplineSet
EndChar

StartChar: z
Encoding: 122 122 35
Width: 1364
Flags: HW
LayerCount: 2
Fore
SplineSet
754 934 m 1,0,-1
 149 934 l 1,1,-1
 149 1180 l 1,2,-1
 1303 1180 l 1,3,-1
 575 246 l 1,4,-1
 1263 246 l 1,5,-1
 1263 0 l 1,6,-1
 31 0 l 1,7,-1
 754 934 l 1,0,-1
EndSplineSet
EndChar

StartChar: y
Encoding: 121 121 36
Width: 1698
Flags: HW
LayerCount: 2
Fore
SplineSet
1204 121 m 1,0,1
 1029.22 -4.00502e-05 1029.22 -4.00502e-05 771 0 c 0,2,3
 498.902 0 498.902 0 349.5 155.5 c 0,4,5
 198 313.184 198 313.184 198 600 c 2,6,-1
 198 1180 l 1,7,-1
 493 1180 l 1,8,-1
 493 682 l 2,9,10
 493 468 493 468 574.5 366.5 c 128,-1,11
 656 265 656 265 832 265 c 0,12,13
 956 265 956 265 1051.5 308.5 c 128,-1,14
 1147 352 1147 352 1204 420 c 1,15,-1
 1204 1180 l 1,16,-1
 1500 1180 l 1,17,-1
 1500 135 l 2,18,19
 1500 -362.041 1500 -362.041 1088 -487.5 c 0,20,21
 955 -528 955 -528 788 -528 c 0,22,23
 473.833 -528 473.833 -528 216 -398 c 1,24,-1
 326 -148 l 1,25,26
 511.533 -269 511.533 -269 779 -269 c 0,27,28
 983 -269 983 -269 1093.5 -181.5 c 128,-1,29
 1204 -94 1204 -94 1204 81 c 2,30,-1
 1204 121 l 1,0,1
EndSplineSet
EndChar

StartChar: F
Encoding: 70 70 37
Width: 1704
Flags: HW
LayerCount: 2
Fore
SplineSet
222 1563 m 1,0,-1
 1620 1563 l 1,1,-1
 1620 1285 l 1,2,-1
 539 1285 l 1,3,-1
 539 876 l 1,4,-1
 1457 876 l 1,5,-1
 1457 615 l 1,6,-1
 539 615 l 1,7,-1
 539 0 l 1,8,-1
 222 0 l 1,9,-1
 222 1563 l 1,0,-1
EndSplineSet
EndChar

StartChar: L
Encoding: 76 76 38
Width: 1533
Flags: HW
LayerCount: 2
Fore
SplineSet
222 1563 m 1,0,-1
 539 1563 l 1,1,-1
 539 278 l 1,2,-1
 1448 278 l 1,3,-1
 1448 0 l 1,4,-1
 222 0 l 1,5,-1
 222 1563 l 1,0,-1
EndSplineSet
EndChar

StartChar: T
Encoding: 84 84 39
Width: 1703
Flags: HW
LayerCount: 2
Fore
SplineSet
693 1285 m 1,0,-1
 116 1285 l 1,1,-1
 116 1563 l 1,2,-1
 1587 1563 l 1,3,-1
 1587 1285 l 1,4,-1
 1010 1285 l 1,5,-1
 1010 0 l 1,6,-1
 693 0 l 1,7,-1
 693 1285 l 1,0,-1
EndSplineSet
EndChar

StartChar: B
Encoding: 66 66 40
Width: 1879
Flags: HW
LayerCount: 2
Fore
SplineSet
1566 875 m 1,0,1
 1780 748.185 1780 748.185 1780 477 c 0,2,3
 1780 132.524 1780 132.524 1444.5 33.5 c 0,4,5
 1331 0 1331 0 1177 0 c 2,6,-1
 222 0 l 1,7,-1
 222 1563 l 1,8,-1
 1057 1563 l 2,9,10
 1351.47 1563 1351.47 1563 1512 1441 c 0,11,12
 1660 1328.52 1660 1328.52 1660 1136 c 0,13,14
 1660 987 1660 987 1566 875 c 1,0,1
1179 963 m 2,15,16
 1220 963 1220 963 1259 960 c 1,17,18
 1326 1024 1326 1024 1326 1107.5 c 128,-1,19
 1326 1191 1326 1191 1259.5 1237.5 c 128,-1,20
 1193 1284 1193 1284 1065 1284 c 2,21,-1
 539 1284 l 1,22,-1
 539 963 l 1,23,-1
 1179 963 l 2,15,16
1185 276 m 2,24,25
 1313 276 1313 276 1379.5 331 c 128,-1,26
 1446 386 1446 386 1446 486 c 256,27,28
 1446 586 1446 586 1379.5 642 c 128,-1,29
 1313 698 1313 698 1185 698 c 2,30,-1
 539 698 l 1,31,-1
 539 276 l 1,32,-1
 1185 276 l 2,24,25
EndSplineSet
EndChar

StartChar: J
Encoding: 74 74 41
Width: 683
Flags: HW
LayerCount: 2
Fore
SplineSet
-79 -259 m 1,0,1
 60.8045 -173.902 60.8045 -173.902 121 -69.5 c 0,2,3
 183 38.0312 183 38.0312 183 210 c 2,4,-1
 183 1563 l 1,5,-1
 500 1563 l 1,6,-1
 500 267 l 2,7,8
 500 54.7805 500 54.7805 470.5 -48.1098 c 128,-1,9
 441 -151 441 -151 406.5 -211 c 128,-1,10
 372 -271 372 -271 321.5 -325 c 0,11,12
 226.502 -426.582 226.502 -426.582 44 -530 c 1,13,-1
 -79 -259 l 1,0,1
EndSplineSet
EndChar

StartChar: P
Encoding: 80 80 42
Width: 1873
Flags: HW
LayerCount: 2
Fore
SplineSet
222 1563 m 1,0,-1
 1046 1563 l 2,1,2
 1573.79 1563 1573.79 1563 1706.5 1232 c 0,3,4
 1749 1126 1749 1126 1749 997 c 128,-1,5
 1749 868 1749 868 1707 762 c 128,-1,6
 1665 656 1665 656 1578.5 578.5 c 0,7,8
 1394.9 414 1394.9 414 1048 414 c 2,9,-1
 539 415 l 1,10,-1
 539 0 l 1,11,-1
 222 0 l 1,12,-1
 222 1563 l 1,0,-1
1054 689 m 2,13,14
 1229.47 689 1229.47 689 1324.5 771.5 c 0,15,16
 1415 850.066 1415 850.066 1415 991.033 c 128,-1,17
 1415 1132 1415 1132 1324.5 1209.5 c 128,-1,18
 1234 1287 1234 1287 1054 1287 c 2,19,-1
 539 1287 l 1,20,-1
 539 689 l 1,21,-1
 1054 689 l 2,13,14
EndSplineSet
EndChar

StartChar: K
Encoding: 75 75 43
Width: 1704
Flags: HW
LayerCount: 2
Fore
SplineSet
222 1563 m 1,0,-1
 539 1563 l 1,1,-1
 539 754 l 1,2,-1
 1364 1563 l 1,3,-1
 1770 1563 l 1,4,-1
 1000 817 l 1,5,-1
 1770 0 l 1,6,-1
 1348 0 l 1,7,-1
 772 596 l 1,8,-1
 539 371 l 1,9,-1
 539 0 l 1,10,-1
 222 0 l 1,11,-1
 222 1563 l 1,0,-1
EndSplineSet
EndChar

StartChar: M
Encoding: 77 77 44
Width: 2216
Flags: HW
LayerCount: 2
Fore
SplineSet
223 1563 m 1,0,-1
 540 1563 l 1,1,-1
 1108 993 l 1,2,-1
 1676 1563 l 1,3,-1
 1993 1563 l 1,4,-1
 1993 0 l 1,5,-1
 1676 0 l 1,6,-1
 1676 1124 l 1,7,-1
 1108 577 l 1,8,-1
 540 1124 l 1,9,-1
 540 0 l 1,10,-1
 223 0 l 1,11,-1
 223 1563 l 1,0,-1
EndSplineSet
EndChar

StartChar: R
Encoding: 82 82 45
Width: 1873
Flags: HW
LayerCount: 2
Fore
SplineSet
222 1563 m 1,0,-1
 1017 1563 l 2,1,2
 1544.58 1563 1544.58 1563 1677.5 1244 c 0,3,4
 1720 1142 1720 1142 1720 1034 c 128,-1,5
 1720 926 1720 926 1699 847.5 c 128,-1,6
 1678 769 1678 769 1634.5 703 c 0,7,8
 1544.69 566.735 1544.69 566.735 1370 500 c 1,9,-1
 1710 0 l 1,10,-1
 1322 0 l 1,11,-1
 1028 444 l 1,12,-1
 1019 444 l 1,13,-1
 539 445 l 1,14,-1
 539 0 l 1,15,-1
 222 0 l 1,16,-1
 222 1563 l 1,0,-1
1025 719 m 2,17,18
 1199.71 719 1199.71 719 1295.5 799 c 0,19,20
 1386 874.582 1386 874.582 1386 1009.29 c 128,-1,21
 1386 1144 1386 1144 1296 1215.5 c 128,-1,22
 1206 1287 1206 1287 1025 1287 c 2,23,-1
 539 1287 l 1,24,-1
 539 719 l 1,25,-1
 1025 719 l 2,17,18
EndSplineSet
EndChar

StartChar: Q
Encoding: 81 81 46
Width: 2048
Flags: HW
LayerCount: 2
Fore
SplineSet
1503 88 m 1,0,1
 1295.22 -22 1295.22 -22 1024 -22 c 0,2,3
 625.678 -22 625.678 -22 377.5 204 c 0,4,5
 260 311 260 311 195 459.5 c 128,-1,6
 130 608 130 608 130 785.5 c 128,-1,7
 130 963 130 963 195 1110 c 128,-1,8
 260 1257 260 1257 377.5 1362.5 c 0,9,10
 624.194 1584 624.194 1584 1024 1584 c 128,-1,11
 1423.81 1584 1423.81 1584 1670.5 1362.5 c 0,12,13
 1788 1257 1788 1257 1853 1110 c 128,-1,14
 1918 963 1918 963 1918 786 c 0,15,16
 1918 472.957 1918 472.957 1721 255 c 1,17,-1
 2002 0 l 1,18,-1
 1600 0 l 1,19,-1
 1503 88 l 1,0,1
1493 461 m 1,20,21
 1601 598.647 1601 598.647 1601 786 c 0,22,23
 1601 1023 1601 1023 1436 1165.5 c 0,24,25
 1277.95 1302 1277.95 1302 1024 1302 c 256,26,27
 770.579 1302 770.579 1302 611.5 1165.5 c 0,28,29
 447 1024.35 447 1024.35 447 786 c 256,30,31
 447 547.897 447 547.897 611.5 402.5 c 0,32,33
 772.723 260 772.723 260 1024 260 c 0,34,35
 1157 260 1157 260 1267 302 c 1,36,-1
 819 708 l 1,37,-1
 1221 708 l 1,38,-1
 1493 461 l 1,20,21
EndSplineSet
EndChar

StartChar: C
Encoding: 67 67 47
Width: 1879
Flags: HW
LayerCount: 2
Fore
SplineSet
1752 154 m 1,0,1
 1478.83 -21 1478.83 -21 1099 -21 c 0,2,3
 633.269 -21 633.269 -21 372 213.5 c 0,4,5
 127 433.398 127 433.398 127 791 c 0,6,7
 127 958 127 958 190 1102.5 c 128,-1,8
 253 1247 253 1247 372.5 1353.5 c 0,9,10
 628.892 1582 628.892 1582 1055 1582 c 0,11,12
 1431.47 1582 1431.47 1582 1702 1426 c 1,13,-1
 1556 1186 l 1,14,15
 1435.07 1265.63 1435.07 1265.63 1222.5 1292 c 0,16,17
 1158 1300 1158 1300 1050.5 1300 c 128,-1,18
 943 1300 943 1300 824 1262.5 c 128,-1,19
 705 1225 705 1225 623.5 1157.5 c 0,20,21
 457 1019.6 457 1019.6 457 791 c 0,22,23
 457 555.299 457 555.299 628.5 410.5 c 0,24,25
 805.567 261 805.567 261 1088.84 261 c 128,-1,26
 1372.1 261 1372.1 261 1606 394 c 1,27,-1
 1752 154 l 1,0,1
EndSplineSet
EndChar

StartChar: G
Encoding: 71 71 48
Width: 2048
Flags: HW
LayerCount: 2
Fore
SplineSet
1524 1196 m 1,0,1
 1346.33 1300 1346.33 1300 1069 1300 c 0,2,3
 777.889 1300 777.889 1300 609 1157.5 c 0,4,5
 445 1019.12 445 1019.12 445 790 c 0,6,7
 445 556.049 445 556.049 614 410 c 0,8,9
 786.414 261 786.414 261 1067 261 c 0,10,11
 1292.04 261 1292.04 261 1438 359 c 0,12,13
 1581.94 455.646 1581.94 455.646 1610 622 c 1,14,-1
 1064 622 l 1,15,-1
 1064 883 l 1,16,-1
 1895 883 l 1,17,-1
 1895 882 l 1,18,-1
 1896 883 l 1,19,20
 1946.41 641.022 1946.41 641.022 1859.5 435.5 c 0,21,22
 1771.39 227.14 1771.39 227.14 1566 106.5 c 0,23,24
 1348.93 -21 1348.93 -21 1045 -21 c 0,25,26
 620.378 -21 620.378 -21 362 218 c 0,27,28
 242 329 242 329 178.5 478 c 128,-1,29
 115 627 115 627 115 794 c 128,-1,30
 115 961 115 961 177 1104.5 c 128,-1,31
 239 1248 239 1248 358 1354 c 0,32,33
 613.962 1582 613.962 1582 1048 1582 c 0,34,35
 1408.74 1582 1408.74 1582 1670 1436 c 1,36,-1
 1524 1196 l 1,0,1
EndSplineSet
EndChar

StartChar: Z
Encoding: 90 90 49
Width: 1710
Flags: HW
LayerCount: 2
Fore
SplineSet
941 1110 m 1,0,-1
 1091 1293 l 1,1,-1
 152 1293 l 1,2,-1
 152 1563 l 1,3,-1
 1681 1563 l 1,4,-1
 650 270 l 1,5,-1
 1632 270 l 1,6,-1
 1632 0 l 1,7,-1
 75 0 l 1,8,-1
 941 1110 l 1,0,-1
EndSplineSet
EndChar

StartChar: V
Encoding: 86 86 50
Width: 1710
Flags: HW
LayerCount: 2
Fore
SplineSet
13 1563 m 1,0,-1
 364 1563 l 1,1,-1
 855 371 l 1,2,-1
 1346 1563 l 1,3,-1
 1697 1563 l 1,4,-1
 1012 0 l 1,5,-1
 698 0 l 1,6,-1
 13 1563 l 1,0,-1
EndSplineSet
EndChar

StartChar: W
Encoding: 87 87 51
Width: 2554
Flags: HW
LayerCount: 2
Fore
SplineSet
20 1563 m 1,0,-1
 366 1563 l 1,1,-1
 790 554 l 1,2,-1
 888 310 l 1,3,-1
 965 554 l 1,4,-1
 1121 922 l 1,5,-1
 840 1563 l 1,6,-1
 1166 1563 l 1,7,-1
 1281 1258 l 1,8,-1
 1388 1563 l 1,9,-1
 1714 1563 l 1,10,-1
 1433 922 l 1,11,-1
 1592 546 l 1,12,-1
 1688 310 l 1,13,-1
 1762 550 l 1,14,-1
 2188 1563 l 1,15,-1
 2534 1563 l 1,16,-1
 1844 0 l 1,17,-1
 1530 0 l 1,18,-1
 1391 310 l 1,19,-1
 1278 611 l 1,20,-1
 1165 310 l 1,21,-1
 1024 0 l 1,22,-1
 710 0 l 1,23,-1
 20 1563 l 1,0,-1
EndSplineSet
EndChar

StartChar: X
Encoding: 88 88 52
Width: 1704
Flags: HW
LayerCount: 2
Fore
SplineSet
666 794 m 1,0,-1
 65 1563 l 1,1,-1
 453 1563 l 1,2,-1
 868 1025 l 1,3,-1
 1285 1563 l 1,4,-1
 1667 1563 l 1,5,-1
 1055 797 l 1,6,-1
 1688 0 l 1,7,-1
 1299 0 l 1,8,-1
 854 562 l 1,9,-1
 399 0 l 1,10,-1
 16 0 l 1,11,-1
 666 794 l 1,0,-1
EndSplineSet
EndChar

StartChar: U
Encoding: 85 85 53
Width: 1873
Flags: HW
LayerCount: 2
Fore
SplineSet
163 1563 m 1,0,-1
 480 1563 l 1,1,-1
 480 702 l 2,2,3
 480 377.041 480 377.041 738 287.5 c 0,4,5
 823 258 823 258 935.5 258 c 128,-1,6
 1048 258 1048 258 1133.5 287.5 c 128,-1,7
 1219 317 1219 317 1276.5 374 c 0,8,9
 1392 488.496 1392 488.496 1392 702 c 2,10,-1
 1392 1563 l 1,11,-1
 1709 1563 l 1,12,-1
 1709 664 l 2,13,14
 1709 352.545 1709 352.545 1506 168 c 0,15,16
 1299.2 -20 1299.2 -20 936 -20 c 256,17,18
 572.8 -20 572.8 -20 366 168 c 0,19,20
 163 352.545 163 352.545 163 664 c 2,21,-1
 163 1563 l 1,0,-1
EndSplineSet
EndChar

StartChar: hyphen
Encoding: 45 45 54
Width: 1191
Flags: HW
LayerCount: 2
Fore
SplineSet
137 906 m 1,0,-1
 1054 906 l 1,1,-1
 1054 684 l 1,2,-1
 137 684 l 1,3,-1
 137 906 l 1,0,-1
EndSplineSet
EndChar

StartChar: comma
Encoding: 44 44 56
Width: 858
Flags: HW
LayerCount: 2
Fore
SplineSet
191 173.5 m 0,0,1
 191 214 191 214 208 249 c 128,-1,2
 225 284 225 284 255.5 310.5 c 0,3,4
 320.528 367 320.528 367 427 367 c 0,5,6
 545 367 545 367 617 295 c 0,7,8
 691 221 691 221 691 87.5 c 128,-1,9
 691 -46 691 -46 593.5 -176.5 c 128,-1,10
 496 -307 496 -307 310 -408 c 1,11,-1
 190 -238 l 1,12,13
 328.269 -164.633 328.269 -164.633 389.5 -81 c 0,14,15
 410 -53 410 -53 426 -21 c 1,16,17
 322.962 -21 322.962 -21 255 36 c 0,18,19
 191 89.6774 191 89.6774 191 173.5 c 0,0,1
EndSplineSet
EndChar

StartChar: Y
Encoding: 89 89 57
Width: 1710
Flags: HW
LayerCount: 2
Fore
SplineSet
701 387 m 1,0,-1
 18 1563 l 1,1,-1
 377 1563 l 1,2,-1
 858 674 l 1,3,-1
 1333 1563 l 1,4,-1
 1692 1563 l 1,5,-1
 1018 389 l 1,6,-1
 1018 0 l 1,7,-1
 701 0 l 1,8,-1
 701 387 l 1,0,-1
EndSplineSet
EndChar

StartChar: period
Encoding: 46 46 58
Width: 858
Flags: HW
LayerCount: 2
Fore
SplineSet
191 173 m 256,0,1
 191 255.79 191 255.79 255 310.5 c 0,2,3
 321.094 367 321.094 367 429 367 c 256,4,5
 537.472 367 537.472 367 602.5 310.5 c 0,6,7
 666 255.328 666 255.328 666 173 c 256,8,9
 666 90.1311 666 90.1311 602.5 36 c 0,10,11
 535.635 -21 535.635 -21 429 -21 c 256,12,13
 322.962 -21 322.962 -21 255 36 c 0,14,15
 191 89.6774 191 89.6774 191 173 c 256,0,1
EndSplineSet
EndChar

StartChar: one
Encoding: 49 49 59
Width: 1195
Flags: HW
LayerCount: 2
Fore
SplineSet
518 1251 m 1,0,1
 366.949 1216.47 366.949 1216.47 266 1146 c 1,2,-1
 110 1369 l 1,3,4
 418.963 1563 418.963 1563 835 1563 c 1,5,-1
 834 1561 l 1,6,-1
 835 1561 l 1,7,-1
 835 278 l 1,8,-1
 1174 278 l 1,9,-1
 1174 0 l 1,10,-1
 163 0 l 1,11,-1
 163 278 l 1,12,-1
 518 278 l 1,13,-1
 518 1251 l 1,0,1
EndSplineSet
EndChar

StartChar: two
Encoding: 50 50 60
Width: 1710
Flags: HW
LayerCount: 2
Fore
SplineSet
183 1389 m 1,0,1
 494.769 1582 494.769 1582 862 1582 c 0,2,3
 1177.64 1582 1177.64 1582 1349.5 1435 c 0,4,5
 1507 1300.28 1507 1300.28 1507 1086 c 0,6,7
 1507 926.8 1507 926.8 1390 790 c 0,8,9
 1268.01 647.361 1268.01 647.361 936 428 c 2,10,-1
 708 278 l 1,11,-1
 1564 278 l 1,12,-1
 1564 0 l 1,13,-1
 220 0 l 1,14,-1
 220 272 l 1,15,-1
 771 650 l 2,16,17
 1010.32 814.047 1010.32 814.047 1098 910.5 c 0,18,19
 1177 997.4 1177 997.4 1177 1080 c 0,20,21
 1177 1234.14 1177 1234.14 994.5 1283 c 0,22,23
 931 1300 931 1300 843 1300 c 0,24,25
 581.304 1300 581.304 1300 329 1149 c 1,26,-1
 183 1389 l 1,0,1
EndSplineSet
EndChar

StartChar: four
Encoding: 52 52 61
Width: 1874
Flags: HW
LayerCount: 2
Fore
SplineSet
191 612 m 1,0,-1
 1105 1563 l 1,1,-1
 1422 1563 l 1,2,-1
 1422 612 l 1,3,-1
 1759 612 l 1,4,-1
 1759 334 l 1,5,-1
 1422 334 l 1,6,-1
 1422 0 l 1,7,-1
 1105 0 l 1,8,-1
 1105 334 l 1,9,-1
 189 334 l 1,10,-1
 191 612 l 1,0,-1
1105 612 m 1,11,-1
 1105 1162 l 1,12,-1
 571 612 l 1,13,-1
 1105 612 l 1,11,-1
EndSplineSet
EndChar

StartChar: seven
Encoding: 55 55 62
Width: 1537
Flags: HW
LayerCount: 2
Fore
SplineSet
1017 1283 m 1,0,-1
 108 1283 l 1,1,-1
 108 1563 l 1,2,-1
 1497 1563 l 1,3,-1
 682 0 l 1,4,-1
 322 0 l 1,5,-1
 1017 1283 l 1,0,-1
EndSplineSet
EndChar

StartChar: nine
Encoding: 57 57 63
Width: 1874
Flags: HW
LayerCount: 2
Fore
SplineSet
415 361 m 1,0,1
 539.655 288.526 539.655 288.526 734.5 266.5 c 0,2,3
 792 260 792 260 876 260 c 128,-1,4
 960 260 960 260 1053.5 290 c 128,-1,5
 1147 320 1147 320 1215 375 c 0,6,7
 1353.7 487.181 1353.7 487.181 1374 676 c 1,8,9
 1172.34 517 1172.34 517 831 517 c 0,10,11
 536.151 517 536.151 517 361 653 c 0,12,13
 183 791.212 183 791.212 183 1028 c 0,14,15
 183 1271.86 183 1271.86 367 1422.5 c 0,16,17
 561.826 1582 561.826 1582 906 1582 c 0,18,19
 1461.12 1582 1461.12 1582 1625.5 1164.5 c 0,20,21
 1682 1021 1682 1021 1682 815 c 128,-1,22
 1682 609 1682 609 1618.5 450.5 c 128,-1,23
 1555 292 1555 292 1444.5 187 c 0,24,25
 1224.55 -22 1224.55 -22 860 -22 c 0,26,27
 619 -22 619 -22 404.5 59 c 0,28,29
 333 86 333 86 274 121 c 1,30,-1
 415 361 l 1,0,1
500 1037.5 m 0,31,32
 500 984 500 984 521 941 c 128,-1,33
 542 898 542 898 586.5 866.5 c 0,34,35
 683.27 798 683.27 798 870 798 c 0,36,37
 1107.39 798 1107.39 798 1278.5 901 c 0,38,39
 1330 932 1330 932 1367 969 c 1,40,41
 1343 1133 1343 1133 1223 1216.5 c 128,-1,42
 1103 1300 1103 1300 908 1300 c 0,43,44
 716.592 1300 716.592 1300 606 1224.5 c 0,45,46
 500 1152.13 500 1152.13 500 1037.5 c 0,31,32
EndSplineSet
EndChar

StartChar: six
Encoding: 54 54 64
Width: 1874
Flags: HW
LayerCount: 2
Fore
SplineSet
1441 1209 m 1,0,1
 1280.84 1300 1280.84 1300 1032 1300 c 0,2,3
 803.182 1300 803.182 1300 661 1185 c 0,4,5
 522.303 1072.82 522.303 1072.82 502 884 c 1,6,7
 703.659 1043 703.659 1043 1045 1043 c 0,8,9
 1339.85 1043 1339.85 1043 1515 907 c 0,10,11
 1693 768.788 1693 768.788 1693 532 c 0,12,13
 1693 288.137 1693 288.137 1509 137.5 c 0,14,15
 1314.17 -22 1314.17 -22 970 -22 c 0,16,17
 414.882 -22 414.882 -22 250.5 395.5 c 0,18,19
 194 539 194 539 194 745 c 128,-1,20
 194 951 194 951 257.5 1109.5 c 128,-1,21
 321 1268 321 1268 431.5 1373 c 0,22,23
 651.448 1582 651.448 1582 1016 1582 c 0,24,25
 1357.8 1582 1357.8 1582 1582 1449 c 1,26,-1
 1441 1209 l 1,0,1
509 591 m 1,27,28
 533 427 533 427 653 343.5 c 128,-1,29
 773 260 773 260 968 260 c 0,30,31
 1159.41 260 1159.41 260 1270 335.5 c 0,32,33
 1376 407.865 1376 407.865 1376 527 c 0,34,35
 1376 690.379 1376 690.379 1175 743.5 c 0,36,37
 1105 762 1105 762 1014 762 c 128,-1,38
 923 762 923 762 849 749 c 128,-1,39
 775 736 775 736 712 713 c 0,40,41
 584.425 666.425 584.425 666.425 509 591 c 1,27,28
EndSplineSet
EndChar

StartChar: three
Encoding: 51 51 65
Width: 1710
Flags: HW
LayerCount: 2
Fore
SplineSet
277 372 m 1,0,1
 502.828 261 502.828 261 792 261 c 0,2,3
 1009.56 261 1009.56 261 1126 330 c 0,4,5
 1232 392.815 1232 392.815 1232 501 c 0,6,7
 1232 570 1232 570 1185 624.5 c 128,-1,8
 1138 679 1138 679 1042.5 706.5 c 0,9,10
 831.18 767.351 831.18 767.351 459 671 c 1,11,-1
 460 905 l 1,12,-1
 1044 1285 l 1,13,-1
 217 1285 l 1,14,-1
 217 1563 l 1,15,-1
 1468 1563 l 1,16,-1
 1468 1291 l 1,17,-1
 954 965 l 1,18,19
 1230.14 965 1230.14 965 1393 830 c 0,20,21
 1549 700.684 1549 700.684 1549 496 c 0,22,23
 1549 258.944 1549 258.944 1348 120.5 c 0,24,25
 1142.56 -21 1142.56 -21 788 -21 c 0,26,27
 439.125 -21 439.125 -21 131 132 c 1,28,-1
 277 372 l 1,0,1
EndSplineSet
EndChar

StartChar: five
Encoding: 53 53 66
Width: 1710
Flags: HW
LayerCount: 2
Fore
SplineSet
549 979 m 1,0,1
 725.471 1019 725.471 1019 889.735 1019 c 128,-1,2
 1054 1019 1054 1019 1184 983 c 128,-1,3
 1314 947 1314 947 1403.5 880 c 0,4,5
 1587 742.631 1587 742.631 1587 507 c 0,6,7
 1587 261.751 1587 261.751 1387.5 122 c 0,8,9
 1183.36 -21 1183.36 -21 816 -21 c 0,10,11
 420.75 -21 420.75 -21 119 132 c 1,12,-1
 265 372 l 1,13,14
 483.172 261 483.172 261 807 261 c 0,15,16
 1153.82 261 1153.82 261 1242.5 404.5 c 0,17,18
 1270 449 1270 449 1270 503.5 c 128,-1,19
 1270 558 1270 558 1241.5 604 c 128,-1,20
 1213 650 1213 650 1156.5 683 c 0,21,22
 1036.65 753 1036.65 753 788.726 753 c 128,-1,23
 540.8 753 540.8 753 256 664 c 1,24,-1
 256 1563 l 1,25,-1
 1455 1563 l 1,26,-1
 1455 1282 l 1,27,-1
 549 1282 l 1,28,-1
 549 979 l 1,0,1
EndSplineSet
EndChar

StartChar: eight
Encoding: 56 56 67
Width: 1874
Flags: HW
LayerCount: 2
Fore
SplineSet
1476 871 m 1,0,1
 1717 728.367 1717 728.367 1717 476 c 0,2,3
 1717 242.192 1717 242.192 1506.5 110.5 c 0,4,5
 1296.31 -21 1296.31 -21 937 -21 c 256,6,7
 577.693 -21 577.693 -21 367.5 110.5 c 0,8,9
 157 242.192 157 242.192 157 476 c 0,10,11
 157 731.22 157 731.22 398 871 c 1,12,13
 267 1000.1 267 1000.1 267 1136 c 0,14,15
 267 1335.4 267 1335.4 447 1458.5 c 0,16,17
 629.042 1583 629.042 1583 937 1583 c 256,18,19
 1244.96 1583 1244.96 1583 1427 1458.5 c 0,20,21
 1607 1335.4 1607 1335.4 1607 1136 c 0,22,23
 1607 1000.1 1607 1000.1 1476 871 c 1,0,1
584 1122 m 256,24,25
 584 995.889 584 995.889 771.5 957 c 0,26,27
 839 943 839 943 937 943 c 256,28,29
 1209.17 943 1209.17 943 1271.5 1052.5 c 0,30,31
 1290 1085 1290 1085 1290 1122 c 256,32,33
 1290 1248.11 1290 1248.11 1102.5 1287 c 0,34,35
 1035 1301 1035 1301 937 1301 c 256,36,37
 664.831 1301 664.831 1301 602.5 1191.5 c 0,38,39
 584 1159 584 1159 584 1122 c 256,24,25
474 491 m 256,40,41
 474 329.195 474 329.195 736 278 c 0,42,43
 823 261 823 261 937 261 c 256,44,45
 1275.75 261 1275.75 261 1370.5 397.5 c 0,46,47
 1400 440 1400 440 1400 491 c 256,48,49
 1400 653.391 1400 653.391 1141 704 c 0,50,51
 1054 721 1054 721 937 721 c 256,52,53
 594.035 721 594.035 721 502.5 584.5 c 0,54,55
 474 542 474 542 474 491 c 256,40,41
EndSplineSet
EndChar

StartChar: zero
Encoding: 48 48 68
Width: 1879
Flags: HW
LayerCount: 2
Fore
SplineSet
129 785 m 256,0,1
 129 1160.54 129 1160.54 348 1378.5 c 0,2,3
 563.526 1593 563.526 1593 939 1593 c 256,4,5
 1314.47 1593 1314.47 1593 1530 1378.5 c 0,6,7
 1749 1160.54 1749 1160.54 1749 785 c 256,8,9
 1749 408.914 1749 408.914 1530 192 c 0,10,11
 1313.94 -22 1313.94 -22 939 -22 c 256,12,13
 564.058 -22 564.058 -22 348 192 c 0,14,15
 129 408.914 129 408.914 129 785 c 256,0,1
446 785.5 m 0,16,17
 446 658 446 658 480.5 560 c 128,-1,18
 515 462 515 462 579 395.5 c 0,19,20
 709.406 260 709.406 260 939 260 c 256,21,22
 1168.59 260 1168.59 260 1299 395.5 c 0,23,24
 1432 533.695 1432 533.695 1432 786 c 0,25,26
 1432 1035.77 1432 1035.77 1299 1175 c 0,27,28
 1169.09 1311 1169.09 1311 939 1311 c 256,29,30
 708.91 1311 708.91 1311 579 1175 c 0,31,32
 446 1035.77 446 1035.77 446 785.5 c 0,16,17
EndSplineSet
EndChar

StartChar: exclam
Encoding: 33 33 71
Width: 858
Flags: HW
LayerCount: 2
Fore
SplineSet
270 1563 m 1,0,-1
 587 1563 l 1,1,-1
 587 569 l 1,2,-1
 270 569 l 1,3,-1
 270 1563 l 1,0,-1
191 173 m 256,4,5
 191 255.79 191 255.79 255 310.5 c 0,6,7
 321.094 367 321.094 367 429 367 c 256,8,9
 537.472 367 537.472 367 602.5 310.5 c 0,10,11
 666 255.328 666 255.328 666 173 c 256,12,13
 666 90.1311 666 90.1311 602.5 36 c 0,14,15
 535.635 -21 535.635 -21 429 -21 c 256,16,17
 322.962 -21 322.962 -21 255 36 c 0,18,19
 191 89.6774 191 89.6774 191 173 c 256,4,5
EndSplineSet
EndChar

StartChar: question
Encoding: 63 63 72
Width: 1710
Flags: HW
LayerCount: 2
Fore
SplineSet
669 961 m 1,0,1
 1138.97 983.247 1138.97 983.247 1232 1087.5 c 0,2,3
 1261 1120 1261 1120 1261 1158 c 128,-1,4
 1261 1196 1261 1196 1237 1225 c 128,-1,5
 1213 1254 1213 1254 1168 1273.5 c 0,6,7
 1076.85 1313 1076.85 1313 951.423 1313 c 128,-1,8
 826 1313 826 1313 737 1302 c 128,-1,9
 648 1291 648 1291 566 1272 c 0,10,11
 401.03 1233.78 401.03 1233.78 286 1172 c 1,12,-1
 140 1412 l 1,13,14
 344.059 1532.03 344.059 1532.03 655 1578 c 0,15,16
 770 1595 770 1595 913.5 1595 c 128,-1,17
 1057 1595 1057 1595 1183.5 1565.5 c 128,-1,18
 1310 1536 1310 1536 1397.5 1480.5 c 0,19,20
 1578 1366.01 1578 1366.01 1578 1160 c 0,21,22
 1578 994.903 1578 994.903 1445 897 c 0,23,24
 1296.89 787.974 1296.89 787.974 954 742 c 1,25,-1
 954 569 l 1,26,-1
 669 569 l 1,27,-1
 669 961 l 1,0,1
601 173 m 256,28,29
 601 255.79 601 255.79 665 310.5 c 0,30,31
 731.094 367 731.094 367 839 367 c 256,32,33
 947.472 367 947.472 367 1012.5 310.5 c 0,34,35
 1076 255.328 1076 255.328 1076 173 c 256,36,37
 1076 90.1311 1076 90.1311 1012.5 36 c 0,38,39
 945.635 -21 945.635 -21 839 -21 c 256,40,41
 732.962 -21 732.962 -21 665 36 c 0,42,43
 601 89.6774 601 89.6774 601 173 c 256,28,29
EndSplineSet
EndChar

StartChar: asterisk
Encoding: 42 42 75
Width: 1365
Flags: HW
LayerCount: 2
Fore
SplineSet
284 1047 m 1,0,-1
 497 1340 l 1,1,-1
 153 1453 l 1,2,-1
 223 1670 l 1,3,-1
 568 1557 l 1,4,-1
 566 1920 l 1,5,-1
 797 1920 l 1,6,-1
 795 1557 l 1,7,-1
 1141 1669 l 1,8,-1
 1212 1452 l 1,9,-1
 868 1340 l 1,10,-1
 1078 1047 l 1,11,-1
 894 913 l 1,12,-1
 682 1207 l 1,13,-1
 468 914 l 1,14,-1
 284 1047 l 1,0,-1
EndSplineSet
EndChar

StartChar: bullet
Encoding: 8226 8226 76
Width: 1196
Flags: HW
LayerCount: 2
Fore
SplineSet
599 682 m 256,0,1
 455.029 682 455.029 682 366 758 c 0,2,3
 280 831.415 280 831.415 280 941 c 256,4,5
 280 1051.04 280 1051.04 366 1125.5 c 0,6,7
 453.197 1201 453.197 1201 599 1201 c 256,8,9
 743.803 1201 743.803 1201 831 1125.5 c 0,10,11
 916 1051.9 916 1051.9 916 941 c 256,12,13
 916 830.561 916 830.561 831 758 c 0,14,15
 741.971 682 741.971 682 599 682 c 256,0,1
EndSplineSet
EndChar

StartChar: ampersand
Encoding: 38 38 77
Width: 2222
Flags: HW
LayerCount: 2
Fore
SplineSet
1376 116 m 1,0,1
 1156.8 -21 1156.8 -21 854 -21 c 0,2,3
 525.028 -21 525.028 -21 339 131.5 c 0,4,5
 167 272.5 167 272.5 167 498 c 0,6,7
 167 600.551 167 600.551 201.5 673.776 c 0,8,9
 260.62 799.254 260.62 799.254 379 931 c 1,10,11
 313 1038.49 313 1038.49 313 1143.24 c 128,-1,12
 313 1248 313 1248 351 1327 c 128,-1,13
 389 1406 389 1406 458 1463.5 c 0,14,15
 603.8 1585 603.8 1585 835 1585 c 0,16,17
 1075.38 1585 1075.38 1585 1228 1452 c 0,18,19
 1373 1325.64 1373 1325.64 1373 1138 c 0,20,21
 1373 984.512 1373 984.512 1243 788 c 0,22,23
 1200 723 1200 723 1143 649 c 1,24,-1
 1380 472 l 1,25,26
 1530.95 650.399 1530.95 650.399 1591 932 c 1,27,-1
 1490 932 l 1,28,-1
 1490 1180 l 1,29,-1
 2150 1180 l 1,30,-1
 2150 932 l 1,31,-1
 1854 932 l 1,32,33
 1776.13 549.304 1776.13 549.304 1598 319 c 1,34,35
 1748.02 234.204 1748.02 234.204 1920 260 c 1,36,-1
 2010 1 l 1,37,38
 1829.38 -34.7034 1829.38 -34.7034 1726.69 -18.8517 c 128,-1,39
 1624 -3 1624 -3 1545.5 28 c 128,-1,40
 1467 59 1467 59 1376 116 c 1,0,1
929 810 m 1,41,42
 1062 985.486 1062 985.486 1062 1118 c 0,43,44
 1062 1222.16 1062 1222.16 994 1277 c 0,45,46
 933.24 1326 933.24 1326 834 1326 c 0,47,48
 684.2 1326 684.2 1326 638 1227 c 0,49,50
 624 1197 624 1197 624 1166.5 c 128,-1,51
 624 1136 624 1136 633.5 1106.5 c 128,-1,52
 643 1077 643 1077 668.5 1041 c 0,53,54
 719.781 968.603 719.781 968.603 856 865 c 2,55,-1
 929 810 l 1,41,42
562 728 m 1,56,57
 478 623 478 623 478 520 c 0,58,59
 478 399.794 478 399.794 573.5 323 c 0,60,61
 679.205 238 679.205 238 869 238 c 0,62,63
 1012.6 238 1012.6 238 1135 289 c 1,64,65
 614.145 684.978 614.145 684.978 598.072 697.989 c 2,66,-1
 562 728 l 1,56,57
EndSplineSet
EndChar

StartChar: guilsinglleft
Encoding: 8249 8249 78
Width: 1195
Flags: HW
LayerCount: 2
Fore
SplineSet
240 394 m 1,0,-1
 649 708 l 1,1,-1
 240 1022 l 1,2,-1
 380 1205 l 1,3,-1
 1025 708 l 1,4,-1
 380 211 l 1,5,-1
 240 394 l 1,0,-1
EndSplineSet
EndChar

StartChar: slash
Encoding: 47 47 82
Width: 1533
Flags: HW
LayerCount: 2
Fore
SplineSet
1087 1770 m 1,0,-1
 1374 1770 l 1,1,-1
 445 -354 l 1,2,-1
 158 -354 l 1,3,-1
 1087 1770 l 1,0,-1
EndSplineSet
EndChar

StartChar: bar
Encoding: 124 124 84
Width: 680
Flags: HW
LayerCount: 2
Fore
SplineSet
211 1770 m 1,0,-1
 468 1770 l 1,1,-1
 468 -482 l 1,2,-1
 211 -482 l 1,3,-1
 211 1770 l 1,0,-1
EndSplineSet
EndChar

StartChar: brokenbar
Encoding: 166 166 85
Width: 682
Flags: HW
LayerCount: 2
Fore
SplineSet
212 1770 m 1,0,-1
 469 1770 l 1,1,-1
 469 836 l 1,2,-1
 212 836 l 1,3,-1
 212 1770 l 1,0,-1
469 454 m 1,4,-1
 469 -480 l 1,5,-1
 212 -480 l 1,6,-1
 212 454 l 1,7,-1
 469 454 l 1,4,-1
EndSplineSet
EndChar

StartChar: parenleft
Encoding: 40 40 86
Width: 1190
Flags: HW
LayerCount: 2
Fore
SplineSet
255 786 m 256,0,1
 255 1119.2 255 1119.2 444 1425 c 0,2,3
 616.144 1703.53 616.144 1703.53 926 1920 c 1,4,-1
 1063 1709 l 1,5,6
 522 1282.36 522 1282.36 522 786 c 256,7,8
 522 380.621 522 380.621 792 76.5 c 0,9,10
 883 -26 883 -26 1006 -123 c 1,11,-1
 869 -334 l 1,12,13
 418.563 -19.3113 418.563 -19.3113 296 454.5 c 0,14,15
 255 613 255 613 255 786 c 256,0,1
EndSplineSet
EndChar

StartChar: bracketleft
Encoding: 91 91 88
Width: 849
Flags: HW
LayerCount: 2
Fore
SplineSet
250 1918 m 1,0,-1
 783 1918 l 1,1,-1
 783 1705 l 1,2,-1
 507 1705 l 1,3,-1
 507 -133 l 1,4,-1
 783 -133 l 1,5,-1
 783 -346 l 1,6,-1
 250 -346 l 1,7,-1
 250 1918 l 1,0,-1
EndSplineSet
EndChar

StartChar: paragraph
Encoding: 182 182 90
Width: 2046
Flags: HW
LayerCount: 2
Fore
SplineSet
878 460 m 1,0,1
 511.808 470.005 511.808 470.005 313 614.5 c 0,2,3
 115 758.407 115 758.407 115 1011 c 0,4,5
 115 1260.69 115 1260.69 306 1407.5 c 0,6,7
 521.311 1573 521.311 1573 959 1573 c 2,8,-1
 1884 1573 l 1,9,-1
 1884 1360 l 1,10,-1
 1625 1360 l 1,11,-1
 1625 -482 l 1,12,-1
 1368 -482 l 1,13,-1
 1368 1360 l 1,14,-1
 1135 1360 l 1,15,-1
 1135 -482 l 1,16,-1
 878 -482 l 1,17,-1
 878 460 l 1,0,1
EndSplineSet
EndChar

StartChar: endash
Encoding: 8211 8211 91
Width: 1364
Flags: HW
LayerCount: 2
Fore
SplineSet
152 886 m 1,0,-1
 1212 886 l 1,1,-1
 1212 664 l 1,2,-1
 152 664 l 1,3,-1
 152 886 l 1,0,-1
EndSplineSet
EndChar

StartChar: emdash
Encoding: 8212 8212 92
Width: 2737
Flags: HW
LayerCount: 2
Fore
SplineSet
152 886 m 1,0,-1
 2585 886 l 1,1,-1
 2585 664 l 1,2,-1
 152 664 l 1,3,-1
 152 886 l 1,0,-1
EndSplineSet
EndChar

StartChar: quoteleft
Encoding: 8216 8216 93
Width: 858
Flags: HW
LayerCount: 2
Fore
SplineSet
431 947 m 0,0,1
 380 947 380 947 335.5 964 c 128,-1,2
 291 981 291 981 259 1013.5 c 0,3,4
 191 1082.56 191 1082.56 191 1204.78 c 128,-1,5
 191 1327 191 1327 280.5 1446.5 c 128,-1,6
 370 1566 370 1566 541 1659 c 1,7,-1
 651 1502 l 1,8,9
 521.501 1432.93 521.501 1432.93 467.5 1358.5 c 0,10,11
 449 1333 449 1333 434 1304 c 1,12,13
 529.429 1304 529.429 1304 590.5 1251.5 c 0,14,15
 650 1200.35 650 1200.35 650 1125 c 256,16,17
 650 1049.11 650 1049.11 590.5 999 c 0,18,19
 528.75 947 528.75 947 431 947 c 0,0,1
EndSplineSet
EndChar

StartChar: quotesingle
Encoding: 39 39 97
Width: 858
Flags: HW
LayerCount: 2
Fore
SplineSet
300 1659 m 1,0,-1
 557 1659 l 1,1,-1
 557 957 l 1,2,-1
 300 957 l 1,3,-1
 300 1659 l 1,0,-1
EndSplineSet
EndChar

StartChar: braceleft
Encoding: 123 123 100
Width: 1368
Flags: HW
LayerCount: 2
Fore
SplineSet
557 786 m 1,0,1
 847 646.07 847 646.07 847 209 c 2,2,-1
 847 150 l 2,3,4
 847 -64.6893 847 -64.6893 1008.5 -118 c 0,5,6
 1060 -135 1060 -135 1124 -135 c 2,7,-1
 1257 -135 l 1,8,-1
 1257 -348 l 1,9,-1
 1124 -348 l 2,10,11
 713.312 -348 713.312 -348 620.5 -65 c 0,12,13
 590 28 590 28 590 150 c 2,14,-1
 590 213 l 2,15,16
 590 527.404 590 527.404 346 693.5 c 0,17,18
 263 750 263 750 150 786 c 1,19,20
 480.515 891.297 480.515 891.297 563.5 1170 c 0,21,22
 590 1259 590 1259 590 1359 c 2,23,-1
 590 1422 l 2,24,25
 590 1795.49 590 1795.49 882 1888 c 0,26,27
 983 1920 983 1920 1124 1920 c 2,28,-1
 1257 1920 l 1,29,-1
 1257 1707 l 1,30,-1
 1124 1707 l 2,31,32
 922.29 1707 922.29 1707 866 1548.5 c 0,33,34
 847 1495 847 1495 847 1422 c 2,35,-1
 847 1363 l 2,36,37
 847 925.93 847 925.93 557 786 c 1,0,1
EndSplineSet
EndChar

StartChar: at
Encoding: 64 64 103
Width: 3058
Flags: HW
LayerCount: 2
Fore
SplineSet
2078 -335 m 1,0,1
 1761.67 -481 1761.67 -481 1380 -481 c 0,2,3
 1028.53 -481 1028.53 -481 755 -350.5 c 0,4,5
 493.109 -225.552 493.109 -225.552 346.5 0 c 128,-1,6
 200.009 225.371 200.009 225.371 196 508 c 0,7,8
 191.919 812.044 191.919 812.044 352.5 1061.5 c 0,9,10
 608.13 1458.61 608.13 1458.61 1167.5 1579 c 0,11,12
 1358 1620 1358 1620 1576 1620 c 128,-1,13
 1794 1620 1794 1620 1972 1583.5 c 128,-1,14
 2150 1547 2150 1547 2292 1481.5 c 128,-1,15
 2434 1416 2434 1416 2541 1325.5 c 128,-1,16
 2648 1235 2648 1235 2719.5 1127.5 c 0,17,18
 2863 911.748 2863 911.748 2863 652 c 0,19,20
 2863 356.245 2863 356.245 2685.5 163.5 c 0,21,22
 2514.67 -22 2514.67 -22 2268 -22 c 0,23,24
 2149 -22 2149 -22 2051.5 27.5 c 128,-1,25
 1954 77 1954 77 1894 177 c 1,26,27
 1777.66 103.951 1777.66 103.951 1699.33 75.9755 c 0,28,29
 1539.8 19 1539.8 19 1390.9 19 c 128,-1,30
 1242 19 1242 19 1128 59.5 c 128,-1,31
 1014 100 1014 100 934.5 170.5 c 0,32,33
 771 315.491 771 315.491 771 541 c 0,34,35
 771 796.388 771 796.388 978.5 968.5 c 0,36,37
 1182.85 1138 1182.85 1138 1462 1138 c 0,38,39
 1662.31 1138 1662.31 1138 1843 1051.5 c 0,40,41
 1890 1029 1890 1029 1920 1009 c 1,42,-1
 1948 1117 l 1,43,-1
 2244 1117 l 1,44,-1
 2140 569 l 2,45,46
 2091.41 317.472 2091.41 317.472 2209.5 256 c 0,47,48
 2246 237 2246 237 2303.5 237 c 128,-1,49
 2361 237 2361 237 2416.5 270 c 128,-1,50
 2472 303 2472 303 2512 360.5 c 0,51,52
 2597 482.688 2597 482.688 2597 661 c 0,53,54
 2597 958.213 2597 958.213 2364 1165 c 0,55,56
 2197.77 1312.53 2197.77 1312.53 1921 1371 c 0,57,58
 1779 1401 1779 1401 1602 1401 c 128,-1,59
 1425 1401 1425 1401 1271.5 1370 c 128,-1,60
 1118 1339 1118 1339 991 1282 c 128,-1,61
 864 1225 864 1225 765.5 1145 c 128,-1,62
 667 1065 667 1065 599.5 967 c 0,63,64
 462 767.37 462 767.37 462 521 c 0,65,66
 462 352 462 352 528 208.5 c 128,-1,67
 594 65 594 65 717 -39.5 c 0,68,69
 978.89 -262 978.89 -262 1412 -262 c 0,70,71
 1711.92 -262 1711.92 -262 1956 -147 c 1,72,-1
 2078 -335 l 1,0,1
1115 690.5 m 128,-1,74
 1087 633 1087 633 1087 569 c 128,-1,75
 1087 505 1087 505 1111 452.5 c 128,-1,76
 1135 400 1135 400 1180.5 361 c 0,77,78
 1277.33 278 1277.33 278 1447 278 c 0,79,80
 1684.45 278 1684.45 278 1823 440 c 1,81,-1
 1883 746 l 1,82,83
 1762.84 839.782 1762.84 839.782 1576.5 870 c 0,84,85
 1521 879 1521 879 1453.5 879 c 128,-1,86
 1386 879 1386 879 1315.5 855.5 c 128,-1,87
 1245 832 1245 832 1194 790 c 128,-1,73
 1143 748 1143 748 1115 690.5 c 128,-1,74
EndSplineSet
EndChar

StartChar: copyright
Encoding: 169 169 104
Width: 2228
Flags: HW
LayerCount: 2
Fore
SplineSet
212 869 m 256,0,1
 212 1244.93 212 1244.93 465.5 1500 c 0,2,3
 723.895 1760 723.895 1760 1114 1760 c 0,4,5
 1371.84 1760 1371.84 1760 1581.5 1639 c 0,6,7
 1891.28 1460.22 1891.28 1460.22 1985.5 1106.5 c 0,8,9
 2016 992 2016 992 2016 869 c 256,10,11
 2016 495.149 2016 495.149 1762.5 238.5 c 0,12,13
 1598.68 72.6409 1598.68 72.6409 1364 9 c 0,14,15
 1246 -23 1246 -23 1114 -23 c 256,16,17
 856.897 -23 856.897 -23 645.5 99 c 0,18,19
 445.133 214.635 445.133 214.635 328.5 419 c 0,20,21
 212 623.133 212 623.133 212 869 c 256,0,1
472 1141 m 128,-1,23
 421 1016 421 1016 421 893 c 128,-1,24
 421 770 421 770 444 681.5 c 128,-1,25
 467 593 467 593 510.5 517.5 c 128,-1,26
 554 442 554 442 615.5 381 c 128,-1,27
 677 320 677 320 754 277 c 0,28,29
 913.372 188 913.372 188 1089.19 188 c 128,-1,30
 1265 188 1265 188 1392.5 239 c 128,-1,31
 1520 290 1520 290 1612 380.5 c 0,32,33
 1807 572.321 1807 572.321 1807 869 c 0,34,35
 1807 1164.12 1807 1164.12 1612 1357 c 128,-1,36
 1416.88 1550 1416.88 1550 1114 1550 c 256,37,38
 810.121 1550 810.121 1550 615 1357 c 0,39,22
 523 1266 523 1266 472 1141 c 128,-1,23
1507 535 m 1,40,41
 1346.53 435 1346.53 435 1150 435 c 0,42,43
 928.246 435 928.246 435 790.5 561 c 0,44,45
 656 684.031 656 684.031 656 873 c 0,46,47
 656 1057.15 656 1057.15 783 1178 c 0,48,49
 917.508 1306 917.508 1306 1141 1306 c 0,50,51
 1340.67 1306 1340.67 1306 1480 1230 c 1,52,-1
 1406 1066 l 1,53,54
 1288.69 1120 1288.69 1120 1192.84 1120 c 128,-1,55
 1097 1120 1097 1120 1042.5 1100.5 c 128,-1,56
 988 1081 988 1081 951.5 1047 c 0,57,58
 877 977.603 877 977.603 877 872 c 0,59,60
 877 763.36 877 763.36 953.5 694 c 0,61,62
 1034.01 621 1034.01 621 1176.58 621 c 128,-1,63
 1319.14 621 1319.14 621 1432 700 c 1,64,-1
 1507 535 l 1,40,41
EndSplineSet
EndChar

StartChar: registered
Encoding: 174 174 105
Width: 2228
Flags: HW
LayerCount: 2
Fore
SplineSet
212 869 m 256,0,1
 212 1244.93 212 1244.93 465.5 1500 c 0,2,3
 723.895 1760 723.895 1760 1114 1760 c 0,4,5
 1371.84 1760 1371.84 1760 1581.5 1639 c 0,6,7
 1891.28 1460.22 1891.28 1460.22 1985.5 1106.5 c 0,8,9
 2016 992 2016 992 2016 869 c 256,10,11
 2016 495.149 2016 495.149 1762.5 238.5 c 0,12,13
 1598.68 72.6409 1598.68 72.6409 1364 9 c 0,14,15
 1246 -23 1246 -23 1114 -23 c 256,16,17
 856.897 -23 856.897 -23 645.5 99 c 0,18,19
 445.133 214.635 445.133 214.635 328.5 419 c 0,20,21
 212 623.133 212 623.133 212 869 c 256,0,1
472 1141 m 128,-1,23
 421 1016 421 1016 421 893 c 128,-1,24
 421 770 421 770 444 681.5 c 128,-1,25
 467 593 467 593 510.5 517.5 c 128,-1,26
 554 442 554 442 615.5 381 c 128,-1,27
 677 320 677 320 754 277 c 0,28,29
 913.372 188 913.372 188 1089.19 188 c 128,-1,30
 1265 188 1265 188 1392.5 239 c 128,-1,31
 1520 290 1520 290 1612 380.5 c 0,32,33
 1807 572.321 1807 572.321 1807 869 c 0,34,35
 1807 1164.12 1807 1164.12 1612 1357 c 128,-1,36
 1416.88 1550 1416.88 1550 1114 1550 c 256,37,38
 810.121 1550 810.121 1550 615 1357 c 0,39,22
 523 1266 523 1266 472 1141 c 128,-1,23
1536 1003 m 0,40,41
 1536 803.448 1536 803.448 1324 734 c 1,42,-1
 1552 460 l 1,43,-1
 1305 460 l 1,44,-1
 1105 700 l 1,45,-1
 1049 700 l 1,46,-1
 938 701 l 1,47,-1
 938 460 l 1,48,-1
 734 460 l 1,49,-1
 734 1297 l 1,50,-1
 1044 1297 l 2,51,52
 1437.59 1297 1437.59 1297 1513.5 1116.5 c 0,53,54
 1536 1063 1536 1063 1536 1003 c 0,40,41
1047 868 m 2,55,56
 1266.21 868 1266.21 868 1310 941.5 c 0,57,58
 1324 965 1324 965 1324 994.5 c 128,-1,59
 1324 1024 1324 1024 1310.5 1048 c 128,-1,60
 1297 1072 1297 1072 1264.5 1089 c 0,61,62
 1195.68 1125 1195.68 1125 1044 1125 c 2,63,-1
 938 1125 l 1,64,-1
 938 868 l 1,65,-1
 1047 868 l 2,55,56
EndSplineSet
EndChar

StartChar: mu
Encoding: 181 181 106
Width: 1710
Flags: HW
LayerCount: 2
Fore
SplineSet
1223 101 m 1,0,1
 1020.09 -20 1020.09 -20 812.523 -20 c 128,-1,2
 604.953 -20 604.953 -20 481 62 c 1,3,-1
 481 -481 l 1,4,-1
 185 -481 l 1,5,-1
 186 1180 l 1,6,-1
 186 1181 l 1,7,-1
 482 1181 l 1,8,-1
 482 605 l 2,9,10
 482 427.724 482 427.724 561.5 340 c 0,11,12
 653.031 239 653.031 239 858 239 c 0,13,14
 1016.24 239 1016.24 239 1151.5 327 c 0,15,16
 1193 354 1193 354 1223 386 c 1,17,-1
 1223 1181 l 1,18,-1
 1519 1181 l 1,19,-1
 1519 1 l 1,20,-1
 1223 1 l 1,21,-1
 1223 101 l 1,0,1
EndSplineSet
EndChar

StartChar: ordfeminine
Encoding: 170 170 107
Width: 1368
Flags: HW
LayerCount: 2
Fore
SplineSet
952 791 m 1,0,1
 792.105 693 792.105 693 583 693 c 0,2,3
 387.718 693 387.718 693 284.5 776 c 0,4,5
 188 853.598 188 853.598 188 983 c 0,6,7
 188 1183.3 188 1183.3 420 1243.5 c 0,8,9
 499 1264 499 1264 633 1264 c 128,-1,10
 767 1264 767 1264 950 1216 c 1,11,12
 903.043 1396 903.043 1396 652 1396 c 0,13,14
 486.778 1396 486.778 1396 329 1325 c 1,15,-1
 260 1514 l 1,16,17
 486.667 1594 486.667 1594 691 1594 c 0,18,19
 1180 1594 1180 1594 1180 1088 c 2,20,-1
 1180 709 l 1,21,-1
 952 709 l 1,22,-1
 952 791 l 1,0,1
428 991 m 0,23,24
 428 891 428 891 609 891 c 0,25,26
 823.875 891 823.875 891 952 1014 c 1,27,-1
 952 1032 l 1,28,29
 787.5 1081 787.5 1081 607.75 1081 c 128,-1,30
 428 1081 428 1081 428 991 c 0,23,24
EndSplineSet
EndChar

StartChar: ordmasculine
Encoding: 186 186 108
Width: 1368
Flags: HW
LayerCount: 2
Fore
SplineSet
684 689 m 256,0,1
 438.967 689 438.967 689 286 821.5 c 0,2,3
 139 948.831 139 948.831 139 1143 c 256,4,5
 139 1336.17 139 1336.17 286 1463.5 c 0,6,7
 438.967 1596 438.967 1596 684 1596 c 256,8,9
 929.033 1596 929.033 1596 1082 1463.5 c 0,10,11
 1229 1336.17 1229 1336.17 1229 1143 c 256,12,13
 1229 948.831 1229 948.831 1082 821.5 c 0,14,15
 929.033 689 929.033 689 684 689 c 256,0,1
684 892 m 256,16,17
 823.783 892 823.783 892 908 966.5 c 0,18,19
 988 1037.27 988 1037.27 988 1143 c 256,20,21
 988 1248.73 988 1248.73 908 1319.5 c 0,22,23
 822.652 1395 822.652 1395 684 1395 c 256,24,25
 545.348 1395 545.348 1395 460 1319.5 c 0,26,27
 380 1248.73 380 1248.73 380 1143 c 256,28,29
 380 1037.27 380 1037.27 460 966.5 c 0,30,31
 544.217 892 544.217 892 684 892 c 256,16,17
EndSplineSet
EndChar

StartChar: degree
Encoding: 176 176 109
Width: 858
Flags: HW
LayerCount: 2
Fore
SplineSet
429 943 m 256,0,1
 285.535 943 285.535 943 195.5 1032 c 0,2,3
 103 1123.44 103 1123.44 103 1268 c 128,-1,4
 103 1412.56 103 1412.56 195.5 1504 c 0,5,6
 285.535 1593 285.535 1593 429 1593 c 256,7,8
 572.465 1593 572.465 1593 662.5 1504 c 0,9,10
 755 1412.56 755 1412.56 755 1268 c 128,-1,11
 755 1123.44 755 1123.44 662.5 1032 c 0,12,13
 572.465 943 572.465 943 429 943 c 256,0,1
429 1107 m 256,14,15
 491.143 1107 491.143 1107 534 1152 c 128,-1,16
 577 1197.15 577 1197.15 577 1268 c 256,17,18
 577 1377 577 1377 487 1417 c 0,19,20
 460 1429 460 1429 429 1429 c 256,21,22
 366.857 1429 366.857 1429 324 1384 c 128,-1,23
 281 1338.85 281 1338.85 281 1268 c 256,24,25
 281 1159 281 1159 371 1119 c 0,26,27
 398 1107 398 1107 429 1107 c 256,14,15
EndSplineSet
EndChar

StartChar: greater
Encoding: 62 62 111
Width: 1529
Flags: HW
LayerCount: 2
Fore
SplineSet
276 369 m 1,0,-1
 904 784 l 1,1,-1
 276 1201 l 1,2,-1
 413 1416 l 1,3,-1
 1342 785 l 1,4,-1
 413 154 l 1,5,-1
 276 369 l 1,0,-1
EndSplineSet
EndChar

StartChar: plus
Encoding: 43 43 112
Width: 1191
Flags: HW
LayerCount: 2
Fore
SplineSet
479 684 m 1,0,-1
 137 684 l 1,1,-1
 137 906 l 1,2,-1
 479 906 l 1,3,-1
 479 1245 l 1,4,-1
 711 1245 l 1,5,-1
 711 906 l 1,6,-1
 1054 906 l 1,7,-1
 1054 684 l 1,8,-1
 711 684 l 1,9,-1
 711 327 l 1,10,-1
 479 327 l 1,11,-1
 479 684 l 1,0,-1
EndSplineSet
EndChar

StartChar: plusminus
Encoding: 177 177 113
Width: 1191
Flags: HW
LayerCount: 2
Fore
SplineSet
137 221 m 1,0,-1
 1054 221 l 1,1,-1
 1054 -1 l 1,2,-1
 137 -1 l 1,3,-1
 137 221 l 1,0,-1
479 684 m 1,4,-1
 137 684 l 1,5,-1
 137 906 l 1,6,-1
 479 906 l 1,7,-1
 479 1245 l 1,8,-1
 711 1245 l 1,9,-1
 711 906 l 1,10,-1
 1054 906 l 1,11,-1
 1054 684 l 1,12,-1
 711 684 l 1,13,-1
 711 327 l 1,14,-1
 479 327 l 1,15,-1
 479 684 l 1,4,-1
EndSplineSet
EndChar

StartChar: multiply
Encoding: 215 215 115
Width: 1360
Flags: HW
LayerCount: 2
Fore
SplineSet
207 470 m 1,0,-1
 519 782 l 1,1,-1
 207 1095 l 1,2,-1
 371 1259 l 1,3,-1
 683 946 l 1,4,-1
 996 1259 l 1,5,-1
 1153 1102 l 1,6,-1
 840 789 l 1,7,-1
 1153 477 l 1,8,-1
 989 313 l 1,9,-1
 676 625 l 1,10,-1
 364 313 l 1,11,-1
 207 470 l 1,0,-1
EndSplineSet
EndChar

StartChar: percent
Encoding: 37 37 117
Width: 2044
Flags: HW
LayerCount: 2
Fore
SplineSet
469 785 m 256,0,1
 291.657 785 291.657 785 178 895.5 c 0,2,3
 64 1006.33 64 1006.33 64 1189 c 128,-1,4
 64 1371.67 64 1371.67 178 1482.5 c 0,5,6
 291.657 1593 291.657 1593 469 1593 c 256,7,8
 646.343 1593 646.343 1593 760 1482.5 c 0,9,10
 874 1371.67 874 1371.67 874 1189 c 128,-1,11
 874 1006.33 874 1006.33 760 895.5 c 0,12,13
 646.343 785 646.343 785 469 785 c 256,0,1
1501 1574 m 1,14,-1
 1808 1574 l 1,15,-1
 553 0 l 1,16,-1
 246 0 l 1,17,-1
 1501 1574 l 1,14,-1
469 989 m 256,18,19
 546.641 989 546.641 989 599 1044.5 c 0,20,21
 653 1101.74 653 1101.74 653 1189 c 256,22,23
 653 1276.26 653 1276.26 599 1333.5 c 0,24,25
 546.641 1389 546.641 1389 469 1389 c 256,26,27
 391.358 1389 391.358 1389 339 1333.5 c 0,28,29
 285 1276.26 285 1276.26 285 1189 c 256,30,31
 285 1101.74 285 1101.74 339 1044.5 c 0,32,33
 391.358 989 391.358 989 469 989 c 256,18,19
1170 382.5 m 0,34,35
 1170 474 1170 474 1200 549 c 128,-1,36
 1230 624 1230 624 1284 676.5 c 0,37,38
 1397.66 787 1397.66 787 1575 787 c 256,39,40
 1752.34 787 1752.34 787 1866 676.5 c 0,41,42
 1980 565.667 1980 565.667 1980 383 c 128,-1,43
 1980 200.333 1980 200.333 1866 89.5 c 0,44,45
 1752.34 -21 1752.34 -21 1575 -21 c 256,46,47
 1397.66 -21 1397.66 -21 1284 89.5 c 0,48,49
 1170 200.333 1170 200.333 1170 382.5 c 0,34,35
1391 383 m 256,50,51
 1391 295.74 1391 295.74 1445 238.5 c 0,52,53
 1497.36 183 1497.36 183 1575 183 c 256,54,55
 1652.64 183 1652.64 183 1705 238.5 c 0,56,57
 1759 295.74 1759 295.74 1759 383 c 256,58,59
 1759 470.26 1759 470.26 1705 527.5 c 0,60,61
 1652.64 583 1652.64 583 1575 583 c 256,62,63
 1497.36 583 1497.36 583 1445 527.5 c 0,64,65
 1391 470.26 1391 470.26 1391 383 c 256,50,51
EndSplineSet
EndChar

StartChar: acute
Encoding: 180 180 118
Width: 1038
Flags: HW
LayerCount: 2
Fore
SplineSet
98 1528 m 1,0,-1
 784 1849 l 1,1,-1
 895 1620 l 1,2,-1
 197 1321 l 1,3,-1
 98 1528 l 1,0,-1
EndSplineSet
EndChar

StartChar: grave
Encoding: 96 96 119
Width: 1038
Flags: HW
LayerCount: 2
Fore
SplineSet
126 1620 m 1,0,-1
 237 1849 l 1,1,-1
 923 1528 l 1,2,-1
 824 1321 l 1,3,-1
 126 1620 l 1,0,-1
EndSplineSet
EndChar

StartChar: section
Encoding: 167 167 120
Width: 2048
Flags: HW
LayerCount: 2
Fore
SplineSet
1795 495 m 1,0,1
 1919 385.467 1919 385.467 1919 219 c 0,2,3
 1919 14.7344 1919 14.7344 1737 -117.5 c 0,4,5
 1527.11 -270 1527.11 -270 1101 -270 c 0,6,7
 837.66 -270 837.66 -270 565.5 -214 c 0,8,9
 314.474 -162.349 314.474 -162.349 197 -94 c 1,10,-1
 351 148 l 1,11,12
 691 -8 691 -8 1113 -8 c 0,13,14
 1369.79 -8 1369.79 -8 1492 56.5 c 0,15,16
 1588 107.167 1588 107.167 1588 192 c 0,17,18
 1588 256 1588 256 1526.5 297.5 c 128,-1,19
 1465 339 1465 339 1337 339 c 0,20,21
 1268.88 339 1268.88 339 1133.94 323.5 c 0,22,23
 877.118 294 877.118 294 750.059 294 c 128,-1,24
 623 294 623 294 516 325.5 c 128,-1,25
 409 357 409 357 339.5 409.5 c 0,26,27
 203 512.612 203 512.612 203 679.806 c 128,-1,28
 203 847 203 847 345 979 c 1,29,30
 203 1088.73 203 1088.73 203 1275 c 0,31,32
 203 1485.11 203 1485.11 376 1625.5 c 0,33,34
 577.485 1789 577.485 1789 985 1789 c 0,35,36
 1294.09 1789 1294.09 1789 1590 1701.5 c 0,37,38
 1683 1674 1683 1674 1763 1640 c 1,39,-1
 1623 1402 l 1,40,41
 1310.5 1527 1310.5 1527 978 1527 c 0,42,43
 736.636 1527 736.636 1527 623 1452 c 0,44,45
 534 1393.26 534 1393.26 534 1311.63 c 0,46,47
 534 1147 534 1147 785 1147 c 0,48,49
 840 1147 840 1147 907.5 1154 c 2,50,-1
 1049.5 1169.5 l 2,51,52
 1246.71 1192 1246.71 1192 1367.85 1192 c 128,-1,53
 1489 1192 1489 1192 1595 1163 c 128,-1,54
 1701 1134 1701 1134 1773 1080.5 c 0,55,56
 1919 972.014 1919 972.014 1919 782 c 0,57,58
 1919 622.543 1919 622.543 1795 495 c 1,0,1
1522 612 m 1,59,60
 1586 663.2 1586 663.2 1586 742.6 c 128,-1,61
 1586 822 1586 822 1516 868.5 c 128,-1,62
 1446 915 1446 915 1298 915 c 0,63,64
 1212.79 915 1212.79 915 1077.39 897.5 c 0,65,66
 818.211 864 818.211 864 749.605 864 c 128,-1,67
 681 864 681 864 630 870 c 1,68,69
 586 847 586 847 561 808.5 c 128,-1,70
 536 770 536 770 536 733 c 128,-1,71
 536 696 536 696 550 668.5 c 128,-1,72
 564 641 564 641 597 619.5 c 0,73,74
 668.372 573 668.372 573 822 573 c 0,75,76
 917.737 573 917.737 573 1048.37 590 c 0,77,78
 1294.26 622 1294.26 622 1376.13 622 c 128,-1,79
 1458 622 1458 622 1522 612 c 1,59,60
EndSplineSet
EndChar

StartChar: tilde
Encoding: 732 732 121
Width: 1236
Flags: HW
LayerCount: 2
Fore
SplineSet
1066 1521 m 1,0,1
 955.158 1404 955.158 1404 806 1404 c 0,2,3
 743 1404 743 1404 695 1423.5 c 128,-1,4
 647 1443 647 1443 604 1466.5 c 128,-1,5
 561 1490 561 1490 520 1509.5 c 128,-1,6
 479 1529 479 1529 439.5 1529 c 128,-1,7
 400 1529 400 1529 364.5 1520.5 c 128,-1,8
 329 1512 329 1512 294 1497 c 0,9,10
 218.75 1464.75 218.75 1464.75 170 1416 c 1,11,-1
 170 1666 l 1,12,13
 280.842 1783 280.842 1783 430 1783 c 0,14,15
 493 1783 493 1783 541 1763.5 c 128,-1,16
 589 1744 589 1744 632 1720.5 c 128,-1,17
 675 1697 675 1697 716 1677.5 c 128,-1,18
 757 1658 757 1658 796.5 1658 c 128,-1,19
 836 1658 836 1658 871.5 1666.5 c 128,-1,20
 907 1675 907 1675 942 1690 c 0,21,22
 1017.25 1722.25 1017.25 1722.25 1066 1771 c 1,23,-1
 1066 1521 l 1,0,1
EndSplineSet
EndChar

StartChar: macron
Encoding: 175 175 122
Width: 1193
Flags: HW
LayerCount: 2
Fore
SplineSet
100 1690 m 1,0,-1
 1093 1690 l 1,1,-1
 1093 1447 l 1,2,-1
 100 1447 l 1,3,-1
 100 1690 l 1,0,-1
EndSplineSet
EndChar

StartChar: cedilla
Encoding: 184 184 123
Width: 837
Flags: HW
LayerCount: 2
Fore
SplineSet
561 -297 m 0,0,1
 561 -229 561 -229 288 -229 c 1,2,-1
 288 30 l 1,3,-1
 473 30 l 1,4,-1
 473 -73 l 1,5,6
 794 -110.765 794 -110.765 794 -310 c 0,7,8
 794 -415.158 794 -415.158 691.5 -474.5 c 0,9,10
 595.636 -530 595.636 -530 440 -530 c 0,11,12
 267.69 -530 267.69 -530 127 -470 c 1,13,-1
 194 -309 l 1,14,15
 311.652 -350 311.652 -350 436.326 -350 c 128,-1,16
 561 -350 561 -350 561 -297 c 0,0,1
EndSplineSet
EndChar

StartChar: dieresis
Encoding: 168 168 124
Width: 1223
Flags: HW
LayerCount: 2
Fore
SplineSet
910 1402 m 256,0,1
 815.353 1402 815.353 1402 755.5 1457.5 c 0,2,3
 699 1509.89 699 1509.89 699 1585 c 256,4,5
 699 1660.16 699 1660.16 755.5 1710.5 c 0,6,7
 814.429 1763 814.429 1763 910 1763 c 256,8,9
 1006.57 1763 1006.57 1763 1065.5 1710.5 c 0,10,11
 1122 1660.16 1122 1660.16 1122 1585 c 256,12,13
 1122 1509.89 1122 1509.89 1065.5 1457.5 c 0,14,15
 1005.65 1402 1005.65 1402 910 1402 c 256,0,1
311 1402 m 256,16,17
 216.353 1402 216.353 1402 156.5 1457.5 c 0,18,19
 100 1509.89 100 1509.89 100 1585 c 256,20,21
 100 1660.16 100 1660.16 156.5 1710.5 c 0,22,23
 215.429 1763 215.429 1763 311 1763 c 256,24,25
 407.571 1763 407.571 1763 466.5 1710.5 c 0,26,27
 523 1660.16 523 1660.16 523 1585 c 256,28,29
 523 1509.89 523 1509.89 466.5 1457.5 c 0,30,31
 406.647 1402 406.647 1402 311 1402 c 256,16,17
EndSplineSet
EndChar

StartChar: yen
Encoding: 165 165 125
Width: 1710
Flags: HW
LayerCount: 2
Fore
SplineSet
186 494 m 1,0,-1
 673 494 l 1,1,-1
 579 648 l 1,2,-1
 186 648 l 1,3,-1
 186 870 l 1,4,-1
 443 870 l 1,5,-1
 18 1563 l 1,6,-1
 364 1563 l 1,7,-1
 855 720 l 1,8,-1
 1346 1563 l 1,9,-1
 1692 1563 l 1,10,-1
 1267 870 l 1,11,-1
 1523 870 l 1,12,-1
 1523 648 l 1,13,-1
 1131 648 l 1,14,-1
 1036 494 l 1,15,-1
 1523 494 l 1,16,-1
 1523 272 l 1,17,-1
 1014 272 l 1,18,-1
 1014 0 l 1,19,-1
 697 0 l 1,20,-1
 697 272 l 1,21,-1
 186 272 l 1,22,-1
 186 494 l 1,0,-1
EndSplineSet
EndChar

StartChar: sterling
Encoding: 163 163 126
Width: 1541
Flags: HW
LayerCount: 2
Fore
SplineSet
1466 530 m 1,0,1
 1473 488 1473 488 1473 413.5 c 128,-1,2
 1473 339 1473 339 1443.5 258.5 c 128,-1,3
 1414 178 1414 178 1354.5 120.5 c 0,4,5
 1229.81 1.93596e-05 1229.81 1.93596e-05 996 0 c 2,6,-1
 119 0 l 1,7,-1
 274 655 l 1,8,-1
 60 655 l 1,9,-1
 60 877 l 1,10,-1
 326 877 l 1,11,-1
 375 1081 l 1,12,13
 458.405 1440.28 458.405 1440.28 730.5 1546.5 c 0,14,15
 824 1583 824 1583 922.5 1583 c 0,16,17
 1113.86 1583 1113.86 1583 1238 1523 c 1,18,-1
 1133 1274 l 1,19,20
 1067.86 1312 1067.86 1312 993.429 1312 c 128,-1,21
 919 1312 919 1312 871 1295 c 128,-1,22
 823 1278 823 1278 784 1246.5 c 0,23,24
 702.698 1180.83 702.698 1180.83 673 1066 c 2,25,-1
 623 877 l 1,26,-1
 977 877 l 1,27,-1
 977 655 l 1,28,-1
 564 655 l 1,29,-1
 460 258 l 1,30,-1
 946 258 l 2,31,32
 1150.9 258 1150.9 258 1180.5 392 c 0,33,34
 1190 435 1190 435 1190 467.5 c 2,35,-1
 1190 509.5 l 2,36,37
 1190 519 1190 519 1189 530 c 1,38,-1
 1466 530 l 1,0,1
EndSplineSet
EndChar

StartChar: dollar
Encoding: 36 36 127
Width: 2048
Flags: HW
LayerCount: 2
Fore
SplineSet
1162 983 m 1,0,1
 1277.2 995 1277.2 995 1383.6 995 c 128,-1,2
 1490 995 1490 995 1596.5 964 c 128,-1,3
 1703 933 1703 933 1775 875.5 c 0,4,5
 1921 758.903 1921 758.903 1921 554 c 0,6,7
 1921 307.299 1921 307.299 1715.5 155 c 0,8,9
 1514.91 6.33851 1514.91 6.33851 1162 -18 c 1,10,-1
 1162 -322 l 1,11,-1
 925 -322 l 1,12,-1
 925 -19 l 1,13,14
 473.387 8.25251 473.387 8.25251 126 208 c 1,15,-1
 295 465 l 1,16,17
 605.252 288.329 605.252 288.329 925 264 c 1,18,-1
 925 658 l 1,19,20
 806 644 806 644 718.5 644 c 128,-1,21
 631 644 631 644 534.5 671 c 128,-1,22
 438 698 438 698 363.5 752 c 0,23,24
 201 869.785 201 869.785 201 1076 c 0,25,26
 201 1283.35 201 1283.35 364.5 1418.5 c 0,27,28
 557.469 1578.01 557.469 1578.01 925 1591 c 1,29,-1
 925 1894 l 1,30,-1
 1162 1894 l 1,31,-1
 1162 1585 l 1,32,33
 1488.53 1555.67 1488.53 1555.67 1764 1433 c 1,34,-1
 1625 1177 l 1,35,36
 1400.01 1273.75 1400.01 1273.75 1162 1301 c 1,37,-1
 1162 983 l 1,0,1
788 947 m 0,38,39
 839.5 947 839.5 947 925 956 c 1,40,-1
 925 1310 l 1,41,42
 717.9 1302.67 717.9 1302.67 616 1237 c 0,43,44
 533 1183.51 533 1183.51 533 1109.76 c 128,-1,45
 533 1036 533 1036 596 991.5 c 128,-1,46
 659 947 659 947 788 947 c 0,38,39
1298 698 m 0,47,48
 1240.75 698 1240.75 698 1162 689 c 1,49,-1
 1162 262 l 1,50,51
 1487.43 281.983 1487.43 281.983 1564.5 423 c 0,52,53
 1588 466 1588 466 1588 514 c 0,54,55
 1588 599 1588 599 1517 648.5 c 128,-1,56
 1446 698 1446 698 1298 698 c 0,47,48
EndSplineSet
EndChar

StartChar: currency
Encoding: 164 164 128
Width: 1373
Flags: HW
LayerCount: 2
Fore
SplineSet
891 420 m 1,0,1
 800 377 800 377 689 377 c 128,-1,2
 578 377 578 377 484 424 c 1,3,-1
 294 235 l 1,4,-1
 130 399 l 1,5,-1
 312 580 l 1,6,7
 245 688.875 245 688.875 245 807.915 c 128,-1,8
 245 926.955 245 926.955 290 1019 c 1,9,-1
 130 1179 l 1,10,-1
 294 1343 l 1,11,-1
 445 1192 l 1,12,13
 557.125 1261 557.125 1261 689.162 1261 c 128,-1,14
 821.2 1261 821.2 1261 930 1197 c 1,15,-1
 1078 1343 l 1,16,-1
 1242 1179 l 1,17,-1
 1089 1027 l 1,18,19
 1139 929.083 1139 929.083 1139 806.084 c 128,-1,20
 1139 683.086 1139 683.086 1067 572 c 1,21,-1
 1242 399 l 1,22,-1
 1078 235 l 1,23,-1
 891 420 l 1,0,1
692 593 m 256,24,25
 791.867 593 791.867 593 858 657 c 0,26,27
 923 719.903 923 719.903 923 819 c 256,28,29
 923 918.097 923 918.097 858 981 c 0,30,31
 791.867 1045 791.867 1045 692 1045 c 256,32,33
 592.133 1045 592.133 1045 526 981 c 0,34,35
 461 918.097 461 918.097 461 819 c 256,36,37
 461 719.903 461 719.903 526 657 c 0,38,39
 592.133 593 592.133 593 692 593 c 256,24,25
EndSplineSet
EndChar

StartChar: cent
Encoding: 162 162 129
Width: 1526
Flags: HW
LayerCount: 2
Fore
SplineSet
698 1503 m 1,0,-1
 935 1503 l 1,1,-1
 935 -322 l 1,2,-1
 698 -322 l 1,3,-1
 698 1503 l 1,0,-1
1392 129 m 1,4,5
 1143.56 -21 1143.56 -21 836 -21 c 0,6,7
 503.982 -21 503.982 -21 306 152.5 c 0,8,9
 114 320.758 114 320.758 114 587 c 0,10,11
 114 856.344 114 856.344 300.5 1024.5 c 0,12,13
 496.255 1201 496.255 1201 827 1201 c 0,14,15
 1051.73 1201 1051.73 1201 1251 1127.5 c 0,16,17
 1312 1105 1312 1105 1357 1078 c 1,18,-1
 1220 855 l 1,19,20
 1032.47 942 1032.47 942 861 942 c 0,21,22
 660.042 942 660.042 942 540.5 841.5 c 0,23,24
 425 744.398 425 744.398 425 589 c 256,25,26
 425 434.948 425 434.948 545.5 337.5 c 0,27,28
 668.538 238 668.538 238 869.692 238 c 128,-1,29
 1070.85 238 1070.85 238 1255 352 c 1,30,-1
 1392 129 l 1,4,5
EndSplineSet
EndChar

StartChar: numbersign
Encoding: 35 35 130
Width: 2048
Flags: HW
LayerCount: 2
Fore
SplineSet
430 387 m 1,0,-1
 157 387 l 1,1,-1
 157 609 l 1,2,-1
 478 609 l 1,3,-1
 558 986 l 1,4,-1
 157 986 l 1,5,-1
 157 1208 l 1,6,-1
 605 1208 l 1,7,-1
 683 1573 l 1,8,-1
 940 1573 l 1,9,-1
 862 1208 l 1,10,-1
 1335 1208 l 1,11,-1
 1413 1573 l 1,12,-1
 1670 1573 l 1,13,-1
 1592 1208 l 1,14,-1
 1890 1208 l 1,15,-1
 1890 986 l 1,16,-1
 1545 986 l 1,17,-1
 1465 609 l 1,18,-1
 1890 609 l 1,19,-1
 1890 387 l 1,20,-1
 1417 387 l 1,21,-1
 1335 0 l 1,22,-1
 1078 0 l 1,23,-1
 1160 387 l 1,24,-1
 687 387 l 1,25,-1
 605 0 l 1,26,-1
 348 0 l 1,27,-1
 430 387 l 1,0,-1
1208 609 m 1,28,-1
 1288 986 l 1,29,-1
 815 986 l 1,30,-1
 735 609 l 1,31,-1
 1208 609 l 1,28,-1
EndSplineSet
EndChar

StartChar: logicalnot
Encoding: 172 172 131
Width: 1480
Flags: HW
LayerCount: 2
Fore
SplineSet
137 1060 m 1,0,-1
 1343 1060 l 1,1,-1
 1342 481 l 1,2,-1
 1110 481 l 1,3,-1
 1110 838 l 1,4,-1
 137 838 l 1,5,-1
 137 1060 l 1,0,-1
EndSplineSet
EndChar

StartChar: asciitilde
Encoding: 126 126 132
Width: 1698
Flags: HW
LayerCount: 2
Fore
SplineSet
578 828 m 0,0,1
 428.909 828 428.909 828 313 678 c 1,2,-1
 171 859 l 1,3,4
 331.285 1065.95 331.285 1065.95 564 1082 c 0,5,6
 709.946 1091.27 709.946 1091.27 867 1009 c 0,7,8
 968.967 955.589 968.967 955.589 1020.98 939.294 c 128,-1,9
 1073 923 1073 923 1119 923 c 0,10,11
 1268.09 923 1268.09 923 1384 1073 c 1,12,-1
 1526 892 l 1,13,14
 1365.71 685.049 1365.71 685.049 1133 669 c 0,15,16
 987.054 659.734 987.054 659.734 830 742 c 0,17,18
 728.033 795.411 728.033 795.411 676.016 811.706 c 128,-1,19
 624 828 624 828 578 828 c 0,0,1
EndSplineSet
EndChar

StartChar: asciicircum
Encoding: 94 94 133
Width: 1698
Flags: HW
LayerCount: 2
Fore
SplineSet
849 1416 m 1,0,-1
 1471 467 l 1,1,-1
 1250 321 l 1,2,-1
 849 938 l 1,3,-1
 448 321 l 1,4,-1
 227 467 l 1,5,-1
 849 1416 l 1,0,-1
EndSplineSet
EndChar

StartChar: underscore
Encoding: 95 95 134
Width: 1669
Flags: HW
LayerCount: 2
Fore
SplineSet
1689 -177 m 1,0,-1
 1689 -399 l 1,1,-1
 -20 -399 l 1,2,-1
 -20 -177 l 1,3,-1
 1689 -177 l 1,0,-1
EndSplineSet
EndChar

StartChar: onesuperior
Encoding: 185 185 135
Width: 858
Flags: HW
LayerCount: 2
Fore
SplineSet
144 912 m 1,0,-1
 361 912 l 1,1,-1
 361 1551 l 1,2,3
 277 1528 277 1528 199 1481 c 1,4,-1
 80 1655 l 1,5,6
 301.667 1788 301.667 1788 598 1788 c 1,7,-1
 597 1787 l 1,8,-1
 598 1787 l 1,9,-1
 598 912 l 1,10,-1
 787 912 l 1,11,-1
 787 698 l 1,12,-1
 144 698 l 1,13,-1
 144 912 l 1,0,-1
EndSplineSet
EndChar

StartChar: twosuperior
Encoding: 178 178 136
Width: 1188
Flags: HW
LayerCount: 2
Fore
SplineSet
128 1668 m 1,0,1
 337.524 1800 337.524 1800 590 1800 c 0,2,3
 801.609 1800 801.609 1800 919 1700 c 0,4,5
 1026 1608.85 1026 1608.85 1026 1466 c 0,6,7
 1026 1367.06 1026 1367.06 962.5 1278 c 0,8,9
 878.486 1160.16 878.486 1160.16 670 1023 c 1,10,-1
 515 912 l 1,11,-1
 1059 912 l 1,12,-1
 1059 698 l 1,13,-1
 155 698 l 1,14,-1
 155 917 l 1,15,-1
 526 1184 l 1,16,17
 673.362 1287.91 673.362 1287.91 713.681 1333.45 c 128,-1,18
 754 1379 754 1379 763 1403.5 c 128,-1,19
 772 1428 772 1428 772 1453 c 0,20,21
 772 1514 772 1514 723 1549 c 128,-1,22
 674 1584 674 1584 571 1584 c 0,23,24
 401.686 1584 401.686 1584 228 1481 c 1,25,-1
 128 1668 l 1,0,1
EndSplineSet
EndChar

StartChar: threesuperior
Encoding: 179 179 137
Width: 1188
Flags: HW
LayerCount: 2
Fore
SplineSet
216 969 m 1,0,1
 369.846 894 369.846 894 565 894 c 0,2,3
 768.2 894 768.2 894 817.5 979 c 0,4,5
 832 1004 832 1004 832 1037.5 c 128,-1,6
 832 1071 832 1071 802 1106 c 128,-1,7
 772 1141 772 1141 711.5 1160.5 c 0,8,9
 571.568 1205.6 571.568 1205.6 339 1141 c 1,10,-1
 340 1319 l 1,11,-1
 696 1555 l 1,12,-1
 173 1555 l 1,13,-1
 173 1769 l 1,14,-1
 1039 1769 l 1,15,-1
 1039 1579 l 1,16,-1
 693 1360 l 1,17,18
 870.686 1354.14 870.686 1354.14 976 1258.5 c 0,19,20
 1076 1167.68 1076 1167.68 1076 1028 c 0,21,22
 1076 868.113 1076 868.113 938.5 773 c 128,-1,23
 801.163 678 801.163 678 561 678 c 0,24,25
 321.898 678 321.898 678 118 781 c 1,26,-1
 216 969 l 1,0,1
EndSplineSet
EndChar

StartChar: onequarter
Encoding: 188 188 138
Width: 2897
Flags: HW
LayerCount: 2
Fore
SplineSet
1904 1920 m 1,0,-1
 2171 1920 l 1,1,-1
 889 -177 l 1,2,-1
 622 -177 l 1,3,-1
 1904 1920 l 1,0,-1
1638 414 m 1,4,-1
 2262 1063 l 1,5,-1
 2499 1063 l 1,6,-1
 2499 414 l 1,7,-1
 2684 414 l 1,8,-1
 2684 200 l 1,9,-1
 2499 200 l 1,10,-1
 2499 0 l 1,11,-1
 2262 0 l 1,12,-1
 2262 200 l 1,13,-1
 1638 200 l 1,14,-1
 1638 414 l 1,4,-1
2262 414 m 1,15,-1
 2262 771 l 1,16,-1
 1915 414 l 1,17,-1
 2262 414 l 1,15,-1
274 912 m 1,18,-1
 491 912 l 1,19,-1
 491 1551 l 1,20,21
 407 1528 407 1528 329 1481 c 1,22,-1
 210 1655 l 1,23,24
 431.667 1788 431.667 1788 728 1788 c 1,25,-1
 727 1787 l 1,26,-1
 728 1787 l 1,27,-1
 728 912 l 1,28,-1
 917 912 l 1,29,-1
 917 698 l 1,30,-1
 274 698 l 1,31,-1
 274 912 l 1,18,-1
EndSplineSet
EndChar

StartChar: onehalf
Encoding: 189 189 139
Width: 2905
Flags: HW
LayerCount: 2
Fore
SplineSet
1874 1920 m 1,0,-1
 2141 1920 l 1,1,-1
 859 -177 l 1,2,-1
 592 -177 l 1,3,-1
 1874 1920 l 1,0,-1
274 912 m 1,4,-1
 491 912 l 1,5,-1
 491 1551 l 1,6,7
 407 1528 407 1528 329 1481 c 1,8,-1
 210 1655 l 1,9,10
 431.667 1788 431.667 1788 728 1788 c 1,11,-1
 727 1787 l 1,12,-1
 728 1787 l 1,13,-1
 728 912 l 1,14,-1
 917 912 l 1,15,-1
 917 698 l 1,16,-1
 274 698 l 1,17,-1
 274 912 l 1,4,-1
1774 957 m 1,18,19
 1983.52 1089 1983.52 1089 2236 1089 c 0,20,21
 2447.61 1089 2447.61 1089 2565 989 c 0,22,23
 2672 897.852 2672 897.852 2672 755 c 0,24,25
 2672 656.065 2672 656.065 2608.5 567 c 0,26,27
 2524.49 449.162 2524.49 449.162 2316 312 c 1,28,-1
 2161 201 l 1,29,-1
 2705 201 l 1,30,-1
 2705 -13 l 1,31,-1
 1801 -13 l 1,32,-1
 1801 206 l 1,33,-1
 2172 473 l 1,34,35
 2319.36 576.909 2319.36 576.909 2359.68 622.455 c 128,-1,36
 2400 668 2400 668 2409 692.5 c 128,-1,37
 2418 717 2418 717 2418 742 c 0,38,39
 2418 803 2418 803 2369 838 c 128,-1,40
 2320 873 2320 873 2217 873 c 0,41,42
 2047.69 873 2047.69 873 1874 770 c 1,43,-1
 1774 957 l 1,18,19
EndSplineSet
EndChar

StartChar: threequarters
Encoding: 190 190 140
Width: 2897
Flags: HW
LayerCount: 2
Fore
SplineSet
1904 1920 m 1,0,-1
 2171 1920 l 1,1,-1
 889 -177 l 1,2,-1
 622 -177 l 1,3,-1
 1904 1920 l 1,0,-1
1638 414 m 1,4,-1
 2262 1063 l 1,5,-1
 2499 1063 l 1,6,-1
 2499 414 l 1,7,-1
 2684 414 l 1,8,-1
 2684 200 l 1,9,-1
 2499 200 l 1,10,-1
 2499 0 l 1,11,-1
 2262 0 l 1,12,-1
 2262 200 l 1,13,-1
 1638 200 l 1,14,-1
 1638 414 l 1,4,-1
2262 414 m 1,15,-1
 2262 771 l 1,16,-1
 1915 414 l 1,17,-1
 2262 414 l 1,15,-1
198 969 m 1,18,19
 351.846 894 351.846 894 547 894 c 0,20,21
 750.2 894 750.2 894 799.5 979 c 0,22,23
 814 1004 814 1004 814 1037.5 c 128,-1,24
 814 1071 814 1071 784 1106 c 128,-1,25
 754 1141 754 1141 693.5 1160.5 c 0,26,27
 553.568 1205.6 553.568 1205.6 321 1141 c 1,28,-1
 322 1319 l 1,29,-1
 678 1555 l 1,30,-1
 155 1555 l 1,31,-1
 155 1769 l 1,32,-1
 1021 1769 l 1,33,-1
 1021 1579 l 1,34,-1
 675 1360 l 1,35,36
 852.686 1354.14 852.686 1354.14 958 1258.5 c 0,37,38
 1058 1167.68 1058 1167.68 1058 1028 c 0,39,40
 1058 868.113 1058 868.113 920.5 773 c 128,-1,41
 783.163 678 783.163 678 543 678 c 0,42,43
 303.898 678 303.898 678 100 781 c 1,44,-1
 198 969 l 1,18,19
EndSplineSet
EndChar

StartChar: dotlessi
Encoding: 305 305 141
Width: 683
Flags: HW
LayerCount: 2
Fore
SplineSet
193 1180 m 1,0,-1
 489 1180 l 1,1,-1
 489 0 l 1,2,-1
 193 0 l 1,3,-1
 193 1180 l 1,0,-1
EndSplineSet
EndChar

StartChar: eth
Encoding: 240 240 142
Width: 1706
Flags: HW
LayerCount: 2
Fore
SplineSet
681 1674 m 1,0,1
 820.794 1636.36 820.794 1636.36 965 1573 c 1,2,-1
 1105 1745 l 1,3,-1
 1276 1604 l 1,4,-1
 1162 1464 l 1,5,6
 1382 1318 1382 1318 1493.5 1120 c 128,-1,7
 1605 922 1605 922 1605 689 c 0,8,9
 1605 378.46 1605 378.46 1418.5 189 c 0,10,11
 1214.73 -18 1214.73 -18 835 -18 c 0,12,13
 493.263 -18 493.263 -18 291.5 146 c 0,14,15
 101 300.845 101 300.845 101 542 c 0,16,17
 101 765.383 101 765.383 270 901 c 0,18,19
 439.477 1037 439.477 1037 725 1037 c 0,20,21
 1042.76 1037 1042.76 1037 1302 878 c 1,22,23
 1235 1115 1235 1115 1001 1265 c 1,24,-1
 866 1099 l 1,25,-1
 693 1239 l 1,26,-1
 797 1367 l 1,27,28
 699.234 1406.11 699.234 1406.11 556 1443 c 1,29,-1
 681 1674 l 1,0,1
433 634 m 128,-1,31
 410 589 410 589 410 531 c 128,-1,32
 410 473 410 473 439.5 418.5 c 128,-1,33
 469 364 469 364 523.5 323.5 c 0,34,35
 641.247 236 641.247 236 834 236 c 0,36,37
 1033.1 236 1033.1 236 1154.5 332.5 c 0,38,39
 1272.65 426.413 1272.65 426.413 1295 591 c 1,40,41
 1176.51 719.947 1176.51 719.947 952 766 c 0,42,43
 874 782 874 782 781.5 782 c 128,-1,44
 689 782 689 782 619 763.5 c 128,-1,45
 549 745 549 745 502.5 712 c 128,-1,30
 456 679 456 679 433 634 c 128,-1,31
EndSplineSet
EndChar

StartChar: thorn
Encoding: 254 254 143
Width: 1711
Flags: HW
LayerCount: 2
Fore
SplineSet
473 -481 m 1,0,-1
 177 -481 l 1,1,-1
 177 1659 l 1,2,-1
 473 1659 l 1,3,-1
 473 1069 l 1,4,5
 600.87 1157.53 600.87 1157.53 805 1190.5 c 0,6,7
 870 1201 870 1201 935 1201 c 0,8,9
 1237 1201 1237 1201 1426 1033 c 0,10,11
 1617 863.222 1617 863.222 1617 595 c 0,12,13
 1617 318.262 1617 318.262 1417.5 146.5 c 0,14,15
 1222.95 -21 1222.95 -21 917 -21 c 0,16,17
 726.949 -21 726.949 -21 562.5 42.5 c 0,18,19
 512 62 512 62 473 85 c 1,20,-1
 473 -481 l 1,0,-1
473 371 m 1,21,22
 639.25 238 639.25 238 878 238 c 0,23,24
 1076.55 238 1076.55 238 1193.5 341 c 0,25,26
 1306 440.083 1306 440.083 1306 595 c 0,27,28
 1306 741.393 1306 741.393 1195.5 839.5 c 0,29,30
 1080.05 942 1080.05 942 897 942 c 0,31,32
 711.083 942 711.083 942 557.5 847 c 0,33,34
 509 817 509 817 473 780 c 1,35,-1
 473 371 l 1,21,22
EndSplineSet
EndChar

StartChar: hbar
Encoding: 295 295 144
Width: 1703
Flags: HW
LayerCount: 2
Fore
SplineSet
19 1497 m 1,0,-1
 700 1497 l 1,1,-1
 700 1283 l 1,2,-1
 19 1283 l 1,3,-1
 19 1497 l 1,0,-1
481 819 m 1,4,-1
 481 0 l 1,5,-1
 185 0 l 1,6,-1
 185 1658 l 1,7,-1
 481 1658 l 1,8,-1
 481 1090 l 1,9,10
 683.412 1201 683.412 1201 929 1201 c 0,11,12
 1221.47 1201 1221.47 1201 1389 1034.5 c 0,13,14
 1557 867.537 1557 867.537 1557 580 c 2,15,-1
 1557 0 l 1,16,-1
 1262 0 l 1,17,-1
 1262 568 l 2,18,19
 1262 739.077 1262 739.077 1156 841 c 0,20,21
 1046.8 946 1046.8 946 848.182 946 c 128,-1,22
 649.564 946 649.564 946 481 819 c 1,4,-1
EndSplineSet
EndChar

StartChar: Eth
Encoding: 208 208 145
Width: 1879
Flags: HW
LayerCount: 2
Fore
SplineSet
8 915 m 1,0,-1
 925 915 l 1,1,-1
 925 693 l 1,2,-1
 8 693 l 1,3,-1
 8 915 l 1,0,-1
222 1563 m 1,4,-1
 795 1563 l 2,5,6
 1285.43 1563 1285.43 1563 1537.5 1354.5 c 0,7,8
 1778 1155.57 1778 1155.57 1778 788 c 0,9,10
 1778 431.884 1778 431.884 1539 223.5 c 0,11,12
 1281.52 -0.999984 1281.52 -0.999984 797 -1 c 2,13,-1
 222 0 l 1,14,-1
 222 1563 l 1,4,-1
873 274 m 2,15,16
 1151.1 274 1151.1 274 1300.5 414 c 0,17,18
 1444 548.469 1444 548.469 1444 788 c 0,19,20
 1444 1146.67 1444 1146.67 1122 1252 c 0,21,22
 1015 1287 1015 1287 873 1287 c 2,23,-1
 539 1287 l 1,24,-1
 539 274 l 1,25,-1
 873 274 l 2,15,16
EndSplineSet
EndChar

StartChar: Thorn
Encoding: 222 222 146
Width: 1879
Flags: HW
LayerCount: 2
Fore
SplineSet
222 1563 m 1,0,-1
 539 1563 l 1,1,-1
 539 1363 l 1,2,-1
 1017 1363 l 2,3,4
 1367.31 1363 1367.31 1363 1548 1214.5 c 0,5,6
 1720 1073.14 1720 1073.14 1720 813 c 0,7,8
 1720 560.832 1720 560.832 1549.5 413 c 0,9,10
 1366.12 254 1366.12 254 1019 254 c 2,11,-1
 539 255 l 1,12,-1
 539 0 l 1,13,-1
 222 0 l 1,14,-1
 222 1563 l 1,0,-1
1025 529 m 2,15,16
 1292.14 529 1292.14 529 1363.5 695.5 c 0,17,18
 1386 748 1386 748 1386 812 c 128,-1,19
 1386 876 1386 876 1363.5 926.5 c 128,-1,20
 1341 977 1341 977 1295.5 1012.5 c 0,21,22
 1200.01 1087 1200.01 1087 1025 1087 c 2,23,-1
 539 1087 l 1,24,-1
 539 529 l 1,25,-1
 1025 529 l 2,15,16
EndSplineSet
EndChar

StartChar: dotlessj
Encoding: 567 567 147
Width: 683
Flags: HW
LayerCount: 2
Fore
SplineSet
193 1180 m 1,0,-1
 489 1180 l 1,1,-1
 489 177 l 2,2,3
 489 -1.71429 489 -1.71429 464 -88.8571 c 128,-1,4
 439 -176 439 -176 409.5 -229 c 128,-1,5
 380 -282 380 -282 336 -331 c 0,6,7
 256.146 -419.928 256.146 -419.928 90 -530 c 1,8,-1
 -19 -279 l 1,9,10
 102.564 -188.808 102.564 -188.808 149 -94 c 0,11,12
 193 -4.16667 193 -4.16667 193 134 c 2,13,-1
 193 1180 l 1,0,-1
EndSplineSet
EndChar

StartChar: commaaccent
Encoding: 63171 63171 148
Width: 730
Flags: HW
LayerCount: 2
Fore
SplineSet
191 -205 m 0,0,1
 191 -139 191 -139 241.5 -103 c 128,-1,2
 292 -67 292 -67 362 -67 c 128,-1,3
 432 -67 432 -67 470 -77.5 c 128,-1,4
 508 -88 508 -88 535 -109 c 0,5,6
 591 -152.556 591 -152.556 591 -239.278 c 0,7,8
 591 -410.613 591 -410.613 309 -530 c 1,9,-1
 220 -418 l 1,10,11
 294.175 -376.462 294.175 -376.462 315.087 -353.731 c 128,-1,12
 336 -331 336 -331 345 -315 c 1,13,14
 230.231 -315 230.231 -315 199.5 -244.5 c 0,15,16
 191 -225 191 -225 191 -205 c 0,0,1
EndSplineSet
EndChar

StartChar: ring
Encoding: 730 730 149
Width: 1078
Flags: HW
LayerCount: 2
Fore
SplineSet
538.5 1301 m 0,0,1
 459 1301 459 1301 396.5 1321 c 128,-1,2
 334 1341 334 1341 290 1376.5 c 0,3,4
 200 1449.11 200 1449.11 200 1563 c 128,-1,5
 200 1676.89 200 1676.89 290 1749.5 c 0,6,7
 383.577 1825 383.577 1825 539 1825 c 128,-1,8
 694.423 1825 694.423 1825 788 1749.5 c 0,9,10
 878 1676.89 878 1676.89 878 1563 c 128,-1,11
 878 1449.11 878 1449.11 788 1376.5 c 0,12,13
 694.423 1301 694.423 1301 538.5 1301 c 0,0,1
539 1446 m 256,14,15
 608 1446 608 1446 645.5 1479 c 128,-1,16
 683 1512 683 1512 683 1563.5 c 128,-1,17
 683 1615 683 1615 645.5 1647 c 128,-1,18
 608 1679 608 1679 539 1679 c 256,19,20
 470 1679 470 1679 432.5 1647 c 128,-1,21
 395 1615 395 1615 395 1563.5 c 128,-1,22
 395 1512 395 1512 432.5 1479 c 128,-1,23
 470 1446 470 1446 539 1446 c 256,14,15
EndSplineSet
EndChar

StartChar: grave.cap
Encoding: 65539 -1 150
Width: 1244
Flags: HW
LayerCount: 2
Fore
SplineSet
262 2030 m 1,0,-1
 936 1841 l 1,1,-1
 874 1623 l 1,2,-1
 192 1782 l 1,3,-1
 262 2030 l 1,0,-1
EndSplineSet
EndChar

StartChar: acute.cap
Encoding: 65540 -1 151
Width: 1244
Flags: HW
LayerCount: 2
Fore
SplineSet
301 1841 m 1,0,-1
 975 2030 l 1,1,-1
 1045 1782 l 1,2,-1
 363 1623 l 1,3,-1
 301 1841 l 1,0,-1
EndSplineSet
EndChar

StartChar: Lslash
Encoding: 321 321 152
Width: 1533
Flags: HW
LayerCount: 2
Fore
SplineSet
-64 718 m 1,0,-1
 917 1165 l 1,1,-1
 1009 963 l 1,2,-1
 28 516 l 1,3,-1
 -64 718 l 1,0,-1
222 1563 m 1,4,-1
 539 1563 l 1,5,-1
 539 278 l 1,6,-1
 1448 278 l 1,7,-1
 1448 0 l 1,8,-1
 222 0 l 1,9,-1
 222 1563 l 1,4,-1
EndSplineSet
EndChar

StartChar: lslash
Encoding: 322 322 153
Width: 1016
Flags: HW
LayerCount: 2
Fore
SplineSet
40 759 m 1,0,-1
 894 1143 l 1,1,-1
 983 940 l 1,2,-1
 129 555 l 1,3,-1
 40 759 l 1,0,-1
363 1659 m 1,4,-1
 659 1659 l 1,5,-1
 659 0 l 1,6,-1
 363 0 l 1,7,-1
 363 1659 l 1,4,-1
EndSplineSet
EndChar

StartChar: dieresis.cap
Encoding: 65541 -1 154
Width: 1594
Flags: HW
LayerCount: 2
Fore
SplineSet
1142 1669 m 256,0,1
 1047.35 1669 1047.35 1669 987.5 1724.5 c 0,2,3
 931 1776.89 931 1776.89 931 1852 c 256,4,5
 931 1927.16 931 1927.16 987.5 1977.5 c 0,6,7
 1046.43 2030 1046.43 2030 1142 2030 c 256,8,9
 1238.57 2030 1238.57 2030 1297.5 1977.5 c 0,10,11
 1354 1927.16 1354 1927.16 1354 1852 c 256,12,13
 1354 1776.89 1354 1776.89 1297.5 1724.5 c 0,14,15
 1237.65 1669 1237.65 1669 1142 1669 c 256,0,1
451 1669 m 256,16,17
 356.353 1669 356.353 1669 296.5 1724.5 c 0,18,19
 240 1776.89 240 1776.89 240 1852 c 256,20,21
 240 1927.16 240 1927.16 296.5 1977.5 c 0,22,23
 355.429 2030 355.429 2030 451 2030 c 256,24,25
 547.571 2030 547.571 2030 606.5 1977.5 c 0,26,27
 663 1927.16 663 1927.16 663 1852 c 256,28,29
 663 1776.89 663 1776.89 606.5 1724.5 c 0,30,31
 546.647 1669 546.647 1669 451 1669 c 256,16,17
EndSplineSet
EndChar

StartChar: AE
Encoding: 198 198 155
Width: 2729
Flags: HW
LayerCount: 2
Fore
SplineSet
1193 1563 m 1,0,-1
 2503 1563 l 1,1,-1
 2503 1285 l 1,2,-1
 1618 1285 l 1,3,-1
 1618 973 l 1,4,-1
 2387 973 l 1,5,-1
 2387 712 l 1,6,-1
 1618 712 l 1,7,-1
 1618 277 l 1,8,-1
 2524 277 l 1,9,-1
 2524 0 l 1,10,-1
 1301 0 l 1,11,-1
 1301 263 l 1,12,-1
 546 263 l 1,13,-1
 348 0 l 1,14,-1
 4 0 l 1,15,-1
 1193 1563 l 1,0,-1
1301 524 m 1,16,-1
 1301 1264 l 1,17,-1
 743 524 l 1,18,-1
 1301 524 l 1,16,-1
1301 1563 m 1,19,-1
 2632 1563 l 1,20,-1
 2632 1285 l 1,21,-1
 1618 1285 l 1,22,-1
 1618 973 l 1,23,-1
 2516 973 l 1,24,-1
 2516 712 l 1,25,-1
 1618 712 l 1,26,-1
 1618 277 l 1,27,-1
 2653 277 l 1,28,-1
 2653 0 l 1,29,-1
 1301 0 l 1,30,-1
 1301 1563 l 1,19,-1
EndSplineSet
EndChar

StartChar: dotaccent
Encoding: 729 729 156
Width: 875
Flags: HW
LayerCount: 2
Fore
SplineSet
438.5 1341 m 0,0,1
 394 1341 394 1341 358.5 1353.5 c 128,-1,2
 323 1366 323 1366 298 1387.5 c 0,3,4
 246 1432.22 246 1432.22 246 1498 c 0,5,6
 246 1602.89 246 1602.89 358.5 1642.5 c 0,7,8
 394 1655 394 1655 438.5 1655 c 128,-1,9
 483 1655 483 1655 518.5 1642.5 c 128,-1,10
 554 1630 554 1630 579 1609 c 0,11,12
 631 1565.32 631 1565.32 631 1498 c 0,13,14
 631 1432.22 631 1432.22 579 1387.5 c 0,15,16
 524.93 1341 524.93 1341 438.5 1341 c 0,0,1
EndSplineSet
EndChar

StartChar: Oslash
Encoding: 216 216 157
Width: 2048
Flags: HW
LayerCount: 2
Fore
SplineSet
1623 1770 m 1,0,-1
 1910 1770 l 1,1,-1
 416 -246 l 1,2,-1
 129 -246 l 1,3,-1
 1623 1770 l 1,0,-1
195 459.5 m 128,-1,5
 130 608 130 608 130 785.5 c 128,-1,6
 130 963 130 963 195 1110 c 128,-1,7
 260 1257 260 1257 377.5 1362.5 c 0,8,9
 624.194 1584 624.194 1584 1024 1584 c 128,-1,10
 1423.81 1584 1423.81 1584 1670.5 1362.5 c 0,11,12
 1788 1257 1788 1257 1853 1110 c 128,-1,13
 1918 963 1918 963 1918 785.5 c 128,-1,14
 1918 608 1918 608 1853 459.5 c 128,-1,15
 1788 311 1788 311 1670.5 204 c 0,16,17
 1422.32 -22 1422.32 -22 1024 -22 c 128,-1,18
 625.678 -22 625.678 -22 377.5 204 c 0,19,4
 260 311 260 311 195 459.5 c 128,-1,5
447 786 m 256,20,21
 447 547.897 447 547.897 611.5 402.5 c 0,22,23
 772.723 260 772.723 260 1024 260 c 256,24,25
 1275.82 260 1275.82 260 1436 402.5 c 0,26,27
 1601 549.286 1601 549.286 1601 786 c 256,28,29
 1601 1023 1601 1023 1436 1165.5 c 0,30,31
 1277.95 1302 1277.95 1302 1024 1302 c 256,32,33
 770.579 1302 770.579 1302 611.5 1165.5 c 0,34,35
 447 1024.35 447 1024.35 447 786 c 256,20,21
EndSplineSet
EndChar

StartChar: germandbls
Encoding: 223 223 158
Width: 1875
Flags: HW
LayerCount: 2
Fore
SplineSet
828 870 m 1,0,1
 1055 1046.98 1055 1046.98 1055 1192 c 0,2,3
 1055 1320.34 1055 1320.34 919.5 1366.5 c 0,4,5
 874 1382 874 1382 812.5 1382 c 128,-1,6
 751 1382 751 1382 702 1365.5 c 128,-1,7
 653 1349 653 1349 618.5 1317.5 c 0,8,9
 547 1252.22 547 1252.22 547 1134 c 2,10,-1
 547 0 l 1,11,-1
 251 0 l 1,12,-1
 251 958 l 1,13,-1
 59 958 l 1,14,-1
 59 1180 l 1,15,-1
 252 1180 l 1,16,17
 260.016 1404.44 260.016 1404.44 405 1529 c 0,18,19
 549.328 1653 549.328 1653 810 1653 c 0,20,21
 1081.35 1653 1081.35 1653 1232.5 1519.5 c 0,22,23
 1366 1401.59 1366 1401.59 1366 1222 c 0,24,25
 1366 1124 1366 1124 1321 1045 c 128,-1,26
 1276 966 1276 966 1191 888 c 1,27,28
 1442.73 888 1442.73 888 1606 775.5 c 0,29,30
 1785 652.165 1785 652.165 1785 434 c 0,31,32
 1785 224.463 1785 224.463 1619 103 c 0,33,34
 1448.17 -22 1448.17 -22 1135 -22 c 0,35,36
 870.591 -22 870.591 -22 709 57 c 1,37,-1
 804 292 l 1,38,39
 954.244 222 954.244 222 1146 222 c 256,40,41
 1381.76 222 1381.76 222 1450.5 339 c 0,42,43
 1474 379 1474 379 1474 434 c 0,44,45
 1474 717.986 1474 717.986 828 658 c 1,46,-1
 828 870 l 1,0,1
EndSplineSet
EndChar

StartChar: OE
Encoding: 338 338 159
Width: 3083
Flags: HW
LayerCount: 2
Fore
SplineSet
195 459.5 m 128,-1,1
 130 608 130 608 130 785.5 c 128,-1,2
 130 963 130 963 195 1110 c 128,-1,3
 260 1257 260 1257 377.5 1362.5 c 0,4,5
 624.194 1584 624.194 1584 1024 1584 c 128,-1,6
 1423.81 1584 1423.81 1584 1670.5 1362.5 c 0,7,8
 1788 1257 1788 1257 1853 1110 c 128,-1,9
 1918 963 1918 963 1918 785.5 c 128,-1,10
 1918 608 1918 608 1853 459.5 c 128,-1,11
 1788 311 1788 311 1670.5 204 c 0,12,13
 1422.32 -22 1422.32 -22 1024 -22 c 128,-1,14
 625.678 -22 625.678 -22 377.5 204 c 0,15,0
 260 311 260 311 195 459.5 c 128,-1,1
447 786 m 256,16,17
 447 547.897 447 547.897 611.5 402.5 c 0,18,19
 772.723 260 772.723 260 1024 260 c 256,20,21
 1275.82 260 1275.82 260 1436 402.5 c 0,22,23
 1601 549.286 1601 549.286 1601 786 c 256,24,25
 1601 1023 1601 1023 1436 1165.5 c 0,26,27
 1277.95 1302 1277.95 1302 1024 1302 c 256,28,29
 770.579 1302 770.579 1302 611.5 1165.5 c 0,30,31
 447 1024.35 447 1024.35 447 786 c 256,16,17
1601 1563 m 1,32,-1
 2932 1563 l 1,33,-1
 2932 1285 l 1,34,-1
 1918 1285 l 1,35,-1
 1918 973 l 1,36,-1
 2816 973 l 1,37,-1
 2816 712 l 1,38,-1
 1918 712 l 1,39,-1
 1918 277 l 1,40,-1
 2953 277 l 1,41,-1
 2953 0 l 1,42,-1
 1601 0 l 1,43,-1
 1601 1563 l 1,32,-1
EndSplineSet
EndChar

StartChar: ae
Encoding: 230 230 161
Width: 2726
Flags: HW
LayerCount: 2
Fore
SplineSet
2472 88 m 1,0,1
 2244.14 -22 2244.14 -22 1947 -22 c 0,2,3
 1733 -22 1733 -22 1568 36.5 c 128,-1,4
 1403 95 1403 95 1301 199 c 1,5,6
 1147.13 52.6348 1147.13 52.6348 887 -1 c 0,7,8
 790 -21 790 -21 661 -21 c 128,-1,9
 532 -21 532 -21 429 9 c 128,-1,10
 326 39 326 39 259.5 91.5 c 0,11,12
 129 194.526 129 194.526 129 371 c 0,13,14
 129 644.791 129 644.791 444.5 725.5 c 0,15,16
 552 753 552 753 738.439 753 c 128,-1,17
 924.879 753 924.879 753 1177 688 c 1,18,19
 1166.73 803.064 1166.73 803.064 1057.5 873.5 c 0,20,21
 945.072 946 945.072 946 764 946 c 0,22,23
 526.52 946 526.52 946 317 849 c 1,24,-1
 227 1092 l 1,25,26
 530.809 1201 530.809 1201 812 1201 c 0,27,28
 1165.42 1201 1165.42 1201 1328 1011 c 1,29,30
 1533.29 1201 1533.29 1201 1864 1201 c 128,-1,31
 2194.54 1201 2194.54 1201 2397.5 1012 c 0,32,33
 2593 829.947 2593 829.947 2593 550 c 0,34,35
 2593 502 2593 502 2590 478 c 1,36,-1
 1475 478 l 1,37,-1
 1475 475 l 1,38,39
 1513.15 366.571 1513.15 366.571 1647.5 302 c 0,40,41
 1780.66 238 1780.66 238 1970.15 238 c 128,-1,42
 2159.65 238 2159.65 238 2372 314 c 1,43,-1
 2472 88 l 1,0,1
2279 709 m 1,44,45
 2226.27 870.471 2226.27 870.471 2030 924 c 0,46,47
 1964 942 1964 942 1882 942 c 128,-1,48
 1800 942 1800 942 1731.5 923 c 128,-1,49
 1663 904 1663 904 1611.5 872 c 0,50,51
 1507.49 807.371 1507.49 807.371 1474 709 c 1,52,-1
 2279 709 l 1,44,45
1181 452 m 1,53,54
 944.789 518 944.789 518 712 518 c 0,55,56
 496 518 496 518 455.5 437 c 0,57,58
 443 412 443 412 443 382.5 c 128,-1,59
 443 353 443 353 455 326.5 c 128,-1,60
 467 300 467 300 496 279.5 c 0,61,62
 560.366 234 560.366 234 666.683 234 c 128,-1,63
 773 234 773 234 846 248 c 128,-1,64
 919 262 919 262 982 285 c 0,65,66
 1107.49 330.814 1107.49 330.814 1181 400 c 1,67,-1
 1181 452 l 1,53,54
EndSplineSet
EndChar

StartChar: Euro
Encoding: 8364 8364 162
Width: 1881
Flags: HW
LayerCount: 2
Fore
SplineSet
1224 260 m 0,0,1
 1442.94 260 1442.94 260 1673 383 c 1,2,-1
 1819 143 l 1,3,4
 1548.58 -22 1548.58 -22 1199 -22 c 0,5,6
 909.016 -22 909.016 -22 704 109.5 c 0,7,8
 502.876 238.504 502.876 238.504 422 469 c 1,9,-1
 100 469 l 1,10,-1
 100 691 l 1,11,-1
 375 691 l 1,12,13
 372 731 372 731 372 770 c 128,-1,14
 372 809 372 809 374 843 c 1,15,-1
 160 843 l 1,16,-1
 160 1065 l 1,17,-1
 417 1065 l 1,18,19
 496.913 1306.74 496.913 1306.74 710.5 1445 c 0,20,21
 923.679 1583 923.679 1583 1228 1583 c 0,22,23
 1537.65 1583 1537.65 1583 1779 1447 c 1,24,-1
 1633 1207 l 1,25,26
 1445 1301 1445 1301 1258 1301 c 0,27,28
 891 1301 891 1301 757 1065 c 1,29,-1
 1340 1065 l 1,30,-1
 1340 843 l 1,31,-1
 691 843 l 1,32,33
 689 813 689 813 689 778.25 c 128,-1,34
 689 743.5 689 743.5 694 691 c 1,35,-1
 1280 691 l 1,36,-1
 1280 469 l 1,37,-1
 773 469 l 1,38,39
 913.01 260 913.01 260 1224 260 c 0,0,1
EndSplineSet
EndChar

StartChar: oslash
Encoding: 248 248 163
Width: 1696
Flags: HW
LayerCount: 2
Fore
SplineSet
1323 1426 m 1,0,-1
 1610 1426 l 1,1,-1
 372 -246 l 1,2,-1
 85 -246 l 1,3,-1
 1323 1426 l 1,0,-1
114 590 m 256,4,5
 114 849.482 114 849.482 312.5 1022 c 0,6,7
 518.458 1201 518.458 1201 848 1201 c 256,8,9
 1177.54 1201 1177.54 1201 1383.5 1022 c 0,10,11
 1582 849.482 1582 849.482 1582 590 c 256,12,13
 1582 330.518 1582 330.518 1383.5 158 c 0,14,15
 1177.54 -21 1177.54 -21 848 -21 c 256,16,17
 518.458 -21 518.458 -21 312.5 158 c 0,18,19
 114 330.518 114 330.518 114 590 c 256,4,5
425 590 m 256,20,21
 425 442.725 425 442.725 536.5 343.5 c 0,22,23
 655.052 238 655.052 238 848 238 c 256,24,25
 1040.95 238 1040.95 238 1159.5 343.5 c 0,26,27
 1271 442.725 1271 442.725 1271 590 c 256,28,29
 1271 738.275 1271 738.275 1159.5 837.5 c 0,30,31
 1040.95 943 1040.95 943 848 943 c 256,32,33
 655.052 943 655.052 943 536.5 837.5 c 0,34,35
 425 738.275 425 738.275 425 590 c 256,20,21
EndSplineSet
EndChar

StartChar: ring.cap
Encoding: 65542 -1 164
Width: 680
Flags: HW
LayerCount: 2
Fore
SplineSet
339.5 1415 m 0,0,1
 260 1415 260 1415 197 1439 c 128,-1,2
 134 1463 134 1463 90 1504.5 c 0,3,4
 -1 1590.33 -1 1590.33 -1 1722 c 256,5,6
 -1 1853.67 -1 1853.67 90 1939.5 c 0,7,8
 184.892 2029 184.892 2029 340 2029 c 128,-1,9
 495.108 2029 495.108 2029 590 1939.5 c 0,10,11
 681 1853.67 681 1853.67 681 1722 c 256,12,13
 681 1590.33 681 1590.33 590 1504.5 c 0,14,15
 495.108 1415 495.108 1415 339.5 1415 c 0,0,1
278 1593 m 128,-1,17
 305 1582 305 1582 339.5 1582 c 128,-1,18
 374 1582 374 1582 401.5 1593 c 128,-1,19
 429 1604 429 1604 447.5 1623 c 0,20,21
 486 1662.54 486 1662.54 486 1707.27 c 128,-1,22
 486 1752 486 1752 476 1777 c 128,-1,23
 466 1802 466 1802 447.5 1821 c 0,24,25
 408.553 1861 408.553 1861 356.776 1861 c 128,-1,26
 305 1861 305 1861 278 1850.5 c 128,-1,27
 251 1840 251 1840 232.5 1821 c 0,28,29
 194 1781.46 194 1781.46 194 1737.23 c 128,-1,30
 194 1693 194 1693 204 1667.5 c 128,-1,31
 214 1642 214 1642 232.5 1623 c 128,-1,16
 251 1604 251 1604 278 1593 c 128,-1,17
EndSplineSet
EndChar

StartChar: tilde.cap
Encoding: 65543 -1 165
Width: 707
Flags: HW
LayerCount: 2
Fore
SplineSet
802 1778 m 1,0,1
 691.158 1661 691.158 1661 542 1661 c 0,2,3
 479 1661 479 1661 431 1680.5 c 128,-1,4
 383 1700 383 1700 340 1723.5 c 128,-1,5
 297 1747 297 1747 256 1766.5 c 128,-1,6
 215 1786 215 1786 175.5 1786 c 128,-1,7
 136 1786 136 1786 100.5 1777.5 c 128,-1,8
 65 1769 65 1769 30 1754 c 0,9,10
 -45.25 1721.75 -45.25 1721.75 -94 1673 c 1,11,-1
 -94 1913 l 1,12,13
 16.8421 2030 16.8421 2030 166 2030 c 0,14,15
 229 2030 229 2030 277 2010.5 c 128,-1,16
 325 1991 325 1991 368 1967.5 c 128,-1,17
 411 1944 411 1944 452 1924.5 c 128,-1,18
 493 1905 493 1905 532.5 1905 c 128,-1,19
 572 1905 572 1905 607.5 1913.5 c 128,-1,20
 643 1922 643 1922 678 1937 c 0,21,22
 753.25 1969.25 753.25 1969.25 802 2018 c 1,23,-1
 802 1778 l 1,0,1
EndSplineSet
EndChar

StartChar: ellipsis
Encoding: 8230 8230 166
Width: 2574
Flags: HW
LayerCount: 2
Fore
SplineSet
1907 173 m 256,0,1
 1907 255.79 1907 255.79 1971 310.5 c 0,2,3
 2037.09 367 2037.09 367 2145 367 c 256,4,5
 2253.47 367 2253.47 367 2318.5 310.5 c 0,6,7
 2382 255.328 2382 255.328 2382 173 c 256,8,9
 2382 90.1311 2382 90.1311 2318.5 36 c 0,10,11
 2251.63 -21.0001 2251.63 -21.0001 2145 -21 c 256,12,13
 2038.96 -21 2038.96 -21 1971 36 c 0,14,15
 1907 89.6774 1907 89.6774 1907 173 c 256,0,1
1049 173 m 256,16,17
 1049 255.79 1049 255.79 1113 310.5 c 0,18,19
 1179.09 367 1179.09 367 1287 367 c 256,20,21
 1395.47 367 1395.47 367 1460.5 310.5 c 0,22,23
 1524 255.328 1524 255.328 1524 173 c 256,24,25
 1524 90.1311 1524 90.1311 1460.5 36 c 0,26,27
 1393.63 -21 1393.63 -21 1287 -21 c 256,28,29
 1180.96 -21 1180.96 -21 1113 36 c 0,30,31
 1049 89.6774 1049 89.6774 1049 173 c 256,16,17
191 173 m 256,32,33
 191 255.79 191 255.79 255 310.5 c 0,34,35
 321.094 367 321.094 367 429 367 c 256,36,37
 537.472 367 537.472 367 602.5 310.5 c 0,38,39
 666 255.328 666 255.328 666 173 c 256,40,41
 666 90.1311 666 90.1311 602.5 36 c 0,42,43
 535.635 -21 535.635 -21 429 -21 c 256,44,45
 322.962 -21 322.962 -21 255 36 c 0,46,47
 191 89.6774 191 89.6774 191 173 c 256,32,33
EndSplineSet
EndChar

StartChar: trademark
Encoding: 8482 8482 167
Width: 2582
Flags: HW
LayerCount: 2
Fore
SplineSet
1222 1563 m 1,0,-1
 1438 1563 l 1,1,-1
 1713 1283 l 1,2,-1
 1988 1563 l 1,3,-1
 2204 1563 l 1,4,-1
 2204 793 l 1,5,-1
 1988 793 l 1,6,-1
 1988 1267 l 1,7,-1
 1713 997 l 1,8,-1
 1438 1267 l 1,9,-1
 1438 793 l 1,10,-1
 1222 793 l 1,11,-1
 1222 1563 l 1,0,-1
549 1376 m 1,12,-1
 265 1376 l 1,13,-1
 265 1563 l 1,14,-1
 1060 1563 l 1,15,-1
 1060 1376 l 1,16,-1
 775 1376 l 1,17,-1
 775 793 l 1,18,-1
 549 793 l 1,19,-1
 549 1376 l 1,12,-1
EndSplineSet
EndChar

StartChar: perthousand
Encoding: 8240 8240 168
Width: 2942
Flags: HW
LayerCount: 2
Fore
SplineSet
469 785 m 256,0,1
 291.657 785 291.657 785 178 895.5 c 0,2,3
 64 1006.33 64 1006.33 64 1189 c 128,-1,4
 64 1371.67 64 1371.67 178 1482.5 c 0,5,6
 291.657 1593 291.657 1593 469 1593 c 256,7,8
 646.343 1593 646.343 1593 760 1482.5 c 0,9,10
 874 1371.67 874 1371.67 874 1189 c 128,-1,11
 874 1006.33 874 1006.33 760 895.5 c 0,12,13
 646.343 785 646.343 785 469 785 c 256,0,1
1501 1574 m 1,14,-1
 1808 1574 l 1,15,-1
 553 0 l 1,16,-1
 246 0 l 1,17,-1
 1501 1574 l 1,14,-1
469 989 m 256,18,19
 546.641 989 546.641 989 599 1044.5 c 0,20,21
 653 1101.74 653 1101.74 653 1189 c 256,22,23
 653 1276.26 653 1276.26 599 1333.5 c 0,24,25
 546.641 1389 546.641 1389 469 1389 c 256,26,27
 391.358 1389 391.358 1389 339 1333.5 c 0,28,29
 285 1276.26 285 1276.26 285 1189 c 256,30,31
 285 1101.74 285 1101.74 339 1044.5 c 0,32,33
 391.358 989 391.358 989 469 989 c 256,18,19
2068 382.5 m 0,34,35
 2068 474 2068 474 2098 549 c 128,-1,36
 2128 624 2128 624 2182 676.5 c 0,37,38
 2295.66 787 2295.66 787 2473 787 c 256,39,40
 2650.34 787 2650.34 787 2764 676.5 c 0,41,42
 2878 565.667 2878 565.667 2878 383 c 128,-1,43
 2878 200.333 2878 200.333 2764 89.5 c 0,44,45
 2650.34 -21.0001 2650.34 -21.0001 2473 -21 c 256,46,47
 2295.66 -21 2295.66 -21 2182 89.5 c 0,48,49
 2068 200.333 2068 200.333 2068 382.5 c 0,34,35
1170 382.5 m 0,50,51
 1170 474 1170 474 1200 549 c 128,-1,52
 1230 624 1230 624 1284 676.5 c 0,53,54
 1397.66 787 1397.66 787 1575 787 c 256,55,56
 1752.34 787 1752.34 787 1866 676.5 c 0,57,58
 1980 565.667 1980 565.667 1980 383 c 128,-1,59
 1980 200.333 1980 200.333 1866 89.5 c 0,60,61
 1752.34 -21 1752.34 -21 1575 -21 c 256,62,63
 1397.66 -21 1397.66 -21 1284 89.5 c 0,64,65
 1170 200.333 1170 200.333 1170 382.5 c 0,50,51
2289 383 m 256,66,67
 2289 295.74 2289 295.74 2343 238.5 c 0,68,69
 2395.36 183 2395.36 183 2473 183 c 256,70,71
 2550.64 183 2550.64 183 2603 238.5 c 0,72,73
 2657 295.74 2657 295.74 2657 383 c 256,74,75
 2657 470.26 2657 470.26 2603 527.5 c 0,76,77
 2550.64 583 2550.64 583 2473 583 c 256,78,79
 2395.36 583 2395.36 583 2343 527.5 c 0,80,81
 2289 470.26 2289 470.26 2289 383 c 256,66,67
1391 383 m 256,82,83
 1391 295.74 1391 295.74 1445 238.5 c 0,84,85
 1497.36 183 1497.36 183 1575 183 c 256,86,87
 1652.64 183 1652.64 183 1705 238.5 c 0,88,89
 1759 295.74 1759 295.74 1759 383 c 256,90,91
 1759 470.26 1759 470.26 1705 527.5 c 0,92,93
 1652.64 583 1652.64 583 1575 583 c 256,94,95
 1497.36 583 1497.36 583 1445 527.5 c 0,96,97
 1391 470.26 1391 470.26 1391 383 c 256,82,83
EndSplineSet
EndChar

StartChar: florin
Encoding: 402 402 169
Width: 1190
Flags: HW
LayerCount: 2
Fore
SplineSet
983 1375 m 1,0,1
 923.286 1413 923.286 1413 827 1413 c 256,2,3
 661.473 1413 661.473 1413 588.5 1274.5 c 0,4,5
 564 1228 564 1228 554 1165 c 2,6,-1
 529 1016 l 1,7,-1
 930 1016 l 1,8,-1
 893 794 l 1,9,-1
 491 794 l 1,10,-1
 268 -530 l 1,11,-1
 -28 -530 l 1,12,-1
 196 794 l 1,13,-1
 22 794 l 1,14,-1
 59 1016 l 1,15,-1
 233 1016 l 1,16,-1
 261 1180 l 2,17,18
 300.844 1419.07 300.844 1419.07 456 1552.5 c 0,19,20
 608.907 1684 608.907 1684 843 1684 c 0,21,22
 1014.14 1684 1014.14 1684 1130 1624 c 1,23,-1
 983 1375 l 1,0,1
EndSplineSet
EndChar

StartChar: dagger
Encoding: 8224 8224 170
Width: 1190
Flags: HW
LayerCount: 2
Fore
SplineSet
465 959 m 1,0,-1
 136 959 l 1,1,-1
 136 1181 l 1,2,-1
 465 1181 l 1,3,-1
 465 1770 l 1,4,-1
 722 1770 l 1,5,-1
 722 1181 l 1,6,-1
 1054 1181 l 1,7,-1
 1054 959 l 1,8,-1
 722 959 l 1,9,-1
 722 -482 l 1,10,-1
 465 -482 l 1,11,-1
 465 959 l 1,0,-1
EndSplineSet
EndChar

StartChar: daggerdbl
Encoding: 8225 8225 171
Width: 1190
Flags: HW
LayerCount: 2
Fore
SplineSet
136 686 m 1,0,-1
 465 686 l 1,1,-1
 465 959 l 1,2,-1
 136 959 l 1,3,-1
 136 1181 l 1,4,-1
 465 1181 l 1,5,-1
 465 1770 l 1,6,-1
 722 1770 l 1,7,-1
 722 1181 l 1,8,-1
 1054 1181 l 1,9,-1
 1054 959 l 1,10,-1
 722 959 l 1,11,-1
 722 686 l 1,12,-1
 1054 686 l 1,13,-1
 1054 464 l 1,14,-1
 722 464 l 1,15,-1
 722 -482 l 1,16,-1
 465 -482 l 1,17,-1
 465 464 l 1,18,-1
 136 464 l 1,19,-1
 136 686 l 1,0,-1
EndSplineSet
EndChar

StartChar: lozenge
Encoding: 9674 9674 172
Width: 1698
Flags: HW
LayerCount: 2
Fore
SplineSet
846 1203 m 1,0,-1
 1493 708 l 1,1,-1
 846 213 l 1,2,-1
 204 708 l 1,3,-1
 846 1203 l 1,0,-1
846 502 m 1,4,-1
 1115 708 l 1,5,-1
 846 914 l 1,6,-1
 578 708 l 1,7,-1
 846 502 l 1,4,-1
EndSplineSet
EndChar

StartChar: kgreenlandic
Encoding: 312 312 174
Width: 1536
Flags: HW
LayerCount: 2
Fore
SplineSet
186 1180 m 1,0,-1
 482 1180 l 1,1,-1
 482 679 l 1,2,-1
 1034 1180 l 1,3,-1
 1487 1180 l 1,4,-1
 870 628 l 1,5,-1
 1526 0 l 1,6,-1
 1082 0 l 1,7,-1
 643 425 l 1,8,-1
 482 281 l 1,9,-1
 482 0 l 1,10,-1
 186 0 l 1,11,-1
 186 1180 l 1,0,-1
EndSplineSet
EndChar

StartChar: dotaccent.cap
Encoding: 65544 -1 175
Width: 680
Flags: HW
LayerCount: 2
Fore
SplineSet
340 1678 m 256,0,1
 244.25 1678 244.25 1678 182.5 1730 c 0,2,3
 124 1779.26 124 1779.26 124 1854 c 0,4,5
 124 1929.74 124 1929.74 182.5 1979 c 0,6,7
 243.062 2030 243.062 2030 340 2030 c 256,8,9
 489.844 2030 489.844 2030 540 1923 c 0,10,11
 555 1891 555 1891 555 1854.5 c 128,-1,12
 555 1818 555 1818 540 1786 c 128,-1,13
 525 1754 525 1754 497.5 1730 c 0,14,15
 437.917 1678 437.917 1678 340 1678 c 256,0,1
EndSplineSet
EndChar

StartChar: A
Encoding: 65 65 178
Width: 1868
Flags: HW
LayerCount: 2
Fore
SplineSet
755 1563 m 1,0,-1
 1091 1563 l 1,1,-1
 1847 0 l 1,2,-1
 1514 0 l 1,3,-1
 1389 263 l 1,4,-1
 476 263 l 1,5,-1
 355 0 l 1,6,-1
 21 0 l 1,7,-1
 755 1563 l 1,0,-1
1264 524 m 1,8,-1
 926 1234 l 1,9,-1
 597 524 l 1,10,-1
 1264 524 l 1,8,-1
EndSplineSet
EndChar

StartChar: eogonek
Encoding: 281 281 199
Width: 1711
Flags: HW
LayerCount: 2
Fore
SplineSet
770 -285 m 0,0,1
 770 -150.75 770 -150.75 943 -21 c 1,2,-1
 938 -21 l 2,3,4
 552.109 -21 552.109 -21 332.5 157.5 c 0,5,6
 129 322.906 129 322.906 129 586 c 0,7,8
 129 842.989 129 842.989 319 1017.5 c 0,9,10
 518.787 1201 518.787 1201 847 1201 c 0,11,12
 1179.54 1201 1179.54 1201 1382.5 1012 c 0,13,14
 1578 829.947 1578 829.947 1578 550 c 0,15,16
 1578 502 1578 502 1575 478 c 1,17,-1
 459 478 l 1,18,19
 496.507 369.427 496.507 369.427 631.5 303.5 c 0,20,21
 765.619 238 765.619 238 955.133 238 c 128,-1,22
 1144.65 238 1144.65 238 1357 314 c 1,23,-1
 1457 88 l 1,24,-1
 1456 88 l 1,25,26
 1045 -40.5592 1045 -40.5592 1045 -220 c 0,27,28
 1045 -256 1045 -256 1072.5 -283 c 128,-1,29
 1100 -310 1100 -310 1166.14 -310 c 128,-1,30
 1232.27 -310 1232.27 -310 1322 -263 c 1,31,-1
 1399 -451 l 1,32,33
 1244.95 -530 1244.95 -530 1098 -530 c 0,34,35
 938.838 -530 938.838 -530 849.5 -455 c 0,36,37
 770 -388.259 770 -388.259 770 -285 c 0,0,1
1264 709 m 1,38,39
 1211.27 870.471 1211.27 870.471 1015 924 c 0,40,41
 949 942 949 942 867 942 c 128,-1,42
 785 942 785 942 716.5 923 c 128,-1,43
 648 904 648 904 596.5 872 c 0,44,45
 492.488 807.371 492.488 807.371 459 709 c 1,46,-1
 1264 709 l 1,38,39
EndSplineSet
EndChar

StartChar: ogonek
Encoding: 731 731 200
Width: 885
Flags: HW
LayerCount: 2
Fore
SplineSet
749 -451 m 1,0,1
 592.927 -530 592.927 -530 439 -530 c 0,2,3
 288.076 -530 288.076 -530 199.5 -456 c 0,4,5
 120 -389.582 120 -389.582 120 -292 c 0,6,7
 120 -90.5556 120 -90.5556 470 65 c 1,8,-1
 665 65 l 1,9,-1
 765 0 l 1,10,11
 466.222 -68.7453 466.222 -68.7453 410.5 -173 c 0,12,13
 395 -202 395 -202 395 -232 c 128,-1,14
 395 -262 395 -262 423 -286 c 128,-1,15
 451 -310 451 -310 516.636 -310 c 128,-1,16
 582.273 -310 582.273 -310 672 -263 c 1,17,-1
 749 -451 l 1,0,1
EndSplineSet
EndChar

StartChar: caronvertical
Encoding: 65545 -1 204
Width: 497
Flags: HW
LayerCount: 2
Fore
SplineSet
172 1694 m 1,0,-1
 438 1659 l 1,1,-1
 335 1092 l 1,2,-1
 100 1126 l 1,3,-1
 172 1694 l 1,0,-1
EndSplineSet
EndChar

StartChar: iogonek
Encoding: 303 303 209
Width: 683
Flags: HW
LayerCount: 2
Fore
SplineSet
341.5 1341 m 0,0,1
 297 1341 297 1341 261.5 1353.5 c 128,-1,2
 226 1366 226 1366 201 1387.5 c 0,3,4
 149 1432.22 149 1432.22 149 1498 c 0,5,6
 149 1602.89 149 1602.89 261.5 1642.5 c 0,7,8
 297 1655 297 1655 341.5 1655 c 128,-1,9
 386 1655 386 1655 421.5 1642.5 c 128,-1,10
 457 1630 457 1630 482 1609 c 0,11,12
 534 1565.32 534 1565.32 534 1498 c 0,13,14
 534 1432.22 534 1432.22 482 1387.5 c 0,15,16
 427.93 1341 427.93 1341 341.5 1341 c 0,0,1
-99 -291 m 0,17,18
 -99 -101.313 -99 -101.313 193 57 c 1,19,-1
 193 1180 l 1,20,-1
 489 1180 l 1,21,-1
 489 0 l 1,22,23
 233.557 -67.7707 233.557 -67.7707 188.5 -170.5 c 0,24,25
 176 -199 176 -199 176 -229 c 128,-1,26
 176 -259 176 -259 202.5 -284.5 c 128,-1,27
 229 -310 229 -310 297.636 -310 c 128,-1,28
 366.273 -310 366.273 -310 456 -263 c 1,29,-1
 533 -451 l 1,30,31
 378.95 -530 378.95 -530 232 -530 c 0,32,33
 67.2353 -530 67.2353 -530 -21 -455 c 0,34,35
 -99 -388.7 -99 -388.7 -99 -291 c 0,17,18
EndSplineSet
EndChar

StartChar: Iogonek
Encoding: 302 302 210
Width: 683
Flags: HW
LayerCount: 2
Fore
SplineSet
-87 -286 m 0,0,1
 -87 -95.0568 -87 -95.0568 226 65 c 1,2,-1
 401 65 l 1,3,-1
 501 0 l 1,4,5
 248.995 -65.6263 248.995 -65.6263 201 -169 c 0,6,7
 188 -197 188 -197 188 -228 c 128,-1,8
 188 -259 188 -259 214.5 -284.5 c 128,-1,9
 241 -310 241 -310 309.636 -310 c 128,-1,10
 378.273 -310 378.273 -310 468 -263 c 1,11,-1
 545 -451 l 1,12,13
 387 -530 387 -530 234 -530 c 0,14,15
 82.3582 -530 82.3582 -530 -6.5 -456.5 c 0,16,17
 -87 -389.914 -87 -389.914 -87 -286 c 0,0,1
182 1563 m 1,18,-1
 501 1563 l 1,19,-1
 501 0 l 1,20,-1
 182 0 l 1,21,-1
 182 1563 l 1,18,-1
EndSplineSet
EndChar

StartChar: uogonek
Encoding: 371 371 211
Width: 1708
Flags: HW
LayerCount: 2
Fore
SplineSet
1563 -451 m 1,0,1
 1405 -530 1405 -530 1252 -530 c 0,2,3
 1100.36 -530 1100.36 -530 1011.5 -456.5 c 0,4,5
 931 -389.914 931 -389.914 931 -286 c 0,6,7
 931 -92.9011 931 -92.9011 1244 55 c 1,8,-1
 1419 55 l 1,9,-1
 1517 0 l 1,10,11
 1371.59 -33.9918 1371.59 -33.9918 1287 -103 c 0,12,13
 1210 -165.816 1210 -165.816 1210 -228 c 0,14,15
 1210 -310 1210 -310 1321 -310 c 0,16,17
 1396.27 -310 1396.27 -310 1486 -263 c 1,18,-1
 1563 -451 l 1,0,1
1221 101 m 1,19,20
 1018.09 -20 1018.09 -20 793 -20 c 0,21,22
 324.134 -20 324.134 -20 219 315.5 c 0,23,24
 185 424 185 424 185 563 c 2,25,-1
 185 1181 l 1,26,-1
 480 1181 l 1,27,-1
 480 605 l 2,28,29
 480 427.724 480 427.724 559.5 340 c 0,30,31
 651.031 239 651.031 239 856 239 c 0,32,33
 1014.24 239 1014.24 239 1149.5 327 c 0,34,35
 1191 354 1191 354 1221 386 c 1,36,-1
 1221 1181 l 1,37,-1
 1517 1181 l 1,38,-1
 1517 0 l 1,39,-1
 1221 0 l 1,40,-1
 1221 101 l 1,19,20
EndSplineSet
EndChar

StartChar: Uogonek
Encoding: 370 370 212
Width: 1873
Flags: HW
LayerCount: 2
Fore
SplineSet
1160 1 m 1,0,1
 1050.8 -20 1050.8 -20 901.4 -20 c 128,-1,2
 752 -20 752 -20 608.5 29 c 128,-1,3
 465 78 465 78 366 168 c 0,4,5
 163 352.545 163 352.545 163 664 c 2,6,-1
 163 1563 l 1,7,-1
 480 1563 l 1,8,-1
 480 702 l 2,9,10
 480 377.041 480 377.041 738 287.5 c 0,11,12
 823 258 823 258 935.5 258 c 128,-1,13
 1048 258 1048 258 1133.5 287.5 c 128,-1,14
 1219 317 1219 317 1276.5 374 c 0,15,16
 1392 488.496 1392 488.496 1392 702 c 2,17,-1
 1392 1563 l 1,18,-1
 1709 1563 l 1,19,-1
 1709 664 l 2,20,21
 1709 385.432 1709 385.432 1542 204 c 1,22,23
 1388.99 72.238 1388.99 72.238 1333.99 -0.380993 c 0,24,25
 1238 -127.141 1238 -127.141 1238 -212 c 0,26,27
 1238 -310 1238 -310 1348 -310 c 0,28,29
 1425.27 -310 1425.27 -310 1515 -263 c 1,30,-1
 1592 -451 l 1,31,32
 1437.85 -530 1437.85 -530 1282 -530 c 0,33,34
 1132.48 -530 1132.48 -530 1044 -457 c 0,35,36
 963 -390.175 963 -390.175 963 -300 c 0,37,38
 963 -188.164 963 -188.164 1078.5 -69.5 c 0,39,40
 1115 -32 1115 -32 1160 1 c 1,0,1
EndSplineSet
EndChar

StartChar: Dcroat
Encoding: 272 272 213
Width: 1879
Flags: HW
LayerCount: 2
Fore
SplineSet
8 915 m 1,0,-1
 925 915 l 1,1,-1
 925 693 l 1,2,-1
 8 693 l 1,3,-1
 8 915 l 1,0,-1
222 1563 m 1,4,-1
 795 1563 l 2,5,6
 1285.43 1563 1285.43 1563 1537.5 1354.5 c 0,7,8
 1778 1155.57 1778 1155.57 1778 788 c 0,9,10
 1778 431.884 1778 431.884 1539 223.5 c 0,11,12
 1281.52 -0.999984 1281.52 -0.999984 797 -1 c 2,13,-1
 222 0 l 1,14,-1
 222 1563 l 1,4,-1
873 274 m 2,15,16
 1151.1 274 1151.1 274 1300.5 414 c 0,17,18
 1444 548.469 1444 548.469 1444 788 c 0,19,20
 1444 1146.67 1444 1146.67 1122 1252 c 0,21,22
 1015 1287 1015 1287 873 1287 c 2,23,-1
 539 1287 l 1,24,-1
 539 274 l 1,25,-1
 873 274 l 2,15,16
EndSplineSet
EndChar

StartChar: dcroat
Encoding: 273 273 214
Width: 1711
Flags: HW
LayerCount: 2
Fore
SplineSet
893 1525 m 1,0,-1
 1710 1525 l 1,1,-1
 1710 1303 l 1,2,-1
 893 1303 l 1,3,-1
 893 1525 l 1,0,-1
94 588 m 0,4,5
 94 726 94 726 147 839.5 c 128,-1,6
 200 953 200 953 293.5 1033.5 c 0,7,8
 488.05 1201 488.05 1201 794 1201 c 0,9,10
 984.051 1201 984.051 1201 1148.5 1137.5 c 0,11,12
 1199 1118 1199 1118 1238 1095 c 1,13,-1
 1238 1659 l 1,14,-1
 1534 1659 l 1,15,-1
 1534 0 l 1,16,-1
 1238 0 l 1,17,-1
 1238 111 l 1,18,19
 1109.81 22.2517 1109.81 22.2517 905.5 -10.5 c 0,20,21
 840 -21 840 -21 776 -21 c 0,22,23
 474 -21 474 -21 285 147 c 0,24,25
 94 316.778 94 316.778 94 588 c 0,4,5
1238 809 m 1,26,27
 1071.75 942 1071.75 942 833 942 c 0,28,29
 634.448 942 634.448 942 517.5 839 c 0,30,31
 405 739.917 405 739.917 405 585 c 0,32,33
 405 438.607 405 438.607 515.5 340.5 c 0,34,35
 630.947 238 630.947 238 814 238 c 0,36,37
 999.917 238 999.917 238 1153.5 333 c 0,38,39
 1202 363 1202 363 1238 400 c 1,40,-1
 1238 809 l 1,26,27
EndSplineSet
EndChar

StartChar: lacute
Encoding: 314 314 215
Width: 683
Flags: HW
LayerCount: 2
Fore
SplineSet
4 1788 m 1,0,-1
 580 2020 l 1,1,-1
 691 1791 l 1,2,-1
 103 1581 l 1,3,-1
 4 1788 l 1,0,-1
193 1510 m 1,4,-1
 489 1510 l 1,5,-1
 489 0 l 1,6,-1
 193 0 l 1,7,-1
 193 1510 l 1,4,-1
EndSplineSet
EndChar

StartChar: tbar
Encoding: 359 359 216
Width: 1022
Flags: HW
LayerCount: 2
Fore
SplineSet
78 707 m 1,0,-1
 944 707 l 1,1,-1
 944 485 l 1,2,-1
 78 485 l 1,3,-1
 78 707 l 1,0,-1
363 958 m 1,4,-1
 78 958 l 1,5,-1
 78 1180 l 1,6,-1
 363 1180 l 1,7,-1
 363 1547 l 1,8,-1
 659 1547 l 1,9,-1
 659 1180 l 1,10,-1
 944 1180 l 1,11,-1
 944 958 l 1,12,-1
 659 958 l 1,13,-1
 659 0 l 1,14,-1
 363 0 l 1,15,-1
 363 958 l 1,4,-1
EndSplineSet
EndChar

StartChar: Hbar
Encoding: 294 294 218
Width: 2050
Flags: HW
LayerCount: 2
Fore
SplineSet
221 912 m 1,0,-1
 55 912 l 1,1,-1
 55 1155 l 1,2,-1
 221 1155 l 1,3,-1
 221 1563 l 1,4,-1
 538 1563 l 1,5,-1
 538 1155 l 1,6,-1
 1510 1155 l 1,7,-1
 1510 1563 l 1,8,-1
 1828 1563 l 1,9,-1
 1828 1155 l 1,10,-1
 1971 1155 l 1,11,-1
 1971 912 l 1,12,-1
 1828 912 l 1,13,-1
 1828 0 l 1,14,-1
 1510 0 l 1,15,-1
 1510 443 l 1,16,-1
 538 443 l 1,17,-1
 538 0 l 1,18,-1
 221 0 l 1,19,-1
 221 912 l 1,0,-1
1510 714 m 1,20,-1
 1510 912 l 1,21,-1
 538 912 l 1,22,-1
 538 714 l 1,23,-1
 1510 714 l 1,20,-1
EndSplineSet
EndChar

StartChar: macron.cap
Encoding: 65546 -1 220
Width: 680
Flags: HW
LayerCount: 2
Fore
SplineSet
-56 2013 m 1,0,-1
 737 2013 l 1,1,-1
 737 1770 l 1,2,-1
 -56 1770 l 1,3,-1
 -56 2013 l 1,0,-1
EndSplineSet
EndChar

StartChar: Eng
Encoding: 330 330 221
Width: 2048
Flags: HW
LayerCount: 2
Fore
SplineSet
220 1563 m 1,0,-1
 537 1563 l 1,1,-1
 1511 1053 l 1,2,-1
 1511 1563 l 1,3,-1
 1828 1563 l 1,4,-1
 1828 271 l 2,5,6
 1828 56.2857 1828 56.2857 1798 -45.8571 c 128,-1,7
 1768 -148 1768 -148 1733.5 -209 c 128,-1,8
 1699 -270 1699 -270 1648 -324 c 0,9,10
 1550.67 -427.052 1550.67 -427.052 1369 -530 c 1,11,-1
 1236 -279 l 1,12,13
 1445.21 -151.657 1445.21 -151.657 1494 55 c 0,14,15
 1511 127 1511 127 1511 214 c 2,16,-1
 1511 717 l 1,17,-1
 537 1224 l 1,18,-1
 537 0 l 1,19,-1
 220 0 l 1,20,-1
 220 1563 l 1,0,-1
EndSplineSet
EndChar

StartChar: eng
Encoding: 331 331 222
Width: 1723
Flags: HW
LayerCount: 2
Fore
SplineSet
481 1080 m 1,0,1
 694.104 1201 694.104 1201 917 1201 c 0,2,3
 1197.43 1201 1197.43 1201 1365.5 1044 c 0,4,5
 1543.05 878.144 1543.05 878.144 1545 580 c 2,6,-1
 1546 312 l 1,7,-1
 1546 177 l 2,8,9
 1546 -1.71429 1546 -1.71429 1521 -88.8571 c 128,-1,10
 1496 -176 1496 -176 1466.5 -229 c 128,-1,11
 1437 -282 1437 -282 1393 -331 c 0,12,13
 1313.15 -419.928 1313.15 -419.928 1147 -530 c 1,14,-1
 1038 -279 l 1,15,16
 1159.56 -188.808 1159.56 -188.808 1206 -94 c 0,17,18
 1250 -4.16667 1250 -4.16667 1250 134 c 2,19,-1
 1250 532 l 2,20,21
 1250 725.932 1250 725.932 1143.5 834.5 c 0,22,23
 1038.05 942 1038.05 942 854 942 c 0,24,25
 701.273 942 701.273 942 563 857.5 c 0,26,27
 518 830 518 830 481 795 c 1,28,-1
 481 0 l 1,29,-1
 185 0 l 1,30,-1
 185 1180 l 1,31,-1
 481 1180 l 1,32,-1
 481 1080 l 1,0,1
EndSplineSet
EndChar

StartChar: circumflex
Encoding: 710 710 223
Width: 1078
Flags: HW
LayerCount: 2
Fore
SplineSet
68 1535 m 1,0,-1
 539 1890 l 1,1,-1
 1010 1535 l 1,2,-1
 870 1351 l 1,3,-1
 539 1601 l 1,4,-1
 208 1351 l 1,5,-1
 68 1535 l 1,0,-1
EndSplineSet
EndChar

StartChar: caron
Encoding: 711 711 224
Width: 1278
Flags: HW
LayerCount: 2
Fore
SplineSet
200 1679 m 1,0,-1
 340 1854 l 1,1,-1
 639 1625 l 1,2,-1
 938 1854 l 1,3,-1
 1078 1679 l 1,4,-1
 639 1345 l 1,5,-1
 200 1679 l 1,0,-1
EndSplineSet
EndChar

StartChar: circumflex.cap
Encoding: 65547 -1 225
Width: 1334
Flags: HW
LayerCount: 2
Fore
SplineSet
208 1823 m 1,0,-1
 665 2030 l 1,1,-1
 1122 1823 l 1,2,-1
 1013 1609 l 1,3,-1
 665 1772 l 1,4,-1
 317 1609 l 1,5,-1
 208 1823 l 1,0,-1
EndSplineSet
EndChar

StartChar: caron.cap
Encoding: 65548 -1 226
Width: 1334
Flags: HW
LayerCount: 2
Fore
SplineSet
225 1823 m 1,0,-1
 337 2030 l 1,1,-1
 664 1866 l 1,2,-1
 991 2030 l 1,3,-1
 1103 1823 l 1,4,-1
 664 1605 l 1,5,-1
 225 1823 l 1,0,-1
EndSplineSet
EndChar

StartChar: hungarumlaut
Encoding: 733 733 227
Width: 1062
Flags: HW
LayerCount: 2
Fore
SplineSet
134 1453 m 1,0,-1
 455 1919 l 1,1,-1
 642 1795 l 1,2,-1
 306 1336 l 1,3,-1
 134 1453 l 1,0,-1
685 1452 m 1,4,-1
 1006 1918 l 1,5,-1
 1193 1794 l 1,6,-1
 857 1335 l 1,7,-1
 685 1452 l 1,4,-1
EndSplineSet
EndChar

StartChar: breve
Encoding: 728 728 228
Width: 1063
Flags: HW
LayerCount: 2
Fore
SplineSet
531 1327 m 256,0,1
 336.302 1327 336.302 1327 218 1437 c 0,2,3
 102.25 1544.63 102.25 1544.63 82 1737 c 1,4,-1
 309 1737 l 1,5,6
 320 1642 320 1642 378.5 1589 c 128,-1,7
 437 1536 437 1536 531 1536 c 256,8,9
 625 1536 625 1536 683.5 1589 c 128,-1,10
 742 1642 742 1642 753 1737 c 1,11,-1
 980 1737 l 1,12,13
 949.034 1442.83 949.034 1442.83 708.5 1355.5 c 0,14,15
 630 1327 630 1327 531 1327 c 256,0,1
EndSplineSet
EndChar

StartChar: hungarumlaut.cap
Encoding: 65549 -1 229
Width: 680
Flags: HW
LayerCount: 2
Fore
SplineSet
670 1722 m 1,0,-1
 1057 2030 l 1,1,-1
 1212 1836 l 1,2,-1
 788 1551 l 1,3,-1
 670 1722 l 1,0,-1
76 1722 m 1,4,-1
 463 2030 l 1,5,-1
 618 1836 l 1,6,-1
 194 1551 l 1,7,-1
 76 1722 l 1,4,-1
EndSplineSet
EndChar

StartChar: breve.cap
Encoding: 65550 -1 230
Width: 680
Flags: HW
LayerCount: 2
Fore
SplineSet
521.5 1668.5 m 0,0,1
 442 1640 442 1640 341 1640 c 128,-1,2
 240 1640 240 1640 161 1668.5 c 128,-1,3
 82 1697 82 1697 25.5 1748.5 c 0,4,5
 -88.5978 1852.5 -88.5978 1852.5 -109 2030 c 1,6,-1
 118 2030 l 1,7,8
 129 1944 129 1944 187.5 1896.5 c 128,-1,9
 246 1849 246 1849 340 1849 c 256,10,11
 434 1849 434 1849 492.5 1896.5 c 128,-1,12
 551 1944 551 1944 562 2030 c 1,13,-1
 789 2030 l 1,14,15
 757.159 1752.98 757.159 1752.98 521.5 1668.5 c 0,0,1
EndSplineSet
EndChar

StartChar: notequal
Encoding: 8800 8800 232
Width: 1191
Flags: HW
LayerCount: 2
Fore
SplineSet
809 1360 m 1,0,-1
 1036 1360 l 1,1,-1
 383 178 l 1,2,-1
 156 178 l 1,3,-1
 809 1360 l 1,0,-1
137 1100 m 1,4,-1
 1054 1100 l 1,5,-1
 1054 878 l 1,6,-1
 137 878 l 1,7,-1
 137 1100 l 1,4,-1
137 686 m 1,8,-1
 1054 686 l 1,9,-1
 1054 464 l 1,10,-1
 137 464 l 1,11,-1
 137 686 l 1,8,-1
EndSplineSet
EndChar

StartChar: igrave
Encoding: 236 236 339
Width: 683
Flags: HW
LayerCount: 2
Fore
SplineSet
61 1551 m 1,0,-1
 172 1780 l 1,1,-1
 644 1547 l 1,2,-1
 545 1340 l 1,3,-1
 61 1551 l 1,0,-1
193 1180 m 1,4,-1
 489 1180 l 1,5,-1
 489 0 l 1,6,-1
 193 0 l 1,7,-1
 193 1180 l 1,4,-1
EndSplineSet
EndChar

StartChar: iacute
Encoding: 237 237 340
Width: 683
Flags: HW
LayerCount: 2
Fore
SplineSet
52 1547 m 1,0,-1
 524 1780 l 1,1,-1
 635 1551 l 1,2,-1
 151 1340 l 1,3,-1
 52 1547 l 1,0,-1
193 1180 m 1,4,-1
 489 1180 l 1,5,-1
 489 0 l 1,6,-1
 193 0 l 1,7,-1
 193 1180 l 1,4,-1
EndSplineSet
EndChar

StartChar: itilde
Encoding: 297 297 342
Width: 683
Flags: HW
LayerCount: 2
Fore
SplineSet
111 1677 m 1,0,1
 119 1731 119 1731 153 1757.5 c 128,-1,2
 187 1784 187 1784 225.5 1784 c 128,-1,3
 264 1784 264 1784 288 1774.5 c 128,-1,4
 312 1765 312 1765 331.5 1751.5 c 128,-1,5
 351 1738 351 1738 367 1721.5 c 128,-1,6
 383 1705 383 1705 399.5 1691.5 c 0,7,8
 439.222 1659 439.222 1659 464.111 1659 c 128,-1,9
 489 1659 489 1659 506.5 1663.5 c 128,-1,10
 524 1668 524 1668 541.5 1679 c 0,11,12
 582.239 1704.61 582.239 1704.61 593 1762 c 1,13,-1
 593 1507 l 1,14,15
 585 1465 585 1465 556 1434.5 c 128,-1,16
 527 1404 527 1404 476 1404 c 128,-1,17
 425 1404 425 1404 394 1423.5 c 128,-1,18
 363 1443 363 1443 338.5 1466.5 c 128,-1,19
 314 1490 314 1490 290 1509.5 c 128,-1,20
 266 1529 266 1529 226.5 1529 c 128,-1,21
 187 1529 187 1529 153 1501.5 c 128,-1,22
 119 1474 119 1474 111 1426 c 1,23,-1
 111 1677 l 1,0,1
193 1180 m 1,24,-1
 489 1180 l 1,25,-1
 489 0 l 1,26,-1
 193 0 l 1,27,-1
 193 1180 l 1,24,-1
EndSplineSet
EndChar

StartChar: imacron
Encoding: 299 299 344
Width: 683
Flags: HW
LayerCount: 2
Fore
SplineSet
85 1690 m 1,0,-1
 598 1690 l 1,1,-1
 598 1447 l 1,2,-1
 85 1447 l 1,3,-1
 85 1690 l 1,0,-1
193 1180 m 1,4,-1
 489 1180 l 1,5,-1
 489 0 l 1,6,-1
 193 0 l 1,7,-1
 193 1180 l 1,4,-1
EndSplineSet
EndChar

StartChar: minus
Encoding: 8722 8722 409
Width: 1191
Flags: HW
LayerCount: 2
Fore
SplineSet
137 906 m 1,0,-1
 1054 906 l 1,1,-1
 1054 684 l 1,2,-1
 137 684 l 1,3,-1
 137 906 l 1,0,-1
EndSplineSet
EndChar

StartChar: infinity
Encoding: 8734 8734 410
Width: 2054
Flags: HW
LayerCount: 2
Fore
SplineSet
1481 262 m 0,0,1
 1263.02 262 1263.02 262 1018 513 c 1,2,3
 868.287 347.528 868.287 347.528 702 285.5 c 0,4,5
 639 262 639 262 564.5 262 c 128,-1,6
 490 262 490 262 428.5 285 c 128,-1,7
 367 308 367 308 322.5 345 c 128,-1,8
 278 382 278 382 250 429 c 128,-1,9
 222 476 222 476 205.5 523 c 0,10,11
 176 607.03 176 607.03 176 665.515 c 128,-1,12
 176 724 176 724 184 769.5 c 128,-1,13
 192 815 192 815 210.5 862 c 128,-1,14
 229 909 229 909 260 954 c 128,-1,15
 291 999 291 999 337.5 1034 c 0,16,17
 439.8 1111 439.8 1111 593 1111 c 0,18,19
 775.37 1111 775.37 1111 945.5 939 c 1,20,-1
 1036 846 l 1,21,22
 1270.19 1111 1270.19 1111 1481 1111 c 0,23,24
 1763.23 1111 1763.23 1111 1848 862 c 0,25,26
 1877 776.812 1877 776.812 1877 716.406 c 128,-1,27
 1877 656 1877 656 1870.5 612.5 c 128,-1,28
 1864 569 1864 569 1848 521.5 c 128,-1,29
 1832 474 1832 474 1803.5 428 c 128,-1,30
 1775 382 1775 382 1731 345 c 0,31,32
 1632.3 262 1632.3 262 1481 262 c 0,0,1
467 490.5 m 128,-1,34
 506 464 506 464 559 464 c 128,-1,35
 612 464 612 464 650 480.5 c 128,-1,36
 688 497 688 497 724.5 523 c 0,37,38
 778.457 561.435 778.457 561.435 856 647 c 2,39,-1
 876 669 l 1,40,-1
 763.5 792 l 1,41,42
 645.136 916 645.136 916 570.568 916 c 128,-1,43
 496 916 496 916 458.5 890.5 c 128,-1,44
 421 865 421 865 402.5 828.5 c 0,45,46
 376 776.216 376 776.216 376 720.608 c 128,-1,47
 376 665 376 665 381.5 627.5 c 128,-1,48
 387 590 387 590 407.5 553.5 c 128,-1,33
 428 517 428 517 467 490.5 c 128,-1,34
1667 687 m 0,49,50
 1667 915 1667 915 1481 915 c 0,51,52
 1385.05 915 1385.05 915 1270.5 795 c 0,53,54
 1239 762 1239 762 1211 729 c 2,55,-1
 1182 694 l 1,56,-1
 1226 649 l 1,57,58
 1388.5 467 1388.5 467 1491 467 c 0,59,60
 1662.34 467 1662.34 467 1666.5 650 c 0,61,62
 1667 672 1667 672 1667 687 c 0,49,50
EndSplineSet
EndChar

StartChar: lessequal
Encoding: 8804 8804 411
Width: 1190
Flags: HW
LayerCount: 2
Fore
SplineSet
965 1528 m 1,0,-1
 1102 1313 l 1,1,-1
 474 896 l 1,2,-1
 1102 481 l 1,3,-1
 965 266 l 1,4,-1
 36 897 l 1,5,-1
 965 1528 l 1,0,-1
137 221 m 1,6,-1
 1054 221 l 1,7,-1
 1054 -1 l 1,8,-1
 137 -1 l 1,9,-1
 137 221 l 1,6,-1
EndSplineSet
EndChar

StartChar: partialdiff
Encoding: 8706 8706 413
Width: 1365
Flags: HW
LayerCount: 2
Fore
SplineSet
276 1317 m 1,0,1
 413.5 1342 413.5 1342 550.25 1342 c 128,-1,2
 687 1342 687 1342 797.5 1308 c 128,-1,3
 908 1274 908 1274 983.5 1218.5 c 128,-1,4
 1059 1163 1059 1163 1104.5 1091.5 c 128,-1,5
 1150 1020 1150 1020 1174.5 945.5 c 0,6,7
 1214 825.388 1214 825.388 1214 685.694 c 0,8,9
 1214 406 1214 406 1133 244 c 1,10,11
 1065 121 1065 121 947 53 c 128,-1,12
 829 -15 829 -15 699.5 -15 c 128,-1,13
 570 -15 570 -15 474.5 17.5 c 128,-1,14
 379 50 379 50 307 112 c 0,15,16
 151 246.333 151 246.333 151 470 c 256,17,18
 151 693.773 151 693.773 304.5 825.5 c 0,19,20
 448.413 949 448.413 949 660 949 c 0,21,22
 808.593 949 808.593 949 916 899 c 1,23,24
 793.943 1077 793.943 1077 534 1077 c 0,25,26
 447.429 1077 447.429 1077 276 1027 c 1,27,-1
 276 1317 l 1,0,1
445 470 m 256,28,29
 445 373.949 445 373.949 503.5 309.5 c 0,30,31
 569.308 237 569.308 237 683 237 c 0,32,33
 807.13 237 807.13 237 870.5 316.5 c 0,34,35
 921 379.855 921 379.855 921 470 c 0,36,37
 921 569.095 921 569.095 856.5 629.5 c 0,38,39
 790.831 691 790.831 691 675 691 c 0,40,41
 563.639 691 563.639 691 501.5 624.5 c 0,42,43
 445 564.035 445 564.035 445 470 c 256,28,29
EndSplineSet
EndChar

StartChar: summation
Encoding: 8721 8721 414
Width: 1196
Flags: HW
LayerCount: 2
Fore
SplineSet
508 518 m 1,0,-1
 49 1168 l 1,1,-1
 49 1342 l 1,2,-1
 1083 1342 l 1,3,-1
 1083 1090 l 1,4,-1
 421 1090 l 1,5,-1
 831 518 l 1,6,-1
 422 -55 l 1,7,-1
 1083 -55 l 1,8,-1
 1083 -308 l 1,9,-1
 49 -308 l 1,10,-1
 49 -132 l 1,11,-1
 508 518 l 1,0,-1
EndSplineSet
EndChar

StartChar: product
Encoding: 8719 8719 415
Width: 1706
Flags: HW
LayerCount: 2
Fore
SplineSet
294 1107 m 1,0,-1
 167 1107 l 1,1,-1
 167 1372 l 1,2,-1
 1455 1372 l 1,3,-1
 1455 1107 l 1,4,-1
 1329 1107 l 1,5,-1
 1329 -308 l 1,6,-1
 1057 -308 l 1,7,-1
 1057 1107 l 1,8,-1
 566 1107 l 1,9,-1
 566 -308 l 1,10,-1
 294 -308 l 1,11,-1
 294 1107 l 1,0,-1
EndSplineSet
EndChar

StartChar: pi
Encoding: 960 960 416
Width: 1533
Flags: HW
LayerCount: 2
Fore
SplineSet
1336 -1 m 1,0,1
 1298.5 -6 1298.5 -6 1246.25 -6 c 128,-1,2
 1194 -6 1194 -6 1140.5 11 c 128,-1,3
 1087 28 1087 28 1049.5 57 c 128,-1,4
 1012 86 1012 86 989 126 c 128,-1,5
 966 166 966 166 953.5 212 c 0,6,7
 932 291.12 932 291.12 932 409 c 2,8,-1
 932 782 l 1,9,-1
 539 782 l 1,10,-1
 539 1 l 1,11,-1
 268 1 l 1,12,-1
 268 782 l 1,13,-1
 142 782 l 1,14,-1
 142 1047 l 1,15,-1
 1391 1047 l 1,16,-1
 1391 782 l 1,17,-1
 1204 782 l 1,18,-1
 1204 410 l 2,19,20
 1204 276.484 1204 276.484 1249.5 253 c 0,21,22
 1265 245 1265 245 1286.2 245 c 128,-1,23
 1307.4 245 1307.4 245 1391 267 c 1,24,-1
 1391 0 l 1,25,-1
 1365 0 l 1,26,-1
 1342 -1 l 1,27,-1
 1336 -1 l 1,0,1
EndSplineSet
EndChar

StartChar: integral
Encoding: 8747 8747 417
Width: 852
Flags: HW
LayerCount: 2
Fore
SplineSet
320.5 -455.5 m 128,-1,1
 260 -471 260 -471 191.5 -471 c 128,-1,2
 123 -471 123 -471 35 -449 c 1,3,-1
 35 -189 l 1,4,5
 140 -219 140 -219 185.5 -219 c 128,-1,6
 231 -219 231 -219 249 -191 c 128,-1,7
 267 -163 267 -163 267 -111 c 2,8,-1
 267 1085 l 2,9,10
 267 1201.83 267 1201.83 281.5 1255.41 c 128,-1,11
 296 1309 296 1309 319 1346 c 128,-1,12
 342 1383 342 1383 382 1410.5 c 0,13,14
 467.091 1469 467.091 1469 629 1469 c 0,15,16
 688 1469 688 1469 770 1453 c 1,17,-1
 770 1189 l 1,18,19
 672 1217 672 1217 622.5 1217 c 128,-1,20
 573 1217 573 1217 555 1189 c 128,-1,21
 537 1161 537 1161 537 1109 c 2,22,-1
 537 -86 l 2,23,24
 537 -203.826 537 -203.826 522.5 -257.413 c 128,-1,25
 508 -311 508 -311 484.5 -348 c 128,-1,26
 461 -385 461 -385 421 -412.5 c 128,-1,0
 381 -440 381 -440 320.5 -455.5 c 128,-1,1
EndSplineSet
EndChar

StartChar: Omega
Encoding: 937 937 418
AltUni2: 002126.ffffffff.0
Width: 1706
Flags: HW
LayerCount: 2
Fore
SplineSet
1509 809 m 0,0,1
 1509 479.9 1509 479.9 1278 272 c 1,2,-1
 1540 272 l 1,3,-1
 1540 0 l 1,4,-1
 942 0 l 1,5,-1
 942 168 l 1,6,7
 1171.25 381.441 1171.25 381.441 1206.5 650 c 0,8,9
 1217 730 1217 730 1217 803 c 128,-1,10
 1217 876 1217 876 1192.5 929.5 c 128,-1,11
 1168 983 1168 983 1121.5 1021 c 0,12,13
 1024.83 1100 1024.83 1100 852 1100 c 256,14,15
 680.711 1100 680.711 1100 583 1021 c 0,16,17
 487 943.383 487 943.383 487 810 c 0,18,19
 487 626 487 626 527.5 518 c 128,-1,20
 568 410 568 410 622 329.5 c 128,-1,21
 676 249 676 249 763 168 c 1,22,-1
 763 0 l 1,23,-1
 165 0 l 1,24,-1
 165 272 l 1,25,-1
 426 272 l 1,26,27
 196 479 196 479 196 809 c 0,28,29
 196 1087.06 196 1087.06 396.5 1252.5 c 0,30,31
 581.318 1405 581.318 1405 852 1405 c 256,32,33
 1123.68 1405 1123.68 1405 1308.5 1252.5 c 0,34,35
 1509 1087.06 1509 1087.06 1509 809 c 0,0,1
EndSplineSet
EndChar

StartChar: radical
Encoding: 8730 8730 419
Width: 1361
Flags: HW
LayerCount: 2
Fore
SplineSet
70 881 m 1,0,-1
 476 881 l 1,1,-1
 704 256 l 1,2,-1
 860 828 l 1,3,4
 908 982 908 982 954 1148 c 1,5,-1
 1047 1468 l 1,6,-1
 1360 1468 l 1,7,-1
 825 -184 l 1,8,-1
 595 -184 l 1,9,-1
 290 617 l 1,10,-1
 70 617 l 1,11,-1
 70 881 l 1,0,-1
EndSplineSet
EndChar

StartChar: approxequal
Encoding: 8776 8776 420
Width: 1194
Flags: HW
LayerCount: 2
Fore
SplineSet
1066 797 m 1,0,1
 955.158 680 955.158 680 806 680 c 0,2,3
 743 680 743 680 695 699.5 c 128,-1,4
 647 719 647 719 604 742.5 c 128,-1,5
 561 766 561 766 520 785.5 c 128,-1,6
 479 805 479 805 439.5 805 c 128,-1,7
 400 805 400 805 364.5 796.5 c 128,-1,8
 329 788 329 788 294 773 c 0,9,10
 218.75 740.75 218.75 740.75 170 692 c 1,11,-1
 170 942 l 1,12,13
 280.842 1059 280.842 1059 430 1059 c 0,14,15
 493 1059 493 1059 541 1039.5 c 128,-1,16
 589 1020 589 1020 632 996.5 c 128,-1,17
 675 973 675 973 716 953.5 c 128,-1,18
 757 934 757 934 796.5 934 c 128,-1,19
 836 934 836 934 871.5 942.5 c 128,-1,20
 907 951 907 951 942 966 c 0,21,22
 1017.25 998.25 1017.25 998.25 1066 1047 c 1,23,-1
 1066 797 l 1,0,1
1066 287 m 1,24,25
 955.158 170 955.158 170 806 170 c 0,26,27
 743 170 743 170 695 189.5 c 128,-1,28
 647 209 647 209 604 232.5 c 128,-1,29
 561 256 561 256 520 275.5 c 128,-1,30
 479 295 479 295 439.5 295 c 128,-1,31
 400 295 400 295 364.5 286.5 c 128,-1,32
 329 278 329 278 294 263 c 0,33,34
 218.75 230.75 218.75 230.75 170 182 c 1,35,-1
 170 432 l 1,36,37
 280.842 549 280.842 549 430 549 c 0,38,39
 493 549 493 549 541 529.5 c 128,-1,40
 589 510 589 510 632 486.5 c 128,-1,41
 675 463 675 463 716 443.5 c 128,-1,42
 757 424 757 424 796.5 424 c 128,-1,43
 836 424 836 424 871.5 432.5 c 128,-1,44
 907 441 907 441 942 456 c 0,45,46
 1017.25 488.25 1017.25 488.25 1066 537 c 1,47,-1
 1066 287 l 1,24,25
EndSplineSet
EndChar

StartChar: Delta
Encoding: 916 916 421
AltUni2: 002206.ffffffff.0
Width: 1537
Flags: HW
LayerCount: 2
Fore
SplineSet
52 161 m 1,0,-1
 644 1404 l 1,1,-1
 835 1404 l 1,2,-1
 1458 161 l 1,3,-1
 1458 0 l 1,4,-1
 52 0 l 1,5,-1
 52 161 l 1,0,-1
1123 264 m 1,6,-1
 740 976 l 1,7,-1
 387 264 l 1,8,-1
 1123 264 l 1,6,-1
EndSplineSet
EndChar

StartChar: fraction
Encoding: 8260 8260 422
Width: 1706
Flags: HW
LayerCount: 2
Fore
SplineSet
1360 1920 m 1,0,-1
 1627 1920 l 1,1,-1
 345 -177 l 1,2,-1
 78 -177 l 1,3,-1
 1360 1920 l 1,0,-1
EndSplineSet
EndChar

StartChar: AEacute
Encoding: 508 508 423
Width: 2729
Flags: HW
LayerCount: 2
Fore
SplineSet
1394 1841 m 1,0,-1
 2068 2030 l 1,1,-1
 2138 1782 l 1,2,-1
 1456 1623 l 1,3,-1
 1394 1841 l 1,0,-1
1193 1563 m 1,4,-1
 2503 1563 l 1,5,-1
 2503 1285 l 1,6,-1
 1618 1285 l 1,7,-1
 1618 973 l 1,8,-1
 2387 973 l 1,9,-1
 2387 712 l 1,10,-1
 1618 712 l 1,11,-1
 1618 277 l 1,12,-1
 2524 277 l 1,13,-1
 2524 0 l 1,14,-1
 1301 0 l 1,15,-1
 1301 263 l 1,16,-1
 546 263 l 1,17,-1
 348 0 l 1,18,-1
 4 0 l 1,19,-1
 1193 1563 l 1,4,-1
1301 524 m 1,20,-1
 1301 1264 l 1,21,-1
 743 524 l 1,22,-1
 1301 524 l 1,20,-1
1301 1563 m 1,23,-1
 2632 1563 l 1,24,-1
 2632 1285 l 1,25,-1
 1618 1285 l 1,26,-1
 1618 973 l 1,27,-1
 2516 973 l 1,28,-1
 2516 712 l 1,29,-1
 1618 712 l 1,30,-1
 1618 277 l 1,31,-1
 2653 277 l 1,32,-1
 2653 0 l 1,33,-1
 1301 0 l 1,34,-1
 1301 1563 l 1,23,-1
EndSplineSet
EndChar
